<svg width="40" height="40" viewBox="0 0 40 40" fill="none" xmlns="http://www.w3.org/2000/svg">
<circle cx="20" cy="20" r="20" fill="#BB6BD9"/>
<path d="M25.8333 13.3333H25V11.6666H23.3333V13.3333H16.6667V11.6666H15V13.3333H14.1667C13.7246 13.3333 13.3007 13.5089 12.9882 13.8214C12.6756 14.134 12.5 14.5579 12.5 15V26.6666C12.5 27.1087 12.6756 27.5326 12.9882 27.8451C13.3007 28.1577 13.7246 28.3333 14.1667 28.3333H25.8333C26.2754 28.3333 26.6993 28.1577 27.0118 27.8451C27.3244 27.5326 27.5 27.1087 27.5 26.6666V15C27.5 14.5579 27.3244 14.134 27.0118 13.8214C26.6993 13.5089 26.2754 13.3333 25.8333 13.3333ZM25.8333 26.6666H14.1667V18.3333H25.8333V26.6666ZM25.8333 16.6666H14.1667V15H25.8333V16.6666ZM20 19.1666C21.6667 19.1666 22.5 21.1833 21.325 22.3666C20.1417 23.55 18.125 22.7083 18.125 21.0416C18.125 20 18.9583 19.1666 20 19.1666ZM23.75 25.7333V25.8333H16.25V25.7333C16.25 24.6916 17.9167 23.8583 20 23.8583C22.0833 23.8583 23.75 24.6916 23.75 25.7333Z" fill="#FDFDFD"/>
</svg>
