<svg width="40" height="40" viewBox="0 0 40 40" fill="none" xmlns="http://www.w3.org/2000/svg">
<circle cx="20" cy="20" r="20" fill="#27AE60"/>
<path fill-rule="evenodd" clip-rule="evenodd" d="M24.1925 17.0575C24.2507 17.1156 24.2969 17.1845 24.3284 17.2605C24.3599 17.3364 24.3761 17.4178 24.3761 17.5C24.3761 17.5822 24.3599 17.6636 24.3284 17.7395C24.2969 17.8155 24.2507 17.8844 24.1925 17.9425L20.4425 21.6925C20.3844 21.7507 20.3155 21.7969 20.2395 21.8284C20.1636 21.8599 20.0822 21.8761 20 21.8761C19.9178 21.8761 19.8364 21.8599 19.7605 21.8284C19.6845 21.7969 19.6156 21.7507 19.5575 21.6925L17.6825 19.8175C17.6244 19.7594 17.5783 19.6904 17.5468 19.6145C17.5154 19.5386 17.4992 19.4572 17.4992 19.375C17.4992 19.2928 17.5154 19.2114 17.5468 19.1355C17.5783 19.0596 17.6244 18.9906 17.6825 18.9325C17.7406 18.8744 17.8096 18.8283 17.8855 18.7968C17.9614 18.7654 18.0428 18.7492 18.125 18.7492C18.2072 18.7492 18.2886 18.7654 18.3645 18.7968C18.4404 18.8283 18.5094 18.8744 18.5675 18.9325L20 20.3663L23.3075 17.0575C23.3656 16.9993 23.4345 16.9531 23.5105 16.9216C23.5864 16.8901 23.6678 16.8739 23.75 16.8739C23.8322 16.8739 23.9136 16.8901 23.9895 16.9216C24.0655 16.9531 24.1344 16.9993 24.1925 17.0575Z" fill="#FDFDFD"/>
<path fill-rule="evenodd" clip-rule="evenodd" d="M10 11.875C10 11.7092 10.0658 11.5503 10.1831 11.4331C10.3003 11.3158 10.4592 11.25 10.625 11.25H12.5C12.6394 11.25 12.7748 11.2967 12.8847 11.3825C12.9945 11.4684 13.0725 11.5885 13.1062 11.7237L13.6125 13.75H28.125C28.2168 13.7501 28.3074 13.7704 28.3904 13.8094C28.4735 13.8485 28.5469 13.9054 28.6055 13.976C28.6641 14.0466 28.7064 14.1293 28.7294 14.2181C28.7524 14.307 28.7556 14.3998 28.7388 14.49L26.8638 24.49C26.8369 24.6332 26.7609 24.7626 26.6489 24.8557C26.5368 24.9488 26.3957 24.9999 26.25 25H15C14.8543 24.9999 14.7132 24.9488 14.6011 24.8557C14.4891 24.7626 14.4131 24.6332 14.3863 24.49L12.5125 14.5088L12.0125 12.5H10.625C10.4592 12.5 10.3003 12.4342 10.1831 12.3169C10.0658 12.1997 10 12.0408 10 11.875ZM13.8775 15L15.5188 23.75H25.7312L27.3725 15H13.8775ZM16.25 25C15.587 25 14.9511 25.2634 14.4822 25.7322C14.0134 26.2011 13.75 26.837 13.75 27.5C13.75 28.163 14.0134 28.7989 14.4822 29.2678C14.9511 29.7366 15.587 30 16.25 30C16.913 30 17.5489 29.7366 18.0178 29.2678C18.4866 28.7989 18.75 28.163 18.75 27.5C18.75 26.837 18.4866 26.2011 18.0178 25.7322C17.5489 25.2634 16.913 25 16.25 25ZM25 25C24.337 25 23.7011 25.2634 23.2322 25.7322C22.7634 26.2011 22.5 26.837 22.5 27.5C22.5 28.163 22.7634 28.7989 23.2322 29.2678C23.7011 29.7366 24.337 30 25 30C25.663 30 26.2989 29.7366 26.7678 29.2678C27.2366 28.7989 27.5 28.163 27.5 27.5C27.5 26.837 27.2366 26.2011 26.7678 25.7322C26.2989 25.2634 25.663 25 25 25ZM16.25 26.25C15.9185 26.25 15.6005 26.3817 15.3661 26.6161C15.1317 26.8505 15 27.1685 15 27.5C15 27.8315 15.1317 28.1495 15.3661 28.3839C15.6005 28.6183 15.9185 28.75 16.25 28.75C16.5815 28.75 16.8995 28.6183 17.1339 28.3839C17.3683 28.1495 17.5 27.8315 17.5 27.5C17.5 27.1685 17.3683 26.8505 17.1339 26.6161C16.8995 26.3817 16.5815 26.25 16.25 26.25ZM25 26.25C24.6685 26.25 24.3505 26.3817 24.1161 26.6161C23.8817 26.8505 23.75 27.1685 23.75 27.5C23.75 27.8315 23.8817 28.1495 24.1161 28.3839C24.3505 28.6183 24.6685 28.75 25 28.75C25.3315 28.75 25.6495 28.6183 25.8839 28.3839C26.1183 28.1495 26.25 27.8315 26.25 27.5C26.25 27.1685 26.1183 26.8505 25.8839 26.6161C25.6495 26.3817 25.3315 26.25 25 26.25Z" fill="#FDFDFD"/>
</svg>
