<svg width="40" height="40" viewBox="0 0 40 40" fill="none" xmlns="http://www.w3.org/2000/svg">
<circle cx="20" cy="20" r="20" fill="#EB5757"/>
<path d="M28.0273 15.5391C27.7655 14.9329 27.3881 14.3836 26.916 13.9219C26.4436 13.4588 25.8866 13.0908 25.2754 12.8379C24.6416 12.5746 23.9617 12.4398 23.2754 12.4414C22.3125 12.4414 21.373 12.7051 20.5566 13.2031C20.3613 13.3223 20.1758 13.4531 20 13.5957C19.8242 13.4531 19.6387 13.3223 19.4434 13.2031C18.627 12.7051 17.6875 12.4414 16.7246 12.4414C16.0312 12.4414 15.3594 12.5742 14.7246 12.8379C14.1113 13.0918 13.5586 13.457 13.084 13.9219C12.6113 14.3831 12.2337 14.9325 11.9727 15.5391C11.7012 16.1699 11.5625 16.8399 11.5625 17.5293C11.5625 18.1797 11.6953 18.8574 11.959 19.5469C12.1797 20.1231 12.4961 20.7207 12.9004 21.3242C13.541 22.2793 14.4219 23.2754 15.5156 24.2852C17.3281 25.959 19.123 27.1152 19.1992 27.1621L19.6621 27.459C19.8672 27.5899 20.1309 27.5899 20.3359 27.459L20.7988 27.1621C20.875 27.1133 22.668 25.959 24.4824 24.2852C25.5762 23.2754 26.457 22.2793 27.0977 21.3242C27.502 20.7207 27.8203 20.1231 28.0391 19.5469C28.3027 18.8574 28.4355 18.1797 28.4355 17.5293C28.4375 16.8399 28.2988 16.1699 28.0273 15.5391ZM20 25.9141C20 25.9141 13.0469 21.459 13.0469 17.5293C13.0469 15.5391 14.6934 13.9258 16.7246 13.9258C18.1523 13.9258 19.3906 14.7227 20 15.8867C20.6094 14.7227 21.8477 13.9258 23.2754 13.9258C25.3066 13.9258 26.9531 15.5391 26.9531 17.5293C26.9531 21.459 20 25.9141 20 25.9141Z" fill="#FDFDFD"/>
</svg>
