<svg width="40" height="40" viewBox="0 0 40 40" fill="none" xmlns="http://www.w3.org/2000/svg">
<circle cx="20" cy="20" r="20" fill="#BB6BD9"/>
<path d="M23.8889 16.6667V15.0278C23.8889 14.5171 23.7883 14.0114 23.5929 13.5396C23.3974 13.0677 23.111 12.639 22.7499 12.2779C22.3888 11.9168 21.96 11.6303 21.4882 11.4349C21.0164 11.2395 20.5107 11.1389 20 11.1389C19.4893 11.1389 18.9836 11.2395 18.5118 11.4349C18.04 11.6303 17.6113 11.9168 17.2501 12.2779C16.889 12.639 16.6026 13.0677 16.4071 13.5396C16.2117 14.0114 16.1111 14.5171 16.1111 15.0278V18.9167C16.1111 19.064 16.1696 19.2053 16.2738 19.3095C16.378 19.4137 16.5193 19.4722 16.6667 19.4722C16.814 19.4722 16.9553 19.4137 17.0595 19.3095C17.1637 19.2053 17.2222 19.064 17.2222 18.9167V17.7778H21.6667V16.6667H17.2222V15.0278C17.2222 14.2911 17.5149 13.5845 18.0358 13.0636C18.5568 12.5427 19.2633 12.25 20 12.25C20.7367 12.25 21.4433 12.5427 21.9642 13.0636C22.4851 13.5845 22.7778 14.2911 22.7778 15.0278V18.8889C22.7778 19.0362 22.8363 19.1775 22.9405 19.2817C23.0447 19.3859 23.186 19.4444 23.3333 19.4444C23.4807 19.4444 23.622 19.3859 23.7262 19.2817C23.8304 19.1775 23.8889 19.0362 23.8889 18.8889V17.7778H26.6667V27.7778H13.3333V17.7778H15V16.6667H12.2222V27.8278C12.2222 28.1092 12.334 28.3791 12.533 28.5781C12.732 28.7771 13.0019 28.8889 13.2833 28.8889H26.7167C26.9981 28.8889 27.268 28.7771 27.467 28.5781C27.666 28.3791 27.7778 28.1092 27.7778 27.8278V16.6667H23.8889Z" fill="#FDFDFD"/>
</svg>
