<svg width="40" height="40" viewBox="0 0 40 40" fill="none" xmlns="http://www.w3.org/2000/svg">
<circle cx="20" cy="20" r="20" fill="#EB5757"/>
<path d="M27.7778 18.3333H27.2222V15C27.2222 14.8527 27.1637 14.7113 27.0595 14.6072C26.9553 14.503 26.814 14.4444 26.6667 14.4444H13.3333C13.2018 14.4466 13.0737 14.402 12.972 14.3186C12.8703 14.2351 12.8014 14.1183 12.7778 13.9889V13.7889C12.8014 13.6595 12.8703 13.5426 12.972 13.4592C13.0737 13.3758 13.2018 13.3312 13.3333 13.3333H26.4333C26.5807 13.3333 26.722 13.2748 26.8262 13.1706C26.9303 13.0664 26.9889 12.9251 26.9889 12.7778C26.9889 12.6304 26.9303 12.4891 26.8262 12.3849C26.722 12.2808 26.5807 12.2222 26.4333 12.2222H13.3333C12.8913 12.2222 12.4674 12.3978 12.1548 12.7104C11.8422 13.0229 11.6667 13.4469 11.6667 13.8889C11.6628 13.9555 11.6628 14.0223 11.6667 14.0889V25.5167C11.6688 25.8158 11.7299 26.1116 11.8464 26.3871C11.9629 26.6626 12.1325 26.9125 12.3456 27.1224C12.5586 27.3324 12.811 27.4983 13.0882 27.6108C13.3653 27.7232 13.662 27.78 13.9611 27.7778H26.6667C26.814 27.7778 26.9553 27.7192 27.0595 27.6151C27.1637 27.5109 27.2222 27.3696 27.2222 27.2222V23.8889H27.7778C27.9251 23.8889 28.0664 23.8304 28.1706 23.7262C28.2748 23.622 28.3333 23.4807 28.3333 23.3333V18.8889C28.3333 18.7415 28.2748 18.6002 28.1706 18.4961C28.0664 18.3919 27.9251 18.3333 27.7778 18.3333ZM26.1111 26.6667H13.9611C13.6521 26.6697 13.3544 26.5505 13.1328 26.3351C12.9112 26.1198 12.7836 25.8256 12.7778 25.5167V15.4889C12.9581 15.5411 13.1457 15.5637 13.3333 15.5556H26.1111V18.3333H22.2222C21.4855 18.3333 20.779 18.626 20.258 19.1469C19.7371 19.6679 19.4444 20.3744 19.4444 21.1111C19.4444 21.8478 19.7371 22.5544 20.258 23.0753C20.779 23.5962 21.4855 23.8889 22.2222 23.8889H26.1111V26.6667ZM27.2222 22.7778H22.2222C21.7802 22.7778 21.3563 22.6022 21.0437 22.2896C20.7311 21.9771 20.5555 21.5531 20.5555 21.1111C20.5555 20.6691 20.7311 20.2452 21.0437 19.9326C21.3563 19.62 21.7802 19.4444 22.2222 19.4444H27.2222V22.7778Z" fill="#FDFDFD"/>
<path d="M22.7833 21.9444C23.2436 21.9444 23.6167 21.5713 23.6167 21.1111C23.6167 20.6509 23.2436 20.2778 22.7833 20.2778C22.3231 20.2778 21.95 20.6509 21.95 21.1111C21.95 21.5713 22.3231 21.9444 22.7833 21.9444Z" fill="#FDFDFD"/>
</svg>
