<svg width="40" height="40" viewBox="0 0 40 40" fill="none" xmlns="http://www.w3.org/2000/svg">
<circle cx="20" cy="20" r="20" fill="#656C7D"/>
<path d="M26.1667 16.1167L23.8834 13.8333C23.5854 13.5534 23.1949 13.3928 22.7861 13.382C22.3774 13.3713 21.979 13.5111 21.6667 13.775L14.1667 21.275C13.8973 21.5466 13.7296 21.9027 13.6917 22.2833L13.3334 25.7583C13.3221 25.8804 13.338 26.0034 13.3798 26.1187C13.4215 26.2339 13.4882 26.3385 13.575 26.425C13.6529 26.5022 13.7452 26.5633 13.8468 26.6048C13.9483 26.6463 14.057 26.6673 14.1667 26.6667H14.2417L17.7167 26.35C18.0974 26.3121 18.4534 26.1444 18.725 25.875L26.225 18.375C26.5161 18.0675 26.6735 17.6571 26.6625 17.2338C26.6516 16.8105 26.4733 16.4088 26.1667 16.1167ZM17.5667 24.6833L15.0667 24.9167L15.2917 22.4167L20 17.7667L22.25 20.0167L17.5667 24.6833ZM23.3334 18.9L21.1 16.6667L22.725 15L25 17.275L23.3334 18.9Z" fill="white"/>
</svg>
