<svg width="40" height="40" viewBox="0 0 40 40" fill="none" xmlns="http://www.w3.org/2000/svg">
<circle cx="20" cy="20" r="20" fill="#F2994A"/>
<path d="M25 25.4167C25.6917 25.4167 26.25 24.8583 26.25 24.1667C26.25 23.475 25.6917 22.9167 25 22.9167C24.3084 22.9167 23.75 23.475 23.75 24.1667C23.75 24.8583 24.3084 25.4167 25 25.4167ZM26.25 17.9167H24.1667V20H27.8834L26.25 17.9167ZM15 25.4167C15.6917 25.4167 16.25 24.8583 16.25 24.1667C16.25 23.475 15.6917 22.9167 15 22.9167C14.3084 22.9167 13.75 23.475 13.75 24.1667C13.75 24.8583 14.3084 25.4167 15 25.4167ZM26.6667 16.6667L29.1667 20V24.1667H27.5C27.5 25.55 26.3834 26.6667 25 26.6667C23.6167 26.6667 22.5 25.55 22.5 24.1667H17.5C17.5 25.55 16.3834 26.6667 15 26.6667C13.6167 26.6667 12.5 25.55 12.5 24.1667H10.8334V15C10.8334 14.075 11.575 13.3333 12.5 13.3333H24.1667V16.6667H26.6667ZM12.5 15V22.5H13.1334C13.5917 21.9917 14.2584 21.6667 15 21.6667C15.7417 21.6667 16.4084 21.9917 16.8667 22.5H22.5V15H12.5ZM18.3334 15.8333L21.25 18.75L18.3334 21.6667V19.5833H14.1667V17.9167H18.3334V15.8333Z" fill="#FDFDFD"/>
</svg>
