<svg width="40" height="40" viewBox="0 0 40 40" fill="none" xmlns="http://www.w3.org/2000/svg">
<circle cx="20" cy="20" r="20" fill="#BB6BD9"/>
<g clip-path="url(#clip0)">
<path fill-rule="evenodd" clip-rule="evenodd" d="M27.5 13.75H12.5C12.1685 13.75 11.8505 13.8817 11.6161 14.1161C11.3817 14.3505 11.25 14.6685 11.25 15V25C11.25 25.3315 11.3817 25.6495 11.6161 25.8839C11.8505 26.1183 12.1685 26.25 12.5 26.25H27.5C27.8315 26.25 28.1495 26.1183 28.3839 25.8839C28.6183 25.6495 28.75 25.3315 28.75 25V15C28.75 14.6685 28.6183 14.3505 28.3839 14.1161C28.1495 13.8817 27.8315 13.75 27.5 13.75ZM12.5 12.5C11.837 12.5 11.2011 12.7634 10.7322 13.2322C10.2634 13.7011 10 14.337 10 15V25C10 25.663 10.2634 26.2989 10.7322 26.7678C11.2011 27.2366 11.837 27.5 12.5 27.5H27.5C28.163 27.5 28.7989 27.2366 29.2678 26.7678C29.7366 26.2989 30 25.663 30 25V15C30 14.337 29.7366 13.7011 29.2678 13.2322C28.7989 12.7634 28.163 12.5 27.5 12.5H12.5Z" fill="#FDFDFD"/>
<path d="M15 21.25H13.75C13.0596 21.25 12.5 21.8096 12.5 22.5V23.75C12.5 24.4404 13.0596 25 13.75 25H15C15.6904 25 16.25 24.4404 16.25 23.75V22.5C16.25 21.8096 15.6904 21.25 15 21.25Z" fill="#FDFDFD"/>
<path d="M11.25 16.25H28.75V18.75H11.25V16.25Z" fill="#FDFDFD"/>
</g>
<defs>
<clipPath id="clip0">
<rect width="20" height="20" fill="white" transform="translate(10 10)"/>
</clipPath>
</defs>
</svg>
