<svg width="40" height="40" viewBox="0 0 40 40" fill="none" xmlns="http://www.w3.org/2000/svg">
<circle cx="20" cy="20" r="20" fill="#656C7D"/>
<path d="M19.8333 19.0833C17.9417 18.5917 17.3333 18.0833 17.3333 17.2917C17.3333 16.3833 18.175 15.75 19.5833 15.75C20.7667 15.75 21.3583 16.2 21.575 16.9167C21.675 17.25 21.95 17.5 22.3 17.5H22.55C23.1 17.5 23.4917 16.9583 23.3 16.4417C22.95 15.4583 22.1333 14.6417 20.8333 14.325V13.75C20.8333 13.0583 20.275 12.5 19.5833 12.5C18.8917 12.5 18.3333 13.0583 18.3333 13.75V14.3C16.7167 14.65 15.4167 15.7 15.4167 17.3083C15.4167 19.2333 17.0083 20.1917 19.3333 20.75C21.4167 21.25 21.8333 21.9833 21.8333 22.7583C21.8333 23.3333 21.425 24.25 19.5833 24.25C18.2083 24.25 17.5 23.7583 17.225 23.0583C17.1 22.7333 16.8167 22.5 16.475 22.5H16.2417C15.6833 22.5 15.2917 23.0667 15.5 23.5833C15.975 24.7417 17.0833 25.425 18.3333 25.6917V26.25C18.3333 26.9417 18.8917 27.5 19.5833 27.5C20.275 27.5 20.8333 26.9417 20.8333 26.25V25.7083C22.4583 25.4 23.75 24.4583 23.75 22.75C23.75 20.3833 21.725 19.575 19.8333 19.0833Z" fill="#FDFDFD"/>
</svg>
