<svg width="40" height="40" viewBox="0 0 40 40" fill="none" xmlns="http://www.w3.org/2000/svg">
<circle cx="20" cy="20" r="20" fill="#2F80ED"/>
<path d="M27.9262 16.9738C27.4925 16.3825 26.8875 15.69 26.2238 15.0262C25.56 14.3625 24.8675 13.7575 24.2762 13.3237C23.2687 12.585 22.78 12.5 22.5 12.5H15.3125C14.4512 12.5 13.75 13.2012 13.75 14.0625V28.4375C13.75 29.2987 14.4512 30 15.3125 30H27.1875C28.0487 30 28.75 29.2987 28.75 28.4375V18.75C28.75 18.47 28.665 17.9812 27.9262 16.9738ZM25.3387 15.9113C25.9388 16.5113 26.4087 17.0512 26.7562 17.5H23.7487V14.4938C24.1975 14.8412 24.7388 15.3113 25.3375 15.9113H25.3387ZM27.5 28.4375C27.5 28.6075 27.3575 28.75 27.1875 28.75H15.3125C15.2299 28.749 15.151 28.7158 15.0926 28.6574C15.0342 28.599 15.001 28.5201 15 28.4375V14.0625C15 13.8937 15.1425 13.75 15.3125 13.75H22.5V18.125C22.5 18.2908 22.5658 18.4497 22.6831 18.5669C22.8003 18.6842 22.9592 18.75 23.125 18.75H27.5V28.4375Z" fill="#FDFDFD"/>
<path d="M21.7762 10.8237C20.7687 10.085 20.28 10 20 10H12.8125C11.9512 10 11.25 10.7012 11.25 11.5625V25.9375C11.25 26.6925 11.7875 27.3237 12.5 27.4688V11.5625C12.5 11.3937 12.6437 11.25 12.8125 11.25H22.3213C22.143 11.1031 21.9608 10.961 21.775 10.8237H21.7762Z" fill="#FDFDFD"/>
</svg>
