<svg width="40" height="40" viewBox="0 0 40 40" fill="none" xmlns="http://www.w3.org/2000/svg">
<circle cx="20" cy="20" r="20" fill="#6FCF97"/>
<path d="M25 16.6667H26.6667C26.8877 16.6667 27.0996 16.7545 27.2559 16.9108C27.4122 17.0671 27.5 17.279 27.5 17.5V27.5C27.5 27.7211 27.4122 27.933 27.2559 28.0893C27.0996 28.2456 26.8877 28.3334 26.6667 28.3334H13.3333C13.1123 28.3334 12.9004 28.2456 12.7441 28.0893C12.5878 27.933 12.5 27.7211 12.5 27.5V17.5C12.5 17.279 12.5878 17.0671 12.7441 16.9108C12.9004 16.7545 13.1123 16.6667 13.3333 16.6667H15V15.8334C15 14.5073 15.5268 13.2355 16.4645 12.2978C17.4021 11.3602 18.6739 10.8334 20 10.8334C21.3261 10.8334 22.5979 11.3602 23.5355 12.2978C24.4732 13.2355 25 14.5073 25 15.8334V16.6667ZM14.1667 18.3334V26.6667H25.8333V18.3334H14.1667ZM19.1667 21.6667H20.8333V23.3334H19.1667V21.6667ZM15.8333 21.6667H17.5V23.3334H15.8333V21.6667ZM22.5 21.6667H24.1667V23.3334H22.5V21.6667ZM23.3333 16.6667V15.8334C23.3333 14.9493 22.9821 14.1015 22.357 13.4764C21.7319 12.8512 20.8841 12.5 20 12.5C19.1159 12.5 18.2681 12.8512 17.643 13.4764C17.0179 14.1015 16.6667 14.9493 16.6667 15.8334V16.6667H23.3333Z" fill="#FDFDFD"/>
</svg>
