<svg width="16" height="16" viewBox="0 0 16 16" fill="none" xmlns="http://www.w3.org/2000/svg">
<path d="M0 0H16V16H0V0Z" fill="white" fill-opacity="0.01"/>
<mask id="mask0" mask-type="alpha" maskUnits="userSpaceOnUse" x="0" y="0" width="16" height="16">
<path fill-rule="evenodd" clip-rule="evenodd" d="M8.00002 1.99999C4.68631 1.99999 2.00002 4.68628 2.00002 7.99999C2.00002 11.3137 4.68631 14 8.00002 14C11.3137 14 14 11.3137 14 7.99999C14 4.68628 11.3137 1.99999 8.00002 1.99999ZM0.666687 7.99999C0.666687 3.9499 3.94993 0.666656 8.00002 0.666656C12.0501 0.666656 15.3334 3.9499 15.3334 7.99999C15.3334 12.0501 12.0501 15.3333 8.00002 15.3333C6.0551 15.3333 4.18984 14.5607 2.81457 13.1854C1.4393 11.8102 0.666687 9.94491 0.666687 7.99999ZM4.74668 11.14C4.62047 11.0148 4.54948 10.8444 4.54948 10.6667C4.54948 10.4889 4.62047 10.3185 4.74668 10.1933L6.99986 7.9428L4.47336 5.41332C4.21487 5.1533 4.21487 4.73334 4.47336 4.47332C4.73338 4.21484 5.15333 4.21484 5.41336 4.47332L7.9434 7.00038L10.4067 4.53999C10.6735 4.34276 11.0448 4.37178 11.2777 4.60807C11.5107 4.84437 11.5344 5.21601 11.3333 5.47999L8.88308 7.93895L11.0734 10.1267C11.3348 10.3881 11.3348 10.8119 11.0734 11.0733C10.8119 11.3347 10.3881 11.3347 10.1267 11.0733L7.94066 8.88471L5.69335 11.14C5.56817 11.2662 5.39777 11.3372 5.22001 11.3372C5.04226 11.3372 4.87186 11.2662 4.74668 11.14Z" fill="white"/>
</mask>
<g mask="url(#mask0)">
<rect width="16" height="16" fill="#A6A6A6"/>
</g>
</svg>
