<svg width="675" height="567" viewBox="0 0 675 567" fill="none" xmlns="http://www.w3.org/2000/svg">
<rect width="675" height="567" fill="white"/>
<g opacity="0.2" filter="url(#filter0_f)">
<path d="M414.191 254.037C407.725 237.419 396.018 223.362 380.845 213.996C365.672 204.63 347.859 200.465 330.106 202.132C312.353 203.799 295.627 211.208 282.463 223.235C269.299 235.263 260.414 251.253 257.155 268.784C253.895 286.315 256.439 304.43 264.401 320.385C272.362 336.341 285.307 349.266 301.275 357.202C317.243 365.139 335.362 367.655 352.888 364.368C370.413 361.081 386.39 352.171 398.397 338.988L395.349 336.212C383.946 348.732 368.772 357.194 352.128 360.316C335.483 363.437 318.275 361.048 303.11 353.51C287.945 345.973 275.651 333.698 268.09 318.545C260.529 303.392 258.113 286.187 261.208 269.538C264.304 252.888 272.742 237.702 285.244 226.279C297.746 214.857 313.631 207.82 330.492 206.237C347.352 204.654 364.269 208.609 378.68 217.505C393.09 226.4 404.208 239.75 410.349 255.532L414.191 254.037Z" fill="#C4C4C4"/>
<path d="M317.388 221C306.233 224.623 296.245 231.152 288.452 239.917C280.658 248.681 275.341 259.364 273.047 270.866C270.754 282.368 271.567 294.273 275.402 305.357C279.237 316.44 285.957 326.301 294.869 333.925C303.781 341.55 314.564 346.661 326.108 348.734C337.652 350.807 349.539 349.766 360.547 345.719C371.555 341.672 381.286 334.765 388.738 325.709C396.19 316.652 401.094 305.773 402.946 294.192L399.669 293.668C397.91 304.667 393.253 314.999 386.175 323.6C379.098 332.201 369.857 338.761 359.402 342.605C348.948 346.448 337.658 347.436 326.694 345.468C315.731 343.499 305.491 338.644 297.026 331.404C288.562 324.163 282.181 314.798 278.538 304.271C274.895 293.745 274.124 282.438 276.302 271.515C278.48 260.591 283.53 250.446 290.932 242.122C298.333 233.798 307.819 227.597 318.413 224.156L317.388 221Z" fill="#C4C4C4"/>
<path d="M308.647 315.216C314.412 320.693 321.588 324.456 329.371 326.086C337.155 327.716 345.238 327.148 352.716 324.445C360.195 321.741 366.773 317.01 371.715 310.781C376.658 304.551 379.769 297.069 380.7 289.172C381.632 281.275 380.347 273.274 376.99 266.065C373.632 258.857 368.335 252.725 361.691 248.356C355.047 243.987 347.317 241.554 339.369 241.328C331.42 241.102 323.565 243.093 316.684 247.078L318.844 250.808C325.033 247.224 332.097 245.434 339.246 245.637C346.395 245.84 353.347 248.028 359.323 251.958C365.298 255.887 370.063 261.402 373.082 267.885C376.102 274.369 377.257 281.564 376.419 288.667C375.582 295.77 372.784 302.499 368.339 308.102C363.894 313.705 357.977 317.96 351.251 320.391C344.525 322.822 337.255 323.333 330.255 321.867C323.255 320.401 316.801 317.016 311.615 312.091L308.647 315.216Z" fill="#C4C4C4"/>
</g>
<path d="M85.5441 283.368L85.0698 283.209V283.209L85.5441 283.368ZM79.9004 300.299L80.1057 300.755L80.3054 300.665L80.3747 300.457L79.9004 300.299ZM71.346 305.247L71.2458 305.737L71.4608 305.781L71.6387 305.652L71.346 305.247ZM53.8524 301.667L53.9527 301.177L53.8524 301.667ZM51.7194 302.627L51.2864 302.377L51.7194 302.627ZM39.1609 324.378L38.7279 324.128H38.7279L39.1609 324.378ZM39.3966 326.705L39.0225 327.037H39.0225L39.3966 326.705ZM51.2452 340.067L51.7427 340.117L51.7645 339.899L51.6193 339.736L51.2452 340.067ZM51.2456 349.937L51.6197 350.269L51.7649 350.105L51.7432 349.887L51.2456 349.937ZM39.3966 363.3L39.0225 362.968H39.0225L39.3966 363.3ZM39.1609 365.627L38.7279 365.877H38.7279L39.1609 365.627ZM51.7194 387.378L51.2864 387.628H51.2864L51.7194 387.378ZM53.8524 388.338L53.7522 387.848H53.7522L53.8524 388.338ZM71.3515 384.757L71.6441 384.352L71.4662 384.223L71.2512 384.267L71.3515 384.757ZM79.9004 389.701L80.3747 389.543L80.3054 389.335L80.1057 389.245L79.9004 389.701ZM85.5441 406.632L86.0185 406.474L85.5441 406.632ZM114.456 406.632L113.981 406.474L114.456 406.632ZM120.1 389.701L119.894 389.245L119.695 389.335L119.625 389.543L120.1 389.701ZM128.648 384.757L128.749 384.267L128.534 384.223L128.356 384.352L128.648 384.757ZM146.147 388.338L146.247 387.848L146.147 388.338ZM148.28 387.378L148.713 387.628L148.28 387.378ZM160.839 365.627L161.272 365.877L160.839 365.627ZM160.603 363.3L160.229 363.631L160.603 363.3ZM148.754 349.938L148.257 349.888L148.235 350.106L148.38 350.269L148.754 349.938ZM148.755 340.067L148.381 339.735L148.235 339.899L148.257 340.117L148.755 340.067ZM160.603 326.705L160.229 326.374V326.374L160.603 326.705ZM160.839 324.378L161.272 324.128L160.839 324.378ZM148.28 302.627L147.847 302.877V302.877L148.28 302.627ZM146.147 301.667L146.047 301.177L146.147 301.667ZM128.654 305.247L128.361 305.652L128.539 305.781L128.754 305.737L128.654 305.247ZM120.1 300.299L119.625 300.457L119.695 300.665L119.894 300.755L120.1 300.299ZM114.456 283.368L113.981 283.526V283.526L114.456 283.368ZM86.0185 283.526C86.2227 282.913 86.7959 282.5 87.4415 282.5V281.5C86.3654 281.5 85.4101 282.189 85.0698 283.209L86.0185 283.526ZM80.3747 300.457L86.0185 283.526L85.0698 283.209L79.426 300.141L80.3747 300.457ZM71.6387 305.652C74.2747 303.749 77.1094 302.104 80.1057 300.755L79.6951 299.843C76.6366 301.22 73.7434 302.899 71.0533 304.842L71.6387 305.652ZM53.7522 302.157L71.2458 305.737L71.4463 304.757L53.9527 301.177L53.7522 302.157ZM52.1524 302.877C52.4752 302.317 53.1196 302.028 53.7522 302.157L53.9527 301.177C52.8984 300.962 51.8244 301.445 51.2864 302.377L52.1524 302.877ZM39.5939 324.628L52.1524 302.877L51.2864 302.377L38.7279 324.128L39.5939 324.628ZM39.7707 326.374C39.3423 325.891 39.2711 325.188 39.5939 324.628L38.7279 324.128C38.1899 325.06 38.3085 326.232 39.0225 327.037L39.7707 326.374ZM51.6193 339.736L39.7707 326.374L39.0225 327.037L50.8711 340.399L51.6193 339.736ZM51.5 345C51.5 343.352 51.5822 341.723 51.7427 340.117L50.7477 340.018C50.5839 341.656 50.5 343.318 50.5 345H51.5ZM51.7432 349.887C51.5823 348.28 51.5 346.65 51.5 345H50.5C50.5 346.683 50.584 348.347 50.7481 349.987L51.7432 349.887ZM39.7707 363.631L51.6197 350.269L50.8715 349.606L39.0225 362.968L39.7707 363.631ZM39.5939 365.377C39.2711 364.817 39.3423 364.114 39.7707 363.631L39.0225 362.968C38.3085 363.773 38.1899 364.945 38.7279 365.877L39.5939 365.377ZM52.1524 387.128L39.5939 365.377L38.7279 365.877L51.2864 387.628L52.1524 387.128ZM53.7522 387.848C53.1196 387.977 52.4752 387.688 52.1524 387.128L51.2864 387.628C51.8244 388.56 52.8984 389.043 53.9527 388.828L53.7522 387.848ZM71.2512 384.267L53.7522 387.848L53.9527 388.828L71.4517 385.247L71.2512 384.267ZM80.1057 389.245C77.1114 387.897 74.2785 386.253 71.6441 384.352L71.0588 385.162C73.7474 387.103 76.6387 388.781 79.6951 390.157L80.1057 389.245ZM86.0185 406.474L80.3747 389.543L79.426 389.859L85.0698 406.791L86.0185 406.474ZM87.4415 407.5C86.7959 407.5 86.2227 407.087 86.0185 406.474L85.0698 406.791C85.4101 407.811 86.3654 408.5 87.4415 408.5V407.5ZM112.558 407.5H87.4415V408.5H112.558V407.5ZM113.981 406.474C113.777 407.087 113.204 407.5 112.558 407.5V408.5C113.635 408.5 114.59 407.811 114.93 406.791L113.981 406.474ZM119.625 389.543L113.981 406.474L114.93 406.791L120.574 389.859L119.625 389.543ZM128.356 384.352C125.721 386.253 122.889 387.897 119.894 389.245L120.305 390.157C123.361 388.781 126.253 387.103 128.941 385.162L128.356 384.352ZM146.247 387.848L128.749 384.267L128.548 385.247L146.047 388.828L146.247 387.848ZM147.847 387.128C147.524 387.688 146.88 387.977 146.247 387.848L146.047 388.828C147.101 389.043 148.175 388.56 148.713 387.628L147.847 387.128ZM160.406 365.377L147.847 387.128L148.713 387.628L161.272 365.877L160.406 365.377ZM160.229 363.631C160.657 364.114 160.728 364.817 160.406 365.377L161.272 365.877C161.81 364.945 161.691 363.773 160.977 362.968L160.229 363.631ZM148.38 350.269L160.229 363.631L160.977 362.968L149.128 349.606L148.38 350.269ZM148.5 345C148.5 346.65 148.418 348.281 148.257 349.888L149.252 349.988C149.416 348.347 149.5 346.683 149.5 345H148.5ZM148.257 340.117C148.418 341.722 148.5 343.352 148.5 345H149.5C149.5 343.318 149.416 341.656 149.252 340.017L148.257 340.117ZM160.229 326.374L148.381 339.735L149.129 340.399L160.977 327.037L160.229 326.374ZM160.406 324.628C160.728 325.188 160.657 325.891 160.229 326.374L160.977 327.037C161.691 326.232 161.81 325.06 161.272 324.128L160.406 324.628ZM147.847 302.877L160.406 324.628L161.272 324.128L148.713 302.377L147.847 302.877ZM146.247 302.157C146.88 302.028 147.524 302.317 147.847 302.877L148.713 302.377C148.175 301.445 147.101 300.962 146.047 301.177L146.247 302.157ZM128.754 305.737L146.247 302.157L146.047 301.177L128.554 304.757L128.754 305.737ZM119.894 300.755C122.891 302.104 125.725 303.749 128.361 305.652L128.947 304.842C126.256 302.899 123.363 301.22 120.305 299.843L119.894 300.755ZM113.981 283.526L119.625 300.457L120.574 300.141L114.93 283.209L113.981 283.526ZM112.558 282.5C113.204 282.5 113.777 282.913 113.981 283.526L114.93 283.209C114.59 282.189 113.635 281.5 112.558 281.5V282.5ZM87.4415 282.5H112.558V281.5H87.4415V282.5Z" fill="#E9E9E9"/>
<path fill-rule="evenodd" clip-rule="evenodd" d="M100 352C103.866 352 107 348.866 107 345C107 341.134 103.866 338 100 338C96.134 338 93 341.134 93 345C93 348.866 96.134 352 100 352Z" stroke="#E9E9E9"/>
<path d="M563.544 154.368L563.07 154.209V154.209L563.544 154.368ZM557.9 171.299L558.106 171.755L558.305 171.665L558.375 171.457L557.9 171.299ZM549.346 176.247L549.246 176.737L549.461 176.781L549.639 176.652L549.346 176.247ZM531.852 172.667L531.953 172.177H531.953L531.852 172.667ZM529.719 173.627L529.286 173.377L529.719 173.627ZM517.161 195.378L516.728 195.128H516.728L517.161 195.378ZM517.397 197.705L517.022 198.037H517.022L517.397 197.705ZM529.245 211.067L529.743 211.117L529.764 210.899L529.619 210.736L529.245 211.067ZM529.246 220.937L529.62 221.269L529.765 221.105L529.743 220.887L529.246 220.937ZM517.397 234.3L517.022 233.968H517.022L517.397 234.3ZM517.161 236.627L516.728 236.877H516.728L517.161 236.627ZM529.719 258.378L529.286 258.628L529.719 258.378ZM531.852 259.338L531.752 258.848H531.752L531.852 259.338ZM549.351 255.757L549.644 255.352L549.466 255.223L549.251 255.267L549.351 255.757ZM557.9 260.701L558.375 260.543L558.305 260.335L558.106 260.245L557.9 260.701ZM563.544 277.632L564.018 277.474L563.544 277.632ZM592.456 277.632L591.981 277.474L592.456 277.632ZM598.1 260.701L597.894 260.245L597.695 260.335L597.625 260.543L598.1 260.701ZM606.648 255.757L606.749 255.267L606.534 255.223L606.356 255.352L606.648 255.757ZM624.147 259.338L624.247 258.848L624.147 259.338ZM626.28 258.378L626.713 258.628L626.28 258.378ZM638.839 236.627L639.272 236.877L638.839 236.627ZM638.603 234.3L638.229 234.631L638.603 234.3ZM626.754 220.938L626.257 220.888L626.235 221.106L626.38 221.269L626.754 220.938ZM626.755 211.067L626.381 210.735L626.235 210.899L626.257 211.117L626.755 211.067ZM638.603 197.705L638.229 197.374V197.374L638.603 197.705ZM638.839 195.378L639.272 195.128L638.839 195.378ZM626.28 173.627L625.847 173.877V173.877L626.28 173.627ZM624.147 172.667L624.047 172.177L624.147 172.667ZM606.654 176.247L606.361 176.652L606.539 176.781L606.754 176.737L606.654 176.247ZM598.1 171.299L597.625 171.457L597.695 171.665L597.894 171.755L598.1 171.299ZM592.456 154.368L591.981 154.526V154.526L592.456 154.368ZM564.018 154.526C564.223 153.913 564.796 153.5 565.442 153.5V152.5C564.365 152.5 563.41 153.189 563.07 154.209L564.018 154.526ZM558.375 171.457L564.018 154.526L563.07 154.209L557.426 171.141L558.375 171.457ZM549.639 176.652C552.275 174.749 555.109 173.104 558.106 171.755L557.695 170.843C554.637 172.22 551.743 173.899 549.053 175.842L549.639 176.652ZM531.752 173.157L549.246 176.737L549.446 175.757L531.953 172.177L531.752 173.157ZM530.152 173.877C530.475 173.317 531.12 173.028 531.752 173.157L531.953 172.177C530.898 171.962 529.824 172.445 529.286 173.377L530.152 173.877ZM517.594 195.628L530.152 173.877L529.286 173.377L516.728 195.128L517.594 195.628ZM517.771 197.374C517.342 196.891 517.271 196.188 517.594 195.628L516.728 195.128C516.19 196.06 516.309 197.232 517.022 198.037L517.771 197.374ZM529.619 210.736L517.771 197.374L517.022 198.037L528.871 211.399L529.619 210.736ZM529.5 216C529.5 214.352 529.582 212.723 529.743 211.117L528.748 211.018C528.584 212.656 528.5 214.318 528.5 216H529.5ZM529.743 220.887C529.582 219.28 529.5 217.65 529.5 216H528.5C528.5 217.683 528.584 219.347 528.748 220.987L529.743 220.887ZM517.771 234.631L529.62 221.269L528.872 220.606L517.022 233.968L517.771 234.631ZM517.594 236.377C517.271 235.817 517.342 235.114 517.771 234.631L517.022 233.968C516.309 234.773 516.19 235.945 516.728 236.877L517.594 236.377ZM530.152 258.128L517.594 236.377L516.728 236.877L529.286 258.628L530.152 258.128ZM531.752 258.848C531.12 258.977 530.475 258.688 530.152 258.128L529.286 258.628C529.824 259.56 530.898 260.043 531.953 259.828L531.752 258.848ZM549.251 255.267L531.752 258.848L531.953 259.828L549.452 256.247L549.251 255.267ZM558.106 260.245C555.111 258.897 552.279 257.253 549.644 255.352L549.059 256.162C551.747 258.103 554.639 259.781 557.695 261.157L558.106 260.245ZM564.018 277.474L558.375 260.543L557.426 260.859L563.07 277.791L564.018 277.474ZM565.442 278.5C564.796 278.5 564.223 278.087 564.018 277.474L563.07 277.791C563.41 278.811 564.365 279.5 565.442 279.5V278.5ZM590.558 278.5H565.442V279.5H590.558V278.5ZM591.981 277.474C591.777 278.087 591.204 278.5 590.558 278.5V279.5C591.635 279.5 592.59 278.811 592.93 277.791L591.981 277.474ZM597.625 260.543L591.981 277.474L592.93 277.791L598.574 260.859L597.625 260.543ZM606.356 255.352C603.721 257.253 600.889 258.897 597.894 260.245L598.305 261.157C601.361 259.781 604.253 258.103 606.941 256.162L606.356 255.352ZM624.247 258.848L606.749 255.267L606.548 256.247L624.047 259.828L624.247 258.848ZM625.847 258.128C625.524 258.688 624.88 258.977 624.247 258.848L624.047 259.828C625.101 260.043 626.175 259.56 626.713 258.628L625.847 258.128ZM638.406 236.377L625.847 258.128L626.713 258.628L639.272 236.877L638.406 236.377ZM638.229 234.631C638.657 235.114 638.728 235.817 638.406 236.377L639.272 236.877C639.81 235.945 639.691 234.773 638.977 233.968L638.229 234.631ZM626.38 221.269L638.229 234.631L638.977 233.968L627.128 220.606L626.38 221.269ZM626.5 216C626.5 217.65 626.418 219.281 626.257 220.888L627.252 220.988C627.416 219.347 627.5 217.683 627.5 216H626.5ZM626.257 211.117C626.418 212.722 626.5 214.352 626.5 216H627.5C627.5 214.318 627.416 212.656 627.252 211.017L626.257 211.117ZM638.229 197.374L626.381 210.735L627.129 211.399L638.977 198.037L638.229 197.374ZM638.406 195.628C638.728 196.188 638.657 196.891 638.229 197.374L638.977 198.037C639.691 197.232 639.81 196.06 639.272 195.128L638.406 195.628ZM625.847 173.877L638.406 195.628L639.272 195.128L626.713 173.377L625.847 173.877ZM624.247 173.157C624.88 173.028 625.524 173.317 625.847 173.877L626.713 173.377C626.175 172.445 625.101 171.962 624.047 172.177L624.247 173.157ZM606.754 176.737L624.247 173.157L624.047 172.177L606.554 175.757L606.754 176.737ZM597.894 171.755C600.891 173.104 603.725 174.749 606.361 176.652L606.947 175.842C604.256 173.899 601.363 172.22 598.305 170.843L597.894 171.755ZM591.981 154.526L597.625 171.457L598.574 171.141L592.93 154.209L591.981 154.526ZM590.558 153.5C591.204 153.5 591.777 153.913 591.981 154.526L592.93 154.209C592.59 153.189 591.635 152.5 590.558 152.5V153.5ZM565.442 153.5H590.558V152.5H565.442V153.5Z" fill="#E9E9E9"/>
<path fill-rule="evenodd" clip-rule="evenodd" d="M578 223C581.866 223 585 219.866 585 216C585 212.134 581.866 209 578 209C574.134 209 571 212.134 571 216C571 219.866 574.134 223 578 223Z" stroke="#E9E9E9"/>
<path d="M241.514 312.416H209.874V354H193.602V312.416H104.332V300.664L188.178 195.8H206.258L125.35 297.952H194.054V261.34H209.874V297.952H241.514V312.416Z" fill="#656C7D"/>
<path d="M576.514 317.416H544.874V359H528.602V317.416H439.332V305.664L523.178 200.8H541.258L460.35 302.952H529.054V266.34H544.874V302.952H576.514V317.416Z" fill="#656C7D"/>
<path d="M621.292 141L619.946 149.163C619.867 149.646 619.449 150 618.96 150H607.043C606.554 150 606.136 149.646 606.056 149.163L604.849 141.837C604.769 141.354 604.351 141 603.862 141H602" stroke="#D4DBF2" stroke-linecap="round" stroke-linejoin="round"/>
<path fill-rule="evenodd" clip-rule="evenodd" d="M608 155C608.552 155 609 154.552 609 154C609 153.448 608.552 153 608 153C607.448 153 607 153.448 607 154C607 154.552 607.448 155 608 155Z" stroke="#D4DBF2"/>
<path fill-rule="evenodd" clip-rule="evenodd" d="M618 155C618.552 155 619 154.552 619 154C619 153.448 618.552 153 618 153C617.448 153 617 153.448 617 154C617 154.552 617.448 155 618 155Z" stroke="#D4DBF2"/>
<path d="M616 143H610" stroke="#D4DBF2" stroke-linecap="round"/>
<path d="M613 140V146" stroke="#D4DBF2" stroke-linecap="round"/>
<path d="M89 54V57" stroke="#D4DBF2" stroke-linecap="round"/>
<path d="M89 75V78" stroke="#D4DBF2" stroke-linecap="round"/>
<path d="M94.25 60C94.25 60 93.5 57 89 57C84.5 57 83.75 59.9348 83.75 61.5C83.75 67.7105 94.25 64.4474 94.25 70.5C94.25 72.0652 93.5 75 89 75C84.5 75 83.75 72 83.75 72" stroke="#D4DBF2" stroke-linecap="round"/>
<rect x="514" y="499" width="20" height="14" rx="2" stroke="#D4DBF2" stroke-linecap="round" stroke-linejoin="round"/>
<path d="M514 508H534" stroke="#D4DBF2" stroke-linecap="round"/>
<path fill-rule="evenodd" clip-rule="evenodd" d="M163.71 493H179.292L177.808 502H165.194L163.71 493Z" stroke="#D4DBF2" stroke-linecap="round" stroke-linejoin="round"/>
<path fill-rule="evenodd" clip-rule="evenodd" d="M167 507C167.552 507 168 506.552 168 506C168 505.448 167.552 505 167 505C166.448 505 166 505.448 166 506C166 506.552 166.448 507 167 507Z" stroke="#D4DBF2"/>
<path fill-rule="evenodd" clip-rule="evenodd" d="M176 507C176.552 507 177 506.552 177 506C177 505.448 176.552 505 176 505C175.448 505 175 505.448 175 506C175 506.552 175.448 507 176 507Z" stroke="#D4DBF2"/>
<path d="M165 493H161" stroke="#D4DBF2" stroke-linecap="round"/>
<path fill-rule="evenodd" clip-rule="evenodd" d="M233 138L227 132L233 138Z" stroke="#D4DBF2" stroke-linecap="round" stroke-linejoin="round"/>
<path d="M217 138L223 132" stroke="#D4DBF2" stroke-linecap="round" stroke-linejoin="round"/>
<path fill-rule="evenodd" clip-rule="evenodd" d="M216.813 138H233.188L231.628 147H218.372L216.813 138Z" stroke="#D4DBF2" stroke-linecap="round" stroke-linejoin="round"/>
<rect x="529" y="54" width="14" height="12" stroke="#D4DBF2" stroke-linecap="round" stroke-linejoin="round"/>
<path d="M532 54C532 51.7909 533.791 50 536 50C538.209 50 540 51.7909 540 54" stroke="#D4DBF2" stroke-linecap="round" stroke-linejoin="round"/>
<path opacity="0.4" d="M431.084 124.998C428.54 120.728 430.324 114.975 435.069 112.148C439.814 109.322 445.722 110.492 448.266 114.762L452.872 122.494L474.35 109.7L485.865 129.03L494.456 123.912C499.201 121.085 505.11 122.256 507.654 126.526C510.197 130.796 508.413 136.55 503.668 139.376L495.077 144.494L506.592 163.824L485.115 176.619L480.509 168.887C477.965 164.616 472.056 163.446 467.311 166.272C462.567 169.099 460.782 174.852 463.326 179.122L467.932 186.854L446.454 199.649L434.939 180.319L443.53 175.201C448.275 172.374 450.059 166.621 447.516 162.351C444.972 158.081 439.063 156.91 434.318 159.737L425.727 164.855L414.212 145.525L435.69 132.73L431.084 124.998Z" fill="#EBEBEB"/>
<path d="M381.917 297.167H313.583L306.75 256.167H388.75L381.917 297.167Z" fill="#CCD6DD"/>
<path d="M388.695 314.25H313.529C309.791 314.25 306.75 311.206 306.75 307.471C306.75 303.737 309.846 300.583 313.583 300.583L313.607 300.58L313.635 300.583H381.917C382.725 300.583 383.508 300.296 384.125 299.773C384.742 299.25 385.153 298.525 385.286 297.727L392.119 256.727C392.202 256.238 392.177 255.736 392.046 255.257C391.915 254.778 391.681 254.334 391.36 253.955C391.039 253.576 390.639 253.272 390.188 253.064C389.737 252.856 389.247 252.748 388.75 252.75H309.541L305.988 231.683C305.852 230.92 305.458 230.228 304.872 229.722C304.286 229.215 303.544 228.926 302.77 228.902C302.715 228.891 302.677 228.833 302.623 228.833H286.25C285.344 228.833 284.475 229.193 283.834 229.834C283.193 230.475 282.833 231.344 282.833 232.25C282.833 233.156 283.193 234.025 283.834 234.666C284.475 235.307 285.344 235.667 286.25 235.667H299.732L309.651 294.488C304.041 296.172 299.917 301.321 299.917 307.471C299.921 311.08 301.357 314.54 303.909 317.091C306.46 319.643 309.92 321.079 313.529 321.083H388.695C389.602 321.083 390.471 320.723 391.111 320.083C391.752 319.442 392.112 318.573 392.112 317.667C392.112 316.761 391.752 315.891 391.111 315.251C390.471 314.61 389.602 314.25 388.695 314.25ZM381.302 280.083H370.003L370.936 273.25H382.436L381.302 280.083ZM363.105 280.083H351.167V273.25H364.037L363.105 280.083ZM344.333 280.083H332.396L331.463 273.25H344.333V280.083ZM325.501 280.083H314.202L313.064 273.25H324.568L325.501 280.083ZM316.477 293.75L315.34 286.917H326.433L327.366 293.75H316.477ZM334.264 293.75L333.332 286.917H344.333V293.75H334.264ZM351.167 293.75V286.917H362.168L361.236 293.75H351.167ZM368.137 293.75L369.07 286.917H380.164L379.026 293.75H368.137ZM384.715 259.583L383.577 266.417H371.872L372.804 259.583H384.715ZM365.906 259.583L364.973 266.417H351.167V259.583H365.906ZM344.333 259.583V266.417H330.527L329.594 259.583H344.333ZM322.696 259.583L323.628 266.417H311.919L310.782 259.583H322.696Z" fill="#656C7D"/>
<path d="M323.833 338.167C329.494 338.167 334.083 333.578 334.083 327.917C334.083 322.256 329.494 317.667 323.833 317.667C318.172 317.667 313.583 322.256 313.583 327.917C313.583 333.578 318.172 338.167 323.833 338.167Z" fill="#E1E8ED"/>
<path d="M323.833 341.583C316.296 341.583 310.167 335.454 310.167 327.917C310.167 320.38 316.296 314.25 323.833 314.25C331.37 314.25 337.5 320.38 337.5 327.917C337.5 335.454 331.37 341.583 323.833 341.583ZM323.833 321.083C320.065 321.083 317 324.148 317 327.917C317 331.685 320.065 334.75 323.833 334.75C327.602 334.75 330.666 331.685 330.666 327.917C330.666 324.148 327.602 321.083 323.833 321.083Z" fill="#656C7D"/>
<path d="M371.667 338.167C377.328 338.167 381.917 333.578 381.917 327.917C381.917 322.256 377.328 317.667 371.667 317.667C366.006 317.667 361.417 322.256 361.417 327.917C361.417 333.578 366.006 338.167 371.667 338.167Z" fill="#E1E8ED"/>
<path d="M371.667 341.583C364.13 341.583 358 335.454 358 327.917C358 320.38 364.13 314.25 371.667 314.25C379.204 314.25 385.333 320.38 385.333 327.917C385.333 335.454 379.204 341.583 371.667 341.583ZM371.667 321.083C367.898 321.083 364.833 324.148 364.833 327.917C364.833 331.685 367.898 334.75 371.667 334.75C375.435 334.75 378.5 331.685 378.5 327.917C378.5 324.148 375.435 321.083 371.667 321.083Z" fill="#656C7D"/>
<defs>
<filter id="filter0_f" x="254.773" y="200.773" width="160.418" height="166" filterUnits="userSpaceOnUse" color-interpolation-filters="sRGB">
<feFlood flood-opacity="0" result="BackgroundImageFix"/>
<feBlend mode="normal" in="SourceGraphic" in2="BackgroundImageFix" result="shape"/>
<feGaussianBlur stdDeviation="0.5" result="effect1_foregroundBlur"/>
</filter>
</defs>
</svg>
