<svg width="360" height="199" viewBox="0 0 360 199" fill="none" xmlns="http://www.w3.org/2000/svg">
<g clip-path="url(#clip0)">
<rect width="360" height="199" fill="white"/>
<g opacity="0.1" filter="url(#filter0_f)">
<path d="M256.191 62.0368C249.725 45.4193 238.018 31.3624 222.845 21.9962C207.672 12.63 189.859 8.46496 172.106 10.1322C154.353 11.7994 137.627 19.208 124.463 31.2353C111.299 43.2627 102.414 59.2533 99.1545 76.7841C95.8951 94.3149 98.4389 112.43 106.4 128.385C114.362 144.341 127.307 157.266 143.275 165.202C159.242 173.139 177.362 175.655 194.888 172.368C212.413 169.081 228.39 160.171 240.397 146.988L237.349 144.212C225.945 156.732 210.772 165.194 194.128 168.316C177.483 171.437 160.275 169.048 145.11 161.51C129.945 153.973 117.651 141.698 110.09 126.545C102.528 111.392 100.113 94.1871 103.208 77.5377C106.304 60.8884 114.742 45.7018 127.244 34.2792C139.746 22.8566 155.631 15.8205 172.492 14.2371C189.352 12.6537 206.269 16.6094 220.679 25.5046C235.09 34.3999 246.208 47.75 252.349 63.5319L256.191 62.0368Z" fill="#C4C4C4"/>
<path d="M159.388 29.0001C148.233 32.6226 138.245 39.1521 130.452 47.9166C122.658 56.6811 117.341 67.3641 115.047 78.8659C112.754 90.3678 113.567 102.273 117.402 113.357C121.237 124.44 127.957 134.301 136.869 141.925C145.781 149.55 156.564 154.661 168.108 156.734C179.652 158.807 191.539 157.766 202.547 153.719C213.555 149.672 223.286 142.765 230.738 133.709C238.19 124.652 243.094 113.773 244.946 102.192L241.669 101.668C239.91 112.667 235.253 122.999 228.175 131.6C221.098 140.201 211.857 146.761 201.402 150.605C190.948 154.448 179.658 155.436 168.694 153.468C157.731 151.499 147.491 146.644 139.026 139.404C130.562 132.163 124.181 122.798 120.538 112.271C116.895 101.745 116.124 90.4385 118.302 79.5149C120.48 68.5914 125.53 58.4456 132.932 50.1217C140.333 41.7979 149.819 35.5967 160.413 32.1563L159.388 29.0001Z" fill="#C4C4C4"/>
<path d="M150.647 123.216C156.412 128.693 163.588 132.456 171.371 134.086C179.154 135.716 187.238 135.148 194.716 132.445C202.195 129.741 208.773 125.01 213.715 118.781C218.658 112.551 221.769 105.069 222.7 97.1718C223.632 89.2746 222.347 81.2739 218.99 74.0654C215.632 66.8569 210.335 60.725 203.691 56.3561C197.046 51.9872 189.317 49.5537 181.369 49.328C173.42 49.1023 165.565 51.0933 158.684 55.0781L160.844 58.8083C167.033 55.2244 174.097 53.4337 181.246 53.6367C188.395 53.8397 195.347 56.0284 201.322 59.9578C207.298 63.8871 212.063 69.402 215.082 75.8853C218.102 82.3685 219.257 89.5642 218.419 96.6669C217.582 103.77 214.784 110.499 210.339 116.102C205.893 121.705 199.977 125.96 193.251 128.391C186.525 130.822 179.255 131.333 172.255 129.867C165.255 128.401 158.801 125.016 153.615 120.091L150.647 123.216Z" fill="#C4C4C4"/>
</g>
<path d="M317.292 70L315.946 78.1627C315.867 78.6457 315.449 79 314.96 79H303.043C302.554 79 302.136 78.6457 302.056 78.1627L300.849 70.8373C300.769 70.3543 300.351 70 299.862 70H298" stroke="#EBEBEB" stroke-linecap="round" stroke-linejoin="round"/>
<path fill-rule="evenodd" clip-rule="evenodd" d="M304 84C304.552 84 305 83.5523 305 83C305 82.4477 304.552 82 304 82C303.448 82 303 82.4477 303 83C303 83.5523 303.448 84 304 84Z" stroke="#EBEBEB"/>
<path fill-rule="evenodd" clip-rule="evenodd" d="M314 84C314.552 84 315 83.5523 315 83C315 82.4477 314.552 82 314 82C313.448 82 313 82.4477 313 83C313 83.5523 313.448 84 314 84Z" stroke="#EBEBEB"/>
<path d="M312 72H306" stroke="#EBEBEB" stroke-linecap="round"/>
<path d="M309 69V75" stroke="#EBEBEB" stroke-linecap="round"/>
<path d="M59 154V157" stroke="#EBEBEB" stroke-linecap="round"/>
<path d="M59 175V178" stroke="#EBEBEB" stroke-linecap="round"/>
<path d="M64.25 160C64.25 160 63.5 157 59 157C54.5 157 53.75 159.935 53.75 161.5C53.75 167.71 64.25 164.447 64.25 170.5C64.25 172.065 63.5 175 59 175C54.5 175 53.75 172 53.75 172" stroke="#EBEBEB" stroke-linecap="round"/>
<rect x="288" y="169" width="20" height="14" rx="2" stroke="#EBEBEB" stroke-linecap="round" stroke-linejoin="round"/>
<path d="M288 178H308" stroke="#EBEBEB" stroke-linecap="round"/>
<path fill-rule="evenodd" clip-rule="evenodd" d="M57 69L51 63L57 69Z" stroke="#EBEBEB" stroke-linecap="round" stroke-linejoin="round"/>
<path d="M41 69L47 63" stroke="#EBEBEB" stroke-linecap="round" stroke-linejoin="round"/>
<path fill-rule="evenodd" clip-rule="evenodd" d="M40.8128 69H57.1877L55.6282 78H42.3723L40.8128 69Z" stroke="#EBEBEB" stroke-linecap="round" stroke-linejoin="round"/>
<path d="M173.888 104.784C173.888 102.224 174.304 99.984 175.136 98.064C176.032 96.08 177.088 94.416 178.304 93.072C179.584 91.728 181.248 90.128 183.296 88.272C185.856 86.032 187.744 84.112 188.96 82.512C190.176 80.848 190.784 78.864 190.784 76.56C190.784 73.424 189.568 70.928 187.136 69.072C184.704 67.152 181.344 66.192 177.056 66.192C169.568 66.192 163.84 68.72 159.872 73.776L152.864 68.784C155.552 65.328 158.976 62.672 163.136 60.816C167.36 58.96 172.224 58.032 177.728 58.032C184.704 58.032 190.24 59.568 194.336 62.64C198.432 65.648 200.48 69.808 200.48 75.12C200.48 77.744 200.032 80.08 199.136 82.128C198.304 84.112 197.28 85.776 196.064 87.12C194.848 88.464 193.216 90.064 191.168 91.92C188.544 94.288 186.592 96.368 185.312 98.16C184.096 99.952 183.488 102.16 183.488 104.784H173.888ZM178.784 126.576C176.992 126.576 175.488 126 174.272 124.848C173.12 123.632 172.544 122.16 172.544 120.432C172.544 118.704 173.12 117.264 174.272 116.112C175.488 114.896 176.992 114.288 178.784 114.288C180.576 114.288 182.048 114.896 183.2 116.112C184.352 117.264 184.928 118.704 184.928 120.432C184.928 122.16 184.32 123.632 183.104 124.848C181.952 126 180.512 126.576 178.784 126.576Z" fill="#656C7D"/>
</g>
<defs>
<filter id="filter0_f" x="95" y="8.77289" width="165.295" height="167.773" filterUnits="userSpaceOnUse" color-interpolation-filters="sRGB">
<feFlood flood-opacity="0" result="BackgroundImageFix"/>
<feBlend mode="normal" in="SourceGraphic" in2="BackgroundImageFix" result="shape"/>
<feGaussianBlur stdDeviation="0.5" result="effect1_foregroundBlur"/>
</filter>
<clipPath id="clip0">
<rect width="360" height="199" fill="white"/>
</clipPath>
</defs>
</svg>
