<svg width="16" height="16" viewBox="0 0 16 16" fill="none" xmlns="http://www.w3.org/2000/svg">
<path d="M5.28571 9H3.85714C3.62143 9 3.42857 8.83125 3.42857 8.625V7.375C3.42857 7.16875 3.62143 7 3.85714 7H5.28571C5.52143 7 5.71429 7.16875 5.71429 7.375V8.625C5.71429 8.83125 5.52143 9 5.28571 9ZM9.14286 8.625V7.375C9.14286 7.16875 8.95 7 8.71429 7H7.28571C7.05 7 6.85714 7.16875 6.85714 7.375V8.625C6.85714 8.83125 7.05 9 7.28571 9H8.71429C8.95 9 9.14286 8.83125 9.14286 8.625ZM12.5714 8.625V7.375C12.5714 7.16875 12.3786 7 12.1429 7H10.7143C10.4786 7 10.2857 7.16875 10.2857 7.375V8.625C10.2857 8.83125 10.4786 9 10.7143 9H12.1429C12.3786 9 12.5714 8.83125 12.5714 8.625ZM9.14286 11.625V10.375C9.14286 10.1687 8.95 10 8.71429 10H7.28571C7.05 10 6.85714 10.1687 6.85714 10.375V11.625C6.85714 11.8313 7.05 12 7.28571 12H8.71429C8.95 12 9.14286 11.8313 9.14286 11.625ZM5.71429 11.625V10.375C5.71429 10.1687 5.52143 10 5.28571 10H3.85714C3.62143 10 3.42857 10.1687 3.42857 10.375V11.625C3.42857 11.8313 3.62143 12 3.85714 12H5.28571C5.52143 12 5.71429 11.8313 5.71429 11.625ZM12.5714 11.625V10.375C12.5714 10.1687 12.3786 10 12.1429 10H10.7143C10.4786 10 10.2857 10.1687 10.2857 10.375V11.625C10.2857 11.8313 10.4786 12 10.7143 12H12.1429C12.3786 12 12.5714 11.8313 12.5714 11.625ZM16 3.5V14.5C16 15.3281 15.2321 16 14.2857 16H1.71429C0.767857 16 0 15.3281 0 14.5V3.5C0 2.67188 0.767857 2 1.71429 2H3.42857V0.375C3.42857 0.16875 3.62143 0 3.85714 0H5.28571C5.52143 0 5.71429 0.16875 5.71429 0.375V2H10.2857V0.375C10.2857 0.16875 10.4786 0 10.7143 0H12.1429C12.3786 0 12.5714 0.16875 12.5714 0.375V2H14.2857C15.2321 2 16 2.67188 16 3.5ZM14.2857 14.3125V5H1.71429V14.3125C1.71429 14.4156 1.81071 14.5 1.92857 14.5H14.0714C14.1893 14.5 14.2857 14.4156 14.2857 14.3125Z" fill="#E9E9E9"/>
</svg>
