<svg width="14" height="16" viewBox="0 0 14 16" fill="none" xmlns="http://www.w3.org/2000/svg">
<path d="M13.625 5.04297H0.375C0.16875 5.04297 0 4.87488 0 4.66943V3.54883C0 2.72394 0.671875 2.05469 1.5 2.05469H3V0.436035C3 0.230591 3.16875 0.0625 3.375 0.0625H4.625C4.83125 0.0625 5 0.230591 5 0.436035V2.05469H9V0.436035C9 0.230591 9.16875 0.0625 9.375 0.0625H10.625C10.8313 0.0625 11 0.230591 11 0.436035V2.05469H12.5C13.3281 2.05469 14 2.72394 14 3.54883V4.66943C14 4.87488 13.8313 5.04297 13.625 5.04297ZM0.375 6.03906H13.625C13.8313 6.03906 14 6.20715 14 6.4126V14.5059C14 15.3308 13.3281 16 12.5 16H1.5C0.671875 16 0 15.3308 0 14.5059V6.4126C0 6.20715 0.16875 6.03906 0.375 6.03906ZM4 12.3892C4 12.1837 3.83125 12.0156 3.625 12.0156H2.375C2.16875 12.0156 2 12.1837 2 12.3892V13.6343C2 13.8397 2.16875 14.0078 2.375 14.0078H3.625C3.83125 14.0078 4 13.8397 4 13.6343V12.3892ZM4 8.40479C4 8.19934 3.83125 8.03125 3.625 8.03125H2.375C2.16875 8.03125 2 8.19934 2 8.40479V9.6499C2 9.85535 2.16875 10.0234 2.375 10.0234H3.625C3.83125 10.0234 4 9.85535 4 9.6499V8.40479ZM8 12.3892C8 12.1837 7.83125 12.0156 7.625 12.0156H6.375C6.16875 12.0156 6 12.1837 6 12.3892V13.6343C6 13.8397 6.16875 14.0078 6.375 14.0078H7.625C7.83125 14.0078 8 13.8397 8 13.6343V12.3892ZM8 8.40479C8 8.19934 7.83125 8.03125 7.625 8.03125H6.375C6.16875 8.03125 6 8.19934 6 8.40479V9.6499C6 9.85535 6.16875 10.0234 6.375 10.0234H7.625C7.83125 10.0234 8 9.85535 8 9.6499V8.40479ZM12 12.3892C12 12.1837 11.8313 12.0156 11.625 12.0156H10.375C10.1687 12.0156 10 12.1837 10 12.3892V13.6343C10 13.8397 10.1687 14.0078 10.375 14.0078H11.625C11.8313 14.0078 12 13.8397 12 13.6343V12.3892ZM12 8.40479C12 8.19934 11.8313 8.03125 11.625 8.03125H10.375C10.1687 8.03125 10 8.19934 10 8.40479V9.6499C10 9.85535 10.1687 10.0234 10.375 10.0234H11.625C11.8313 10.0234 12 9.85535 12 9.6499V8.40479Z" fill="#E9E9E9"/>
</svg>
