<svg width="18" height="12" viewBox="0 0 18 12" fill="none" xmlns="http://www.w3.org/2000/svg">
<path d="M17.7923 5.20536C16.0303 2.08529 12.7441 0 9 0C5.25438 0 1.96889 2.08676 0.207702 5.20536C0.0717174 5.44614 0 5.72053 0 6.00002C0 6.2795 0.0717174 6.55389 0.207702 6.79467C1.96973 9.91471 5.25594 12 9 12C12.7456 12 16.0311 9.91324 17.7923 6.79464C17.9283 6.55386 18 6.27948 18 6C18 5.72052 17.9283 5.44614 17.7923 5.20536ZM9 10.4348C6.65119 10.4348 4.75001 8.45129 4.75001 6C4.75001 3.54907 6.65082 1.56522 9 1.56522C11.3488 1.56522 13.25 3.54867 13.25 6C13.25 8.45093 11.3492 10.4348 9 10.4348ZM12.25 6C12.25 7.87298 10.7949 9.3913 9 9.3913C7.20507 9.3913 5.75001 7.87298 5.75001 6C5.75001 5.42256 5.88847 4.87895 6.13238 4.40305L6.13235 4.4041C6.13235 5.17533 6.7315 5.8005 7.4706 5.8005C8.20969 5.8005 8.80884 5.17529 8.80884 4.4041C8.80884 3.63287 8.20969 3.00766 7.4706 3.00766L7.4696 3.0077C7.92566 2.75318 8.44663 2.6087 9 2.6087C10.7949 2.6087 12.25 4.12702 12.25 6Z" fill="#E9E9E9"/>
</svg>
