<svg width="18" height="13" viewBox="0 0 18 13" fill="none" xmlns="http://www.w3.org/2000/svg">
<path d="M17.7923 5.75209C16.0303 2.42402 12.7441 0.199707 9 0.199707C5.25438 0.199707 1.96889 2.42559 0.207702 5.75209C0.0717174 6.00893 0 6.30161 0 6.59972C0 6.89784 0.0717174 7.19052 0.207702 7.44736C1.96973 10.7754 5.25594 12.9997 9 12.9997C12.7456 12.9997 16.0311 10.7738 17.7923 7.44732C17.9283 7.19049 18 6.89782 18 6.59971C18 6.3016 17.9283 6.00892 17.7923 5.75209ZM9 11.3301C6.65119 11.3301 4.75001 9.21442 4.75001 6.59971C4.75001 3.98538 6.65082 1.86927 9 1.86927C11.3488 1.86927 13.25 3.98496 13.25 6.59971C13.25 9.21404 11.3492 11.3301 9 11.3301ZM12.25 6.59971C12.25 8.59755 10.7949 10.2171 9 10.2171C7.20507 10.2171 5.75001 8.59755 5.75001 6.59971C5.75001 5.98378 5.88847 5.40392 6.13238 4.8963L6.13235 4.89741C6.13235 5.72006 6.7315 6.38691 7.4706 6.38691C8.20969 6.38691 8.80884 5.72002 8.80884 4.89741C8.80884 4.07477 8.20969 3.40788 7.4706 3.40788L7.4696 3.40792C7.92566 3.13644 8.44663 2.98232 9 2.98232C10.7949 2.98232 12.25 4.60186 12.25 6.59971Z" fill="#F4F4F4"/>
</svg>
