<svg width="14" height="12" viewBox="0 0 11 9" fill="none" xmlns="http://www.w3.org/2000/svg">
<path d="M9.31927 5.63644V8.51748C9.31927 8.78488 9.11491 9 8.86089 9H6.64538C6.51933 9 6.41619 8.89143 6.41619 8.75874V6.50698C6.41619 6.37429 6.31306 6.26572 6.187 6.26572H4.81186C4.68581 6.26572 4.58267 6.37429 4.58267 6.50698V8.75874C4.58267 8.89143 4.47954 9 4.35348 9H2.13798C1.88396 9 1.6796 8.78488 1.6796 8.51748V5.63644C1.6796 5.56406 1.71015 5.4957 1.76363 5.44946L5.35428 2.33721C5.43831 2.26483 5.56055 2.26483 5.6465 2.33721L9.23714 5.44946C9.28871 5.4957 9.31927 5.56406 9.31927 5.63644ZM10.916 4.41204L9.31927 3.02681V0.242265C9.31927 0.109572 9.21613 0.00100528 9.09008 0.00100528H8.02052C7.89447 0.00100528 7.79133 0.109572 7.79133 0.242265V1.70189L6.08196 0.22015C5.7439 -0.0733833 5.25496 -0.0733833 4.91691 0.22015L0.082904 4.41204C-0.0145018 4.49648 -0.0278713 4.64928 0.0523453 4.75182L0.539374 5.37507C0.619591 5.47761 0.764745 5.49168 0.86215 5.40724L5.35428 1.5129C5.43831 1.44052 5.56055 1.44052 5.6465 1.5129L10.1386 5.40724C10.236 5.49168 10.3812 5.47761 10.4614 5.37507L10.9484 4.75182C11.0286 4.64727 11.0134 4.49648 10.916 4.41204Z" fill="#0A78BF"/>
</svg>
