<svg width="9" height="16" viewBox="0 0 9 16" fill="none" xmlns="http://www.w3.org/2000/svg">
<path d="M2.28124 14.9201C-0.762676 11.0979 -0.758153 4.90641 2.28124 1.08988C2.41479 0.92219 2.62172 0.894703 2.7796 1.0186L4.29874 2.21091C4.37885 2.27377 4.43881 2.36998 4.46815 2.48272C4.49749 2.59547 4.49435 2.71758 4.45927 2.8277L3.69971 5.21216C3.66726 5.31402 3.60932 5.39987 3.53462 5.45678C3.45992 5.51368 3.37252 5.53854 3.28559 5.52763L1.97754 5.36341C1.48416 7.07804 1.49445 8.96774 1.97754 10.6466L3.28561 10.4823C3.37254 10.4714 3.45995 10.4963 3.53464 10.5532C3.60934 10.6101 3.66728 10.6959 3.69973 10.7978L4.45929 13.1823C4.49437 13.2924 4.49751 13.4145 4.46817 13.5272C4.43883 13.64 4.37887 13.7362 4.29877 13.7991L2.77962 14.9914C2.70237 15.052 2.61103 15.0779 2.52052 15.065C2.43001 15.052 2.34566 15.001 2.28124 14.9201ZM5.79202 2.80978C6.06933 3.39977 6.06933 4.13437 5.79202 4.72436C5.69944 4.92134 5.4848 4.95859 5.35331 4.80032L5.21327 4.6318C5.12161 4.5215 5.10094 4.34863 5.16028 4.20771C5.2174 4.07191 5.24725 3.92065 5.24725 3.76707C5.24725 3.61349 5.2174 3.46223 5.16028 3.32643C5.10092 3.18552 5.12161 3.01264 5.21327 2.90234L5.35331 2.73382C5.4848 2.57555 5.69944 2.61281 5.79202 2.80978ZM7.94327 0.126134C9.35281 2.23345 9.35168 5.30237 7.94327 7.40798C7.83841 7.56475 7.6496 7.57708 7.5319 7.43543L7.39601 7.27189C7.28913 7.14325 7.27936 6.93259 7.37421 6.78986C8.53875 5.03764 8.53779 2.49503 7.37421 0.744256C7.27936 0.601519 7.28911 0.390859 7.39601 0.262219L7.5319 0.098676C7.6496 -0.0429713 7.83841 -0.0306401 7.94327 0.126134ZM6.86581 1.44875C7.71073 2.81202 7.71209 4.71989 6.86581 6.08536C6.76292 6.25137 6.56822 6.26932 6.44731 6.12373L6.31095 5.95954C6.20782 5.83538 6.19381 5.63302 6.28083 5.49069C6.90277 4.47347 6.90272 3.06058 6.28083 2.04342C6.19381 1.9011 6.20782 1.69876 6.31095 1.57457L6.44731 1.41038C6.56822 1.26479 6.76292 1.28274 6.86581 1.44875Z" fill="#71BE00"/>
</svg>
