<svg width="20" height="20" viewBox="0 0 20 20" fill="none" xmlns="http://www.w3.org/2000/svg">
<path d="M7.50002 18.3334C7.96026 18.3334 8.33335 17.9603 8.33335 17.5001C8.33335 17.0398 7.96026 16.6667 7.50002 16.6667C7.03978 16.6667 6.66669 17.0398 6.66669 17.5001C6.66669 17.9603 7.03978 18.3334 7.50002 18.3334Z" stroke="#272323" stroke-width="1.66667" stroke-linecap="round" stroke-linejoin="round"/>
<path d="M16.6667 18.3334C17.1269 18.3334 17.5 17.9603 17.5 17.5001C17.5 17.0398 17.1269 16.6667 16.6667 16.6667C16.2064 16.6667 15.8333 17.0398 15.8333 17.5001C15.8333 17.9603 16.2064 18.3334 16.6667 18.3334Z" stroke="#272323" stroke-width="1.66667" stroke-linecap="round" stroke-linejoin="round"/>
<path d="M0.833344 0.833374H4.16668L6.40001 11.9917C6.47621 12.3754 6.68493 12.72 6.98963 12.9653C7.29433 13.2106 7.67559 13.3409 8.06668 13.3334H16.1667C16.5578 13.3409 16.939 13.2106 17.2437 12.9653C17.5484 12.72 17.7571 12.3754 17.8333 11.9917L19.1667 5.00004H5.00001" stroke="#272323" stroke-width="1.66667" stroke-linecap="round" stroke-linejoin="round"/>
</svg>
