<svg width="14" height="12" viewBox="0 0 14 12" fill="none" xmlns="http://www.w3.org/2000/svg">
<path d="M3.85399 0.145917C3.80755 0.0993539 3.75237 0.0624112 3.69162 0.0372047C3.63088 0.0119983 3.56576 -0.000976562 3.49999 -0.000976562C3.43422 -0.000976562 3.3691 0.0119983 3.30836 0.0372047C3.24761 0.0624112 3.19244 0.0993539 3.14599 0.145917L0.145991 3.14592C0.0521042 3.2398 -0.000640869 3.36714 -0.000640869 3.49992C-0.000640869 3.63269 0.0521042 3.76003 0.145991 3.85392C0.239877 3.9478 0.367215 4.00055 0.499991 4.00055C0.632767 4.00055 0.760104 3.9478 0.853991 3.85392L2.99999 1.70692V11.4999C2.99999 11.6325 3.05267 11.7597 3.14644 11.8535C3.24021 11.9472 3.36738 11.9999 3.49999 11.9999C3.6326 11.9999 3.75978 11.9472 3.85354 11.8535C3.94731 11.7597 3.99999 11.6325 3.99999 11.4999V1.70692L6.14599 3.85392C6.23988 3.9478 6.36722 4.00055 6.49999 4.00055C6.63277 4.00055 6.76011 3.9478 6.85399 3.85392C6.94788 3.76003 7.00062 3.63269 7.00062 3.49992C7.00062 3.36714 6.94788 3.2398 6.85399 3.14592L3.85399 0.145917ZM10.152 11.8599C10.2453 11.9503 10.3701 12.0009 10.5 12.0009C10.6299 12.0009 10.7547 11.9503 10.848 11.8599L13.848 8.95992C13.9435 8.86762 13.9984 8.74118 14.0006 8.6084C14.0029 8.47563 13.9523 8.3474 13.86 8.25192C13.7677 8.15644 13.6413 8.10154 13.5085 8.09929C13.3757 8.09704 13.2475 8.14762 13.152 8.23992L11 10.3209V0.500917C11 0.368309 10.9473 0.241132 10.8535 0.147364C10.7598 0.0535957 10.6326 0.000917197 10.5 0.000917197C10.3674 0.000917197 10.2402 0.0535957 10.1464 0.147364C10.0527 0.241132 9.99999 0.368309 9.99999 0.500917V10.3209L7.84799 8.24092C7.80097 8.19462 7.74525 8.1581 7.68404 8.13344C7.62283 8.10878 7.55735 8.09649 7.49137 8.09726C7.42539 8.09803 7.36021 8.11185 7.2996 8.13793C7.23898 8.16401 7.18413 8.20183 7.1382 8.24921C7.09227 8.29659 7.05618 8.35259 7.03199 8.41399C7.00781 8.47539 6.99602 8.54096 6.99731 8.60694C6.99859 8.67291 7.01292 8.73798 7.03946 8.79839C7.06601 8.8588 7.10426 8.91336 7.15199 8.95892L10.152 11.8589V11.8599Z" fill="#CBCBCB"/>
</svg>
