<svg width="14" height="14" viewBox="0 0 14 14" fill="none" xmlns="http://www.w3.org/2000/svg">
<path d="M8.72352 7.00001L13.5477 2.17579C13.7767 1.94724 13.9055 1.63709 13.9058 1.31359C13.9061 0.990078 13.7778 0.679707 13.5493 0.450751C13.3207 0.221794 13.0106 0.0930074 12.6871 0.0927217C12.3636 0.092436 12.0532 0.220675 11.8242 0.449227L7.00001 5.27345L2.17579 0.449227C1.94683 0.220271 1.6363 0.0916443 1.31251 0.0916443C0.988715 0.0916443 0.678184 0.220271 0.449227 0.449227C0.220271 0.678184 0.0916443 0.988715 0.0916443 1.31251C0.0916443 1.6363 0.220271 1.94683 0.449227 2.17579L5.27345 7.00001L0.449227 11.8242C0.220271 12.0532 0.0916443 12.3637 0.0916443 12.6875C0.0916443 13.0113 0.220271 13.3218 0.449227 13.5508C0.678184 13.7797 0.988715 13.9084 1.31251 13.9084C1.6363 13.9084 1.94683 13.7797 2.17579 13.5508L7.00001 8.72657L11.8242 13.5508C12.0532 13.7797 12.3637 13.9084 12.6875 13.9084C13.0113 13.9084 13.3218 13.7797 13.5508 13.5508C13.7797 13.3218 13.9084 13.0113 13.9084 12.6875C13.9084 12.3637 13.7797 12.0532 13.5508 11.8242L8.72352 7.00001Z" fill="white"/>
</svg>
