<svg width="13" height="13" viewBox="0 0 13 13" fill="none" xmlns="http://www.w3.org/2000/svg">
<path d="M11.8683 6.89566V12.4348C11.8683 12.7457 11.6137 13 11.3025 13C10.9913 13 10.7367 12.7457 10.7367 12.4348V6.89566C10.7367 6.58479 10.9913 6.33044 11.3025 6.33044C11.6137 6.33044 11.8683 6.58479 11.8683 6.89566ZM11.3025 1.61086C11.6137 1.61086 11.8683 1.35651 11.8683 1.04564V0.565217C11.8683 0.254348 11.6137 0 11.3025 0C10.9913 0 10.7367 0.254348 10.7367 0.565217V1.04564C10.7367 1.35651 10.9913 1.61086 11.3025 1.61086ZM3.36671 6.5C3.36671 7.43261 2.60283 8.19565 1.68335 8.19565C0.763874 8.19565 -3.45357e-06 7.43261 -3.45357e-06 6.5C-3.45357e-06 5.56739 0.763874 4.80435 1.68335 4.80435C2.60283 4.80435 3.36671 5.56739 3.36671 6.5ZM2.23504 6.5C2.23504 6.18913 1.98041 5.93478 1.68335 5.93478C1.38629 5.93478 1.13166 6.18913 1.13166 6.5C1.13166 6.81087 1.38629 7.06522 1.68335 7.06522C1.98041 7.06522 2.23504 6.81087 2.23504 6.5ZM8.17628 9.28369C8.17628 10.2163 7.41241 10.9793 6.49293 10.9793C5.57345 10.9793 4.80957 10.2163 4.80957 9.28369C4.80957 8.35108 5.57345 7.58804 6.49293 7.58804C7.41241 7.58804 8.17628 8.33695 8.17628 9.28369ZM7.04462 9.28369C7.04462 8.97282 6.78999 8.71847 6.49293 8.71847C6.19587 8.71847 5.94124 8.97282 5.94124 9.28369C5.94124 9.59456 6.19587 9.84891 6.49293 9.84891C6.78999 9.84891 7.04462 9.59456 7.04462 9.28369ZM13 4.04132C13 4.97393 12.2361 5.73697 11.3166 5.73697C10.3972 5.73697 9.63329 4.97393 9.63329 4.04132C9.63329 3.10871 10.3972 2.34567 11.3166 2.34567C12.2361 2.34567 13 3.10871 13 4.04132ZM11.8683 4.04132C11.8683 3.73045 11.6137 3.4761 11.3166 3.4761C11.0196 3.4761 10.765 3.73045 10.765 4.04132C10.765 4.35219 11.0196 4.60654 11.3166 4.60654C11.6137 4.60654 11.8683 4.36632 11.8683 4.04132ZM6.49293 11.5446C6.18172 11.5446 5.92709 11.7989 5.92709 12.1098V12.4348C5.92709 12.7457 6.18172 13 6.49293 13C6.80414 13 7.05876 12.7457 7.05876 12.4348V12.1098C7.05876 11.7989 6.80414 11.5446 6.49293 11.5446ZM6.49293 6.88151C6.80414 6.88151 7.05876 6.62717 7.05876 6.3163V0.565217C7.05876 0.254348 6.80414 0 6.49293 0C6.18172 0 5.92709 0.254348 5.92709 0.565217V6.3163C5.92709 6.62717 6.18172 6.88151 6.49293 6.88151ZM1.68335 8.94457C1.37214 8.94457 1.11752 9.19892 1.11752 9.50979V12.4348C1.11752 12.7457 1.37214 13 1.68335 13C1.99456 13 2.24918 12.7457 2.24918 12.4348V9.50979C2.24918 9.19892 1.99456 8.94457 1.68335 8.94457ZM1.68335 4.08368C1.99456 4.08368 2.24918 3.82933 2.24918 3.51846V0.565217C2.24918 0.254348 1.99456 0 1.68335 0C1.37214 0 1.11752 0.254348 1.11752 0.565217V3.51846C1.11752 3.82933 1.37214 4.08368 1.68335 4.08368Z" fill="#777777"/>
</svg>
