<svg width="12" height="15" viewBox="0 0 12 15" fill="none" xmlns="http://www.w3.org/2000/svg">
<path d="M11.1234 4.6875H0.306149C0.137767 4.6875 0 4.5293 0 4.33594V3.28125C0 2.50488 0.548517 1.875 1.2246 1.875H2.44919V0.351562C2.44919 0.158203 2.58696 0 2.75534 0H3.77584C3.94422 0 4.08199 0.158203 4.08199 0.351562V1.875H7.34758V0.351562C7.34758 0.158203 7.48535 0 7.65373 0H8.67423C8.84261 0 8.98038 0.158203 8.98038 0.351562V1.875H10.205C10.8811 1.875 11.4296 2.50488 11.4296 3.28125V4.33594C11.4296 4.5293 11.2918 4.6875 11.1234 4.6875ZM0.306149 5.625H11.1234C11.2918 5.625 11.4296 5.7832 11.4296 5.97656V13.5938C11.4296 14.3701 10.8811 15 10.205 15H1.2246C0.548517 15 0 14.3701 0 13.5938V5.97656C0 5.7832 0.137767 5.625 0.306149 5.625ZM3.26559 11.6016C3.26559 11.4082 3.12782 11.25 2.95944 11.25H1.93895C1.77056 11.25 1.6328 11.4082 1.6328 11.6016V12.7734C1.6328 12.9668 1.77056 13.125 1.93895 13.125H2.95944C3.12782 13.125 3.26559 12.9668 3.26559 12.7734V11.6016ZM3.26559 7.85156C3.26559 7.6582 3.12782 7.5 2.95944 7.5H1.93895C1.77056 7.5 1.6328 7.6582 1.6328 7.85156V9.02344C1.6328 9.2168 1.77056 9.375 1.93895 9.375H2.95944C3.12782 9.375 3.26559 9.2168 3.26559 9.02344V7.85156ZM6.53118 11.6016C6.53118 11.4082 6.39342 11.25 6.22503 11.25H5.20454C5.03615 11.25 4.89839 11.4082 4.89839 11.6016V12.7734C4.89839 12.9668 5.03615 13.125 5.20454 13.125H6.22503C6.39342 13.125 6.53118 12.9668 6.53118 12.7734V11.6016ZM6.53118 7.85156C6.53118 7.6582 6.39342 7.5 6.22503 7.5H5.20454C5.03615 7.5 4.89839 7.6582 4.89839 7.85156V9.02344C4.89839 9.2168 5.03615 9.375 5.20454 9.375H6.22503C6.39342 9.375 6.53118 9.2168 6.53118 9.02344V7.85156ZM9.79678 11.6016C9.79678 11.4082 9.65901 11.25 9.49063 11.25H8.47013C8.30175 11.25 8.16398 11.4082 8.16398 11.6016V12.7734C8.16398 12.9668 8.30175 13.125 8.47013 13.125H9.49063C9.65901 13.125 9.79678 12.9668 9.79678 12.7734V11.6016ZM9.79678 7.85156C9.79678 7.6582 9.65901 7.5 9.49063 7.5H8.47013C8.30175 7.5 8.16398 7.6582 8.16398 7.85156V9.02344C8.16398 9.2168 8.30175 9.375 8.47013 9.375H9.49063C9.65901 9.375 9.79678 9.2168 9.79678 9.02344V7.85156Z" fill="#E9E9E9"/>
</svg>
