<svg width="360" height="354" viewBox="0 0 360 354" fill="none" xmlns="http://www.w3.org/2000/svg">
<g clip-path="url(#clip0)">
<rect width="360" height="354" fill="white"/>
<g opacity="0.1" filter="url(#filter0_f)">
<path d="M256.191 131.037C249.725 114.419 238.018 100.362 222.845 90.9962C207.672 81.63 189.859 77.465 172.106 79.1322C154.353 80.7994 137.627 88.208 124.463 100.235C111.299 112.263 102.414 128.253 99.1546 145.784C95.8952 163.315 98.439 181.43 106.401 197.385C114.362 213.341 127.307 226.266 143.275 234.202C159.243 242.139 177.362 244.655 194.888 241.368C212.413 238.081 228.39 229.171 240.397 215.988L237.349 213.212C225.946 225.732 210.772 234.194 194.128 237.316C177.483 240.437 160.275 238.048 145.11 230.51C129.945 222.973 117.651 210.698 110.09 195.545C102.529 180.392 100.113 163.187 103.208 146.538C106.304 129.888 114.742 114.702 127.244 103.279C139.746 91.8566 155.631 84.8205 172.492 83.2371C189.352 81.6537 206.269 85.6094 220.68 94.5046C235.09 103.4 246.208 116.75 252.349 132.532L256.191 131.037Z" fill="#C4C4C4"/>
<path d="M159.388 98.0001C148.233 101.623 138.245 108.152 130.452 116.917C122.658 125.681 117.341 136.364 115.047 147.866C112.754 159.368 113.567 171.273 117.402 182.357C121.237 193.44 127.957 203.301 136.869 210.925C145.781 218.55 156.564 223.661 168.108 225.734C179.652 227.807 191.539 226.766 202.547 222.719C213.555 218.672 223.286 211.765 230.738 202.709C238.19 193.652 243.094 182.773 244.946 171.192L241.669 170.668C239.91 181.667 235.253 191.999 228.175 200.6C221.098 209.201 211.857 215.761 201.402 219.605C190.948 223.448 179.658 224.436 168.694 222.468C157.731 220.499 147.491 215.644 139.026 208.404C130.562 201.163 124.181 191.798 120.538 181.271C116.895 170.745 116.124 159.438 118.302 148.515C120.48 137.591 125.53 127.446 132.932 119.122C140.333 110.798 149.819 104.597 160.413 101.156L159.388 98.0001Z" fill="#C4C4C4"/>
<path d="M150.647 192.216C156.412 197.693 163.588 201.456 171.371 203.086C179.154 204.716 187.238 204.148 194.716 201.445C202.195 198.741 208.773 194.01 213.715 187.781C218.658 181.551 221.769 174.069 222.7 166.172C223.632 158.275 222.347 150.274 218.99 143.065C215.632 135.857 210.335 129.725 203.691 125.356C197.046 120.987 189.317 118.554 181.369 118.328C173.42 118.102 165.565 120.093 158.684 124.078L160.844 127.808C167.033 124.224 174.097 122.434 181.246 122.637C188.395 122.84 195.347 125.028 201.322 128.958C207.298 132.887 212.063 138.402 215.082 144.885C218.102 151.369 219.257 158.564 218.419 165.667C217.582 172.77 214.784 179.499 210.339 185.102C205.893 190.705 199.977 194.96 193.251 197.391C186.525 199.822 179.255 200.333 172.255 198.867C165.255 197.401 158.801 194.016 153.615 189.091L150.647 192.216Z" fill="#C4C4C4"/>
</g>
<path d="M317.292 139L315.946 147.163C315.867 147.646 315.449 148 314.96 148H303.043C302.554 148 302.136 147.646 302.056 147.163L300.849 139.837C300.769 139.354 300.351 139 299.862 139H298" stroke="#EBEBEB" stroke-linecap="round" stroke-linejoin="round"/>
<path fill-rule="evenodd" clip-rule="evenodd" d="M304 153C304.552 153 305 152.552 305 152C305 151.448 304.552 151 304 151C303.448 151 303 151.448 303 152C303 152.552 303.448 153 304 153Z" stroke="#EBEBEB"/>
<path fill-rule="evenodd" clip-rule="evenodd" d="M314 153C314.552 153 315 152.552 315 152C315 151.448 314.552 151 314 151C313.448 151 313 151.448 313 152C313 152.552 313.448 153 314 153Z" stroke="#EBEBEB"/>
<path d="M312 141H306" stroke="#EBEBEB" stroke-linecap="round"/>
<path d="M309 138V144" stroke="#EBEBEB" stroke-linecap="round"/>
<path d="M59 223V226" stroke="#EBEBEB" stroke-linecap="round"/>
<path d="M59 244V247" stroke="#EBEBEB" stroke-linecap="round"/>
<path d="M64.25 229C64.25 229 63.5 226 59 226C54.5 226 53.75 228.935 53.75 230.5C53.75 236.71 64.25 233.447 64.25 239.5C64.25 241.065 63.5 244 59 244C54.5 244 53.75 241 53.75 241" stroke="#EBEBEB" stroke-linecap="round"/>
<rect x="288" y="238" width="20" height="14" rx="2" stroke="#EBEBEB" stroke-linecap="round" stroke-linejoin="round"/>
<path d="M288 247H308" stroke="#EBEBEB" stroke-linecap="round"/>
<path fill-rule="evenodd" clip-rule="evenodd" d="M172.71 307H188.292L186.808 316H174.194L172.71 307Z" stroke="#EBEBEB" stroke-linecap="round" stroke-linejoin="round"/>
<path fill-rule="evenodd" clip-rule="evenodd" d="M176 321C176.552 321 177 320.552 177 320C177 319.448 176.552 319 176 319C175.448 319 175 319.448 175 320C175 320.552 175.448 321 176 321Z" stroke="#EBEBEB"/>
<path fill-rule="evenodd" clip-rule="evenodd" d="M185 321C185.552 321 186 320.552 186 320C186 319.448 185.552 319 185 319C184.448 319 184 319.448 184 320C184 320.552 184.448 321 185 321Z" stroke="#EBEBEB"/>
<path d="M174 307H170" stroke="#EBEBEB" stroke-linecap="round"/>
<path fill-rule="evenodd" clip-rule="evenodd" d="M57 138L51 132L57 138Z" stroke="#EBEBEB" stroke-linecap="round" stroke-linejoin="round"/>
<path d="M41 138L47 132" stroke="#EBEBEB" stroke-linecap="round" stroke-linejoin="round"/>
<path fill-rule="evenodd" clip-rule="evenodd" d="M40.8127 138H57.1876L55.628 147H42.3722L40.8127 138Z" stroke="#EBEBEB" stroke-linecap="round" stroke-linejoin="round"/>
<rect x="170" y="44" width="14" height="12" stroke="#EBEBEB" stroke-linecap="round" stroke-linejoin="round"/>
<path d="M173 44C173 41.7909 174.791 40 177 40C179.209 40 181 41.7909 181 44" stroke="#EBEBEB" stroke-linecap="round" stroke-linejoin="round"/>
<path opacity="0.4" d="M253.084 29.998C250.54 25.7277 252.324 19.9746 257.069 17.1481C261.814 14.3216 267.722 15.492 270.266 19.7623L274.872 27.4943L296.35 14.6997L307.865 34.0298L316.456 28.912C321.201 26.0855 327.11 27.2559 329.654 31.5262C332.197 35.7965 330.413 41.5495 325.668 44.376L317.077 49.4939L328.592 68.824L307.115 81.6185L302.509 73.8865C299.965 69.6162 294.056 68.4458 289.311 71.2723C284.567 74.0988 282.782 79.8519 285.326 84.1222L289.932 91.8542L268.454 104.649L256.939 85.3187L265.53 80.2009C270.275 77.3744 272.059 71.6213 269.516 67.351C266.972 63.0808 261.063 61.9103 256.318 64.7368L247.727 69.8547L236.212 50.5246L257.69 37.73L253.084 29.998Z" fill="#EBEBEB"/>
<path d="M224.917 174.167H156.583L149.75 133.167H231.75L224.917 174.167Z" fill="#CCD6DD"/>
<path d="M231.695 191.25H156.529C152.791 191.25 149.75 188.206 149.75 184.471C149.75 180.737 152.846 177.583 156.583 177.583L156.607 177.58L156.635 177.583H224.917C225.726 177.583 226.508 177.296 227.125 176.773C227.742 176.25 228.153 175.525 228.286 174.727L235.119 133.727C235.202 133.238 235.177 132.736 235.046 132.257C234.915 131.778 234.681 131.334 234.36 130.955C234.039 130.576 233.639 130.272 233.188 130.064C232.738 129.856 232.247 129.748 231.75 129.75H152.542L148.988 108.683C148.852 107.92 148.458 107.228 147.872 106.722C147.286 106.215 146.544 105.926 145.77 105.902C145.715 105.891 145.677 105.833 145.623 105.833H129.25C128.344 105.833 127.475 106.193 126.834 106.834C126.193 107.475 125.833 108.344 125.833 109.25C125.833 110.156 126.193 111.025 126.834 111.666C127.475 112.307 128.344 112.667 129.25 112.667H142.732L152.651 171.488C147.041 173.172 142.917 178.321 142.917 184.471C142.921 188.08 144.357 191.54 146.909 194.091C149.46 196.643 152.92 198.079 156.529 198.083H231.695C232.602 198.083 233.471 197.723 234.111 197.083C234.752 196.442 235.112 195.573 235.112 194.667C235.112 193.761 234.752 192.891 234.111 192.251C233.471 191.61 232.602 191.25 231.695 191.25ZM224.302 157.083H213.003L213.936 150.25H225.436L224.302 157.083ZM206.105 157.083H194.167V150.25H207.037L206.105 157.083ZM187.333 157.083H175.396L174.463 150.25H187.333V157.083ZM168.501 157.083H157.202L156.064 150.25H167.568L168.501 157.083ZM159.477 170.75L158.34 163.917H169.434L170.366 170.75H159.477ZM177.265 170.75L176.332 163.917H187.333V170.75H177.265ZM194.167 170.75V163.917H205.168L204.236 170.75H194.167ZM211.137 170.75L212.07 163.917H223.164L222.026 170.75H211.137ZM227.715 136.583L226.577 143.417H214.872L215.805 136.583H227.715ZM208.906 136.583L207.974 143.417H194.167V136.583H208.906ZM187.333 136.583V143.417H173.527L172.594 136.583H187.333ZM165.696 136.583L166.628 143.417H154.92L153.782 136.583H165.696Z" fill="#656C7D"/>
<path d="M166.833 215.167C172.494 215.167 177.083 210.578 177.083 204.917C177.083 199.256 172.494 194.667 166.833 194.667C161.173 194.667 156.583 199.256 156.583 204.917C156.583 210.578 161.173 215.167 166.833 215.167Z" fill="#E1E8ED"/>
<path d="M166.833 218.583C159.296 218.583 153.167 212.454 153.167 204.917C153.167 197.38 159.296 191.25 166.833 191.25C174.37 191.25 180.5 197.38 180.5 204.917C180.5 212.454 174.37 218.583 166.833 218.583ZM166.833 198.083C163.065 198.083 160 201.148 160 204.917C160 208.685 163.065 211.75 166.833 211.75C170.602 211.75 173.666 208.685 173.666 204.917C173.666 201.148 170.602 198.083 166.833 198.083Z" fill="#656C7D"/>
<path d="M214.667 215.167C220.327 215.167 224.916 210.578 224.916 204.917C224.916 199.256 220.327 194.667 214.667 194.667C209.006 194.667 204.417 199.256 204.417 204.917C204.417 210.578 209.006 215.167 214.667 215.167Z" fill="#E1E8ED"/>
<path d="M214.667 218.583C207.13 218.583 201 212.454 201 204.917C201 197.38 207.13 191.25 214.667 191.25C222.204 191.25 228.334 197.38 228.334 204.917C228.334 212.454 222.204 218.583 214.667 218.583ZM214.667 198.083C210.898 198.083 207.834 201.148 207.834 204.917C207.834 208.685 210.898 211.75 214.667 211.75C218.435 211.75 221.5 208.685 221.5 204.917C221.5 201.148 218.435 198.083 214.667 198.083Z" fill="#656C7D"/>
</g>
<defs>
<filter id="filter0_f" x="96.7729" y="77.7729" width="160.418" height="166" filterUnits="userSpaceOnUse" color-interpolation-filters="sRGB">
<feFlood flood-opacity="0" result="BackgroundImageFix"/>
<feBlend mode="normal" in="SourceGraphic" in2="BackgroundImageFix" result="shape"/>
<feGaussianBlur stdDeviation="0.5" result="effect1_foregroundBlur"/>
</filter>
<clipPath id="clip0">
<rect width="360" height="354" fill="white"/>
</clipPath>
</defs>
</svg>
