<svg width="18" height="16" viewBox="0 0 18 16" fill="none" xmlns="http://www.w3.org/2000/svg">
<path d="M10.4062 0H17.1562C17.6222 0 18 0.38375 18 0.857143V6.57143C18 7.04482 17.6222 7.42857 17.1562 7.42857H10.4062C9.94025 7.42857 9.5625 7.04482 9.5625 6.57143V0.857143C9.5625 0.38375 9.94025 0 10.4062 0ZM7.59375 0H0.84375C0.377754 0 0 0.38375 0 0.857143V6.57143C0 7.04482 0.377754 7.42857 0.84375 7.42857H7.59375C8.05975 7.42857 8.4375 7.04482 8.4375 6.57143V0.857143C8.4375 0.38375 8.05975 0 7.59375 0ZM0 9.42857V15.1429C0 15.6163 0.377754 16 0.84375 16H7.59375C8.05975 16 8.4375 15.6163 8.4375 15.1429V9.42857C8.4375 8.95518 8.05975 8.57143 7.59375 8.57143H0.84375C0.377754 8.57143 0 8.95518 0 9.42857ZM10.4062 16H17.1562C17.6222 16 18 15.6163 18 15.1429V9.42857C18 8.95518 17.6222 8.57143 17.1562 8.57143H10.4062C9.94025 8.57143 9.5625 8.95518 9.5625 9.42857V15.1429C9.5625 15.6163 9.94025 16 10.4062 16Z" fill="#CACACA"/>
</svg>
