<svg width="21" height="21" viewBox="0 0 21 21" fill="none" xmlns="http://www.w3.org/2000/svg">
<g clip-path="url(#clip0)">
<path fill-rule="evenodd" clip-rule="evenodd" d="M6.125 18.375C6.125 17.4085 6.9085 16.625 7.875 16.625C8.8415 16.625 9.625 17.4085 9.625 18.375C9.625 19.3415 8.8415 20.125 7.875 20.125C6.9085 20.125 6.125 19.3415 6.125 18.375Z" fill="#272323"/>
<path fill-rule="evenodd" clip-rule="evenodd" d="M15.75 18.375C15.75 17.4085 16.5335 16.625 17.5 16.625C18.4665 16.625 19.25 17.4085 19.25 18.375C19.25 19.3415 18.4665 20.125 17.5 20.125C16.5335 20.125 15.75 19.3415 15.75 18.375Z" fill="#272323"/>
<path fill-rule="evenodd" clip-rule="evenodd" d="M0 0.875C0 0.391751 0.391751 0 0.875 0H4.375C4.79205 0 5.15114 0.294337 5.23298 0.703275L5.96788 4.375H20.125C20.3858 4.375 20.633 4.49131 20.7992 4.69223C20.9654 4.89316 21.0334 5.15775 20.9845 5.41391L19.5833 12.7617C19.4632 13.366 19.1345 13.9088 18.6546 14.2951C18.1771 14.6795 17.5802 14.8846 16.9674 14.875H8.47756C7.86483 14.8846 7.26793 14.6795 6.79042 14.2951C6.31072 13.9089 5.98206 13.3664 5.86191 12.7625C5.86186 12.7622 5.86196 12.7627 5.86191 12.7625L4.40019 5.4593C4.39426 5.43514 4.38933 5.41059 4.38546 5.38569L3.65778 1.75H0.875C0.391751 1.75 0 1.35825 0 0.875ZM6.31814 6.125L7.57824 12.4208C7.61824 12.6222 7.72782 12.8031 7.88779 12.9319C8.04775 13.0607 8.24792 13.1291 8.45324 13.1252L8.47 13.125H16.975L16.9918 13.1252C17.1971 13.1291 17.3973 13.0607 17.5572 12.9319C17.7164 12.8037 17.8257 12.6239 17.8662 12.4236L19.0674 6.125H6.31814Z" fill="#272323"/>
</g>
<defs>
<clipPath id="clip0">
<rect width="21" height="21" fill="white"/>
</clipPath>
</defs>
</svg>
