<svg width="14" height="30" viewBox="0 0 14 30" fill="none" xmlns="http://www.w3.org/2000/svg">
<path d="M7.875 0.193014C9.50063 -0.0413607 11.7244 -0.19511 12.5756 0.534264C13.9838 1.73989 13.9837 9.37301 11.1675 9.37301C9.75 9.37301 8.82 8.11676 7.41188 9.32239C6.02813 10.5074 6.00562 12.6336 6.00375 14.998C6.00188 17.3624 6.02625 19.4868 7.41188 20.6736C8.82 21.8793 9.75 20.623 11.1675 20.623C13.9819 20.623 13.9819 28.2561 12.5756 29.4618C11.7244 30.1911 9.50062 30.0374 7.875 29.803C6.78937 29.623 5.61937 29.1674 4.125 27.7068C2.08125 25.5168 0.4125 22.2036 0.375 15.1143L0.375 14.878C0.410625 7.78864 2.08125 4.47551 4.125 2.28551C5.61938 0.826765 6.78938 0.369265 7.875 0.189264L7.875 0.193014Z" fill="#E9E9E9"/>
</svg>
