<svg width="18" height="16" viewBox="0 0 18 16" fill="none" xmlns="http://www.w3.org/2000/svg">
<path d="M5.24999 6.57143V9.42857C5.24999 9.90196 4.87223 10.2857 4.40624 10.2857H0.84375C0.377754 10.2857 0 9.90196 0 9.42857V6.57143C0 6.09804 0.377754 5.71429 0.84375 5.71429H4.40624C4.87223 5.71429 5.24999 6.09804 5.24999 6.57143ZM0 12.2857V15.1429C0 15.6163 0.377754 16 0.84375 16H4.40624C4.87223 16 5.24999 15.6163 5.24999 15.1429V12.2857C5.24999 11.8123 4.87223 11.4286 4.40624 11.4286H0.84375C0.377754 11.4286 0 11.8123 0 12.2857ZM4.40624 0H0.84375C0.377754 0 0 0.38375 0 0.857143V3.71429C0 4.18768 0.377754 4.57143 0.84375 4.57143H4.40624C4.87223 4.57143 5.24999 4.18768 5.24999 3.71429V0.857143C5.24999 0.38375 4.87223 0 4.40624 0ZM7.21874 16H17.1562C17.6222 16 18 15.6163 18 15.1429V12.2857C18 11.8123 17.6222 11.4286 17.1562 11.4286H7.21874C6.75274 11.4286 6.37499 11.8123 6.37499 12.2857V15.1429C6.37499 15.6163 6.75274 16 7.21874 16ZM6.37499 0.857143V3.71429C6.37499 4.18768 6.75274 4.57143 7.21874 4.57143H17.1562C17.6222 4.57143 18 4.18768 18 3.71429V0.857143C18 0.38375 17.6222 0 17.1562 0H7.21874C6.75274 0 6.37499 0.38375 6.37499 0.857143ZM7.21874 10.2857H17.1562C17.6222 10.2857 18 9.90196 18 9.42857V6.57143C18 6.09804 17.6222 5.71429 17.1562 5.71429H7.21874C6.75274 5.71429 6.37499 6.09804 6.37499 6.57143V9.42857C6.37499 9.90196 6.75274 10.2857 7.21874 10.2857Z" fill="#777777"/>
</svg>
