<svg width="141" height="64" viewBox="0 0 141 64" fill="none" xmlns="http://www.w3.org/2000/svg">
<path d="M3.104 37C2.67733 37 2.368 36.904 2.176 36.712C1.984 36.52 1.888 36.232 1.888 35.848V22.504C1.888 22.184 1.94133 21.96 2.048 21.832C2.15467 21.704 2.37867 21.64 2.72 21.64H4.544C4.77867 21.64 4.94933 21.6933 5.056 21.8C5.16267 21.8853 5.22667 22.0453 5.248 22.28L5.344 23.432C6.60267 21.9173 8.256 21.16 10.304 21.16C11.2427 21.16 11.9573 21.32 12.448 21.64C12.576 21.7253 12.6507 21.8213 12.672 21.928C12.7147 22.0133 12.7147 22.12 12.672 22.248L12.096 24.168C12.032 24.3813 11.9147 24.488 11.744 24.488L11.488 24.424C10.976 24.1893 10.3893 24.072 9.728 24.072C8.64 24.072 7.744 24.3813 7.04 25C6.336 25.5973 5.984 26.4187 5.984 27.464V35.848C5.984 36.232 5.888 36.52 5.696 36.712C5.52533 36.904 5.216 37 4.768 37H3.104ZM23.4885 37.48C21.8245 37.48 20.3205 37.2027 18.9765 36.648C17.6325 36.072 16.5552 35.1973 15.7445 34.024C14.9552 32.8293 14.5605 31.3467 14.5605 29.576C14.5605 26.824 15.2965 24.7333 16.7685 23.304C18.2405 21.8747 20.3312 21.16 23.0405 21.16C25.7285 21.16 27.7552 21.8533 29.1205 23.24C30.5072 24.6267 31.2005 26.632 31.2005 29.256C31.2005 30.0027 30.8592 30.376 30.1765 30.376H18.4325C18.4325 31.784 18.9232 32.872 19.9045 33.64C20.8858 34.3867 22.2512 34.76 24.0005 34.76C25.6858 34.76 27.2005 34.376 28.5445 33.608C28.6938 33.5227 28.8112 33.48 28.8965 33.48C29.0458 33.48 29.1632 33.576 29.2485 33.768L30.0165 35.144C30.0805 35.272 30.1125 35.3893 30.1125 35.496C30.1125 35.6453 30.0165 35.784 29.8245 35.912C28.9498 36.4453 28.0005 36.84 26.9765 37.096C25.9738 37.352 24.8112 37.48 23.4885 37.48ZM27.4885 28.008C27.4885 26.6853 27.1152 25.6507 26.3685 24.904C25.6432 24.1573 24.5445 23.784 23.0725 23.784C21.5792 23.784 20.4272 24.168 19.6165 24.936C18.8272 25.704 18.4325 26.728 18.4325 28.008H27.4885Z" fill="#FB9130"/>
<path d="M35.5095 37C35.0828 37 34.7735 36.904 34.5815 36.712C34.4108 36.52 34.3255 36.232 34.3255 35.848V16.424C34.3255 16.0187 34.4108 15.72 34.5815 15.528C34.7735 15.336 35.0935 15.24 35.5415 15.24H37.2695C37.6108 15.24 37.8668 15.2827 38.0375 15.368C38.2295 15.4533 38.3788 15.624 38.4855 15.88L44.9495 30.76L51.4135 15.88C51.5202 15.624 51.6588 15.4533 51.8295 15.368C52.0215 15.2827 52.2882 15.24 52.6295 15.24H54.3575C54.8055 15.24 55.1148 15.336 55.2855 15.528C55.4775 15.72 55.5735 16.0187 55.5735 16.424V35.848C55.5735 36.232 55.4775 36.52 55.2855 36.712C55.1148 36.904 54.8162 37 54.3895 37H52.9815C52.5548 37 52.2455 36.904 52.0535 36.712C51.8615 36.52 51.7655 36.232 51.7655 35.848V22.056L46.2935 34.248C46.1228 34.5893 45.9522 34.8347 45.7815 34.984C45.6108 35.1333 45.3335 35.208 44.9495 35.208C44.5655 35.208 44.2775 35.1333 44.0855 34.984C43.9148 34.8347 43.7548 34.5893 43.6055 34.248L38.1335 22.056V35.848C38.1335 36.232 38.0375 36.52 37.8455 36.712C37.6748 36.904 37.3655 37 36.9175 37H35.5095ZM65.5648 37.48C63.4741 37.48 61.8101 36.8507 60.5728 35.592C59.3354 34.312 58.7168 32.52 58.7168 30.216C58.7168 28.424 59.1114 26.8453 59.9008 25.48C60.6901 24.0933 61.8101 23.0267 63.2608 22.28C64.7328 21.5333 66.4394 21.16 68.3808 21.16C71.0901 21.16 73.3834 21.8 75.2608 23.08V36.136C75.2608 36.456 75.1861 36.68 75.0368 36.808C74.9088 36.936 74.6741 37 74.3328 37H72.5728C72.3381 37 72.1568 36.9573 72.0288 36.872C71.9221 36.7653 71.8474 36.6053 71.8048 36.392L71.5488 35.144C70.8874 35.9547 70.0661 36.552 69.0848 36.936C68.1248 37.2987 66.9514 37.48 65.5648 37.48ZM67.1008 34.568C68.2314 34.568 69.2234 34.2373 70.0768 33.576C70.9514 32.9147 71.3888 32.04 71.3888 30.952V24.712C70.9408 24.4773 70.4821 24.3173 70.0128 24.232C69.5648 24.1253 69.0101 24.072 68.3488 24.072C66.6634 24.072 65.3088 24.6053 64.2848 25.672C63.2608 26.7387 62.7488 28.2107 62.7488 30.088C62.7488 31.624 63.1008 32.7547 63.8048 33.48C64.5301 34.2053 65.6288 34.568 67.1008 34.568ZM80.2603 37C79.8336 37 79.5243 36.904 79.3323 36.712C79.1403 36.52 79.0443 36.232 79.0443 35.848V22.504C79.0443 22.184 79.0976 21.96 79.2043 21.832C79.3109 21.704 79.5349 21.64 79.8763 21.64H81.7003C81.9349 21.64 82.1056 21.6933 82.2123 21.8C82.3189 21.8853 82.3829 22.0453 82.4043 22.28L82.5003 23.432C83.7589 21.9173 85.4123 21.16 87.4603 21.16C88.3989 21.16 89.1136 21.32 89.6043 21.64C89.7323 21.7253 89.8069 21.8213 89.8283 21.928C89.8709 22.0133 89.8709 22.12 89.8283 22.248L89.2523 24.168C89.1883 24.3813 89.0709 24.488 88.9003 24.488L88.6443 24.424C88.1323 24.1893 87.5456 24.072 86.8843 24.072C85.7963 24.072 84.9003 24.3813 84.1963 25C83.4923 25.5973 83.1403 26.4187 83.1403 27.464V35.848C83.1403 36.232 83.0443 36.52 82.8523 36.712C82.6816 36.904 82.3723 37 81.9243 37H80.2603ZM93.5408 37C93.1141 37 92.8048 36.904 92.6128 36.712C92.4421 36.52 92.3568 36.232 92.3568 35.848V16.424C92.3568 16.0187 92.4421 15.72 92.6128 15.528C92.8048 15.336 93.1141 15.24 93.5408 15.24H95.2368C95.6634 15.24 95.9728 15.336 96.1648 15.528C96.3568 15.72 96.4528 16.0187 96.4528 16.424V35.848C96.4528 36.232 96.3568 36.52 96.1648 36.712C95.9941 36.904 95.6848 37 95.2368 37H93.5408ZM103.909 37C103.674 37 103.503 36.9787 103.397 36.936C103.29 36.8933 103.173 36.7973 103.045 36.648L97.4128 30.28C97.2208 30.0667 97.0821 29.8747 96.9968 29.704C96.9114 29.512 96.8688 29.2773 96.8688 29C96.8688 28.7227 96.9114 28.4987 96.9968 28.328C97.0821 28.136 97.2208 27.9333 97.4128 27.72L102.853 22.024C102.981 21.8747 103.098 21.7787 103.205 21.736C103.333 21.672 103.535 21.64 103.813 21.64H106.789C106.938 21.64 107.045 21.6827 107.109 21.768C107.194 21.8533 107.237 21.96 107.237 22.088C107.237 22.2587 107.173 22.408 107.045 22.536L100.677 29L107.269 36.104C107.397 36.232 107.461 36.3707 107.461 36.52C107.461 36.648 107.418 36.7653 107.333 36.872C107.247 36.9573 107.13 37 106.981 37H103.909ZM117.145 37.48C115.481 37.48 113.977 37.2027 112.633 36.648C111.289 36.072 110.211 35.1973 109.401 34.024C108.611 32.8293 108.217 31.3467 108.217 29.576C108.217 26.824 108.953 24.7333 110.425 23.304C111.897 21.8747 113.987 21.16 116.697 21.16C119.385 21.16 121.411 21.8533 122.777 23.24C124.163 24.6267 124.857 26.632 124.857 29.256C124.857 30.0027 124.515 30.376 123.833 30.376H112.089C112.089 31.784 112.579 32.872 113.561 33.64C114.542 34.3867 115.907 34.76 117.657 34.76C119.342 34.76 120.857 34.376 122.201 33.608C122.35 33.5227 122.467 33.48 122.553 33.48C122.702 33.48 122.819 33.576 122.905 33.768L123.673 35.144C123.737 35.272 123.769 35.3893 123.769 35.496C123.769 35.6453 123.673 35.784 123.481 35.912C122.606 36.4453 121.657 36.84 120.633 37.096C119.63 37.352 118.467 37.48 117.145 37.48ZM121.145 28.008C121.145 26.6853 120.771 25.6507 120.025 24.904C119.299 24.1573 118.201 23.784 116.729 23.784C115.235 23.784 114.083 24.168 113.273 24.936C112.483 25.704 112.089 26.728 112.089 28.008H121.145ZM135.054 37.48C133.24 37.48 131.875 36.9787 130.958 35.976C130.04 34.9733 129.582 33.5867 129.582 31.816V24.648H127.758C127.331 24.648 127.043 24.5733 126.894 24.424C126.766 24.2747 126.702 23.9973 126.702 23.592V22.728C126.702 22.3227 126.766 22.0453 126.894 21.896C127.043 21.7253 127.331 21.64 127.758 21.64H129.582V19.88C129.582 19.432 129.656 19.016 129.806 18.632C129.976 18.2267 130.232 17.7253 130.574 17.128C130.702 16.872 130.819 16.712 130.926 16.648C131.054 16.5627 131.267 16.52 131.566 16.52H132.622C133.006 16.52 133.272 16.616 133.422 16.808C133.592 16.9787 133.678 17.2453 133.678 17.608V21.64H137.454C137.88 21.64 138.158 21.7253 138.286 21.896C138.435 22.0453 138.51 22.3227 138.51 22.728V23.592C138.51 23.9973 138.435 24.2747 138.286 24.424C138.158 24.5733 137.88 24.648 137.454 24.648H133.678V31.688C133.678 32.6693 133.848 33.384 134.19 33.832C134.531 34.2587 135.118 34.472 135.95 34.472C136.44 34.472 136.856 34.4187 137.198 34.312C137.539 34.184 137.912 33.9813 138.318 33.704C138.424 33.6187 138.542 33.576 138.67 33.576C138.798 33.576 138.926 33.672 139.054 33.864L139.982 35.4C140.067 35.5067 140.11 35.624 140.11 35.752C140.11 35.9013 140.003 36.0507 139.79 36.2C138.467 37.0533 136.888 37.48 135.054 37.48Z" fill="#272323"/>
<path d="M12.4853 61.072C15.0053 61.072 16.8893 59.26 16.8893 56.8C16.8893 54.34 15.0053 52.528 12.4853 52.528C9.94131 52.528 8.06931 54.352 8.06931 56.8C8.06931 59.248 9.94131 61.072 12.4853 61.072ZM12.4853 60.28C10.4573 60.28 8.94531 58.804 8.94531 56.8C8.94531 54.796 10.4573 53.32 12.4853 53.32C14.5013 53.32 16.0013 54.796 16.0013 56.8C16.0013 58.804 14.5013 60.28 12.4853 60.28ZM21.9157 54.64C20.8237 54.64 19.9717 55.084 19.5157 55.852V54.688H18.6997V61H19.5517V57.688C19.5517 56.248 20.4037 55.408 21.7597 55.408C22.9597 55.408 23.6557 56.092 23.6557 57.424V61H24.5077V57.34C24.5077 55.528 23.4517 54.64 21.9157 54.64ZM26.8208 61H27.6728V52.096H26.8208V61ZM30.4755 53.308C30.8355 53.308 31.0995 53.032 31.0995 52.684C31.0995 52.36 30.8235 52.096 30.4755 52.096C30.1275 52.096 29.8515 52.372 29.8515 52.696C29.8515 53.032 30.1275 53.308 30.4755 53.308ZM30.0435 61H30.8955V54.688H30.0435V61ZM36.4821 54.64C35.3901 54.64 34.5381 55.084 34.0821 55.852V54.688H33.2661V61H34.1181V57.688C34.1181 56.248 34.9701 55.408 36.3261 55.408C37.5261 55.408 38.2221 56.092 38.2221 57.424V61H39.0741V57.34C39.0741 55.528 38.0181 54.64 36.4821 54.64ZM46.9187 57.844C46.9187 55.948 45.6347 54.64 43.8587 54.64C42.0827 54.64 40.7747 55.972 40.7747 57.844C40.7747 59.716 42.1187 61.06 44.0867 61.06C45.0827 61.06 45.9587 60.7 46.5227 60.028L46.0427 59.476C45.5627 60.028 44.8787 60.304 44.1107 60.304C42.7307 60.304 41.7227 59.428 41.6267 58.108H46.9067C46.9067 58.012 46.9187 57.916 46.9187 57.844ZM43.8587 55.372C45.0947 55.372 45.9947 56.236 46.1027 57.472H41.6267C41.7347 56.236 42.6347 55.372 43.8587 55.372ZM56.2815 54.688H51.8175V61H52.6695V55.444H56.2815V54.688ZM57.5128 61H58.2808L62.4808 55.984V61H63.3328V54.688H62.5768L58.3648 59.704V54.688H57.5128V61ZM65.7745 54.688V61H66.6265V55.444H70.5865V61H71.4385V54.688H65.7745ZM79.3924 57.844C79.3924 55.948 78.1084 54.64 76.3324 54.64C74.5564 54.64 73.2484 55.972 73.2484 57.844C73.2484 59.716 74.5924 61.06 76.5604 61.06C77.5564 61.06 78.4324 60.7 78.9964 60.028L78.5164 59.476C78.0364 60.028 77.3524 60.304 76.5844 60.304C75.2044 60.304 74.1964 59.428 74.1004 58.108H79.3804C79.3804 58.012 79.3924 57.916 79.3924 57.844ZM76.3324 55.372C77.5684 55.372 78.4684 56.236 78.5764 57.472H74.1004C74.2084 56.236 75.1084 55.372 76.3324 55.372ZM84.5304 54.64C83.4864 54.64 82.6104 55.096 82.0944 55.936V54.688H81.2784V63.328H82.1304V59.812C82.6584 60.628 83.5224 61.06 84.5304 61.06C86.3304 61.06 87.6744 59.764 87.6744 57.844C87.6744 55.936 86.3304 54.64 84.5304 54.64ZM84.4704 60.304C83.1264 60.304 82.1184 59.32 82.1184 57.844C82.1184 56.38 83.1264 55.384 84.4704 55.384C85.8024 55.384 86.8224 56.38 86.8224 57.844C86.8224 59.32 85.8024 60.304 84.4704 60.304ZM95.769 54.688L93.045 59.236L90.369 54.688H89.505V61H90.285V55.996L92.841 60.232H93.225L95.781 56.008V61H96.561V54.688H95.769ZM101.157 54.64C100.161 54.64 99.2254 54.952 98.5894 55.492L98.9734 56.128C99.4894 55.672 100.257 55.384 101.073 55.384C102.249 55.384 102.861 55.972 102.861 57.052V57.436H100.857C99.0454 57.436 98.4214 58.252 98.4214 59.224C98.4214 60.316 99.2974 61.06 100.725 61.06C101.769 61.06 102.513 60.664 102.897 60.016V61H103.713V57.088C103.713 55.456 102.789 54.64 101.157 54.64ZM100.857 60.388C99.8494 60.388 99.2614 59.932 99.2614 59.2C99.2614 58.552 99.6574 58.072 100.881 58.072H102.861V59.104C102.525 59.932 101.817 60.388 100.857 60.388ZM109.234 54.64C108.19 54.64 107.314 55.096 106.798 55.936V54.688H105.982V63.328H106.834V59.812C107.362 60.628 108.226 61.06 109.234 61.06C111.034 61.06 112.378 59.764 112.378 57.844C112.378 55.936 111.034 54.64 109.234 54.64ZM109.174 60.304C107.83 60.304 106.822 59.32 106.822 57.844C106.822 56.38 107.83 55.384 109.174 55.384C110.506 55.384 111.526 56.38 111.526 57.844C111.526 59.32 110.506 60.304 109.174 60.304ZM118.828 61H119.836L117.172 57.748L119.656 54.688H118.732L116.512 57.46H115.06V54.688H114.208V61H115.06V58.192H116.5L118.828 61ZM126.49 57.844C126.49 55.948 125.206 54.64 123.43 54.64C121.654 54.64 120.346 55.972 120.346 57.844C120.346 59.716 121.69 61.06 123.658 61.06C124.654 61.06 125.53 60.7 126.094 60.028L125.614 59.476C125.134 60.028 124.45 60.304 123.682 60.304C122.302 60.304 121.294 59.428 121.198 58.108H126.478C126.478 58.012 126.49 57.916 126.49 57.844ZM123.43 55.372C124.666 55.372 125.566 56.236 125.674 57.472H121.198C121.306 56.236 122.206 55.372 123.43 55.372ZM132.535 54.688H126.907V55.444H129.295V61H130.147V55.444H132.535V54.688Z" fill="#B1B1B1"/>
</svg>
