<svg xmlns="http://www.w3.org/2000/svg" viewBox="0 0 500 500"><g id="freepik--background-complete--inject-5"><rect y="382.4" width="500" height="0.25" style="fill:#ebebeb"></rect><rect x="416.78" y="398.49" width="33.12" height="0.25" style="fill:#ebebeb"></rect><rect x="322.53" y="401.21" width="8.69" height="0.25" style="fill:#ebebeb"></rect><rect x="396.59" y="389.21" width="19.19" height="0.25" style="fill:#ebebeb"></rect><rect x="52.46" y="390.89" width="43.19" height="0.25" style="fill:#ebebeb"></rect><rect x="104.56" y="390.89" width="6.33" height="0.25" style="fill:#ebebeb"></rect><rect x="131.47" y="395.11" width="93.68" height="0.25" style="fill:#ebebeb"></rect><path d="M237,337.8H43.91a5.71,5.71,0,0,1-5.7-5.71V60.66A5.71,5.71,0,0,1,43.91,55H237a5.71,5.71,0,0,1,5.71,5.71V332.09A5.71,5.71,0,0,1,237,337.8ZM43.91,55.2a5.46,5.46,0,0,0-5.45,5.46V332.09a5.46,5.46,0,0,0,5.45,5.46H237a5.47,5.47,0,0,0,5.46-5.46V60.66A5.47,5.47,0,0,0,237,55.2Z" style="fill:#ebebeb"></path><path d="M453.31,337.8H260.21a5.72,5.72,0,0,1-5.71-5.71V60.66A5.72,5.72,0,0,1,260.21,55h193.1A5.71,5.71,0,0,1,459,60.66V332.09A5.71,5.71,0,0,1,453.31,337.8ZM260.21,55.2a5.47,5.47,0,0,0-5.46,5.46V332.09a5.47,5.47,0,0,0,5.46,5.46h193.1a5.47,5.47,0,0,0,5.46-5.46V60.66a5.47,5.47,0,0,0-5.46-5.46Z" style="fill:#ebebeb"></path><rect x="435.97" y="326.28" width="31.7" height="56.12" transform="translate(903.64 708.68) rotate(180)" style="fill:#f0f0f0"></rect><rect x="408.21" y="338.59" width="31.7" height="43.81" transform="translate(848.12 720.99) rotate(180)" style="fill:#f0f0f0"></rect><rect x="387.94" y="302.49" width="31.7" height="79.91" transform="translate(807.58 684.89) rotate(180)" style="fill:#f0f0f0"></rect><rect x="366.88" y="237.7" width="31.7" height="144.7" transform="translate(765.46 620.1) rotate(180)" style="fill:#f0f0f0"></rect><rect x="288.48" y="248.96" width="85.06" height="133.44" transform="translate(662.02 631.36) rotate(180)" style="fill:#f0f0f0"></rect><rect x="27.57" y="332.18" width="44.88" height="50.22" style="fill:#f5f5f5"></rect><rect x="66.87" y="343.19" width="44.88" height="39.2" style="fill:#f5f5f5"></rect><rect x="95.57" y="310.89" width="44.88" height="71.51" style="fill:#f5f5f5"></rect><rect x="125.4" y="252.91" width="44.88" height="129.49" style="fill:#f5f5f5"></rect><rect x="161.21" y="224.21" width="73.44" height="158.19" transform="translate(395.87 606.61) rotate(180)" style="fill:#f0f0f0"></rect><rect x="168.21" y="230.84" width="3.5" height="19.25" transform="translate(339.91 480.94) rotate(180)" style="fill:#f5f5f5"></rect><rect x="168.21" y="260.95" width="3.5" height="19.25" transform="translate(339.91 541.14) rotate(180)" style="fill:#f5f5f5"></rect><rect x="168.21" y="291.05" width="3.5" height="19.25" transform="translate(339.91 601.35) rotate(180)" style="fill:#f5f5f5"></rect><rect x="168.21" y="321.15" width="3.5" height="19.25" transform="translate(339.91 661.55) rotate(180)" style="fill:#f5f5f5"></rect><rect x="168.21" y="351.26" width="3.5" height="19.25" transform="translate(339.91 721.76) rotate(180)" style="fill:#f5f5f5"></rect><rect x="180.6" y="230.84" width="3.5" height="19.25" transform="translate(364.7 480.94) rotate(180)" style="fill:#f5f5f5"></rect><rect x="180.6" y="260.95" width="3.5" height="19.25" transform="translate(364.7 541.14) rotate(180)" style="fill:#f5f5f5"></rect><rect x="180.6" y="291.05" width="3.5" height="19.25" transform="translate(364.7 601.35) rotate(180)" style="fill:#f5f5f5"></rect><rect x="180.6" y="321.15" width="3.5" height="19.25" transform="translate(364.7 661.55) rotate(180)" style="fill:#f5f5f5"></rect><rect x="180.6" y="351.26" width="3.5" height="19.25" transform="translate(364.7 721.76) rotate(180)" style="fill:#f5f5f5"></rect><rect x="192.99" y="230.84" width="3.5" height="19.25" transform="translate(389.48 480.94) rotate(180)" style="fill:#f5f5f5"></rect><rect x="192.99" y="260.95" width="3.5" height="19.25" transform="translate(389.48 541.14) rotate(180)" style="fill:#f5f5f5"></rect><rect x="192.99" y="291.05" width="3.5" height="19.25" transform="translate(389.48 601.35) rotate(180)" style="fill:#f5f5f5"></rect><rect x="192.99" y="321.15" width="3.5" height="19.25" transform="translate(389.48 661.55) rotate(180)" style="fill:#f5f5f5"></rect><rect x="192.99" y="351.26" width="3.5" height="19.25" transform="translate(389.48 721.76) rotate(180)" style="fill:#f5f5f5"></rect><rect x="205.38" y="230.84" width="3.5" height="19.25" transform="translate(414.27 480.94) rotate(180)" style="fill:#f5f5f5"></rect><rect x="205.38" y="260.95" width="3.5" height="19.25" transform="translate(414.27 541.14) rotate(180)" style="fill:#f5f5f5"></rect><rect x="205.38" y="291.05" width="3.5" height="19.25" transform="translate(414.27 601.35) rotate(180)" style="fill:#f5f5f5"></rect><rect x="205.38" y="321.15" width="3.5" height="19.25" transform="translate(414.27 661.55) rotate(180)" style="fill:#f5f5f5"></rect><rect x="205.38" y="351.26" width="3.5" height="19.25" transform="translate(414.27 721.76) rotate(180)" style="fill:#f5f5f5"></rect><rect x="217.78" y="230.84" width="3.5" height="19.25" transform="translate(439.05 480.94) rotate(180)" style="fill:#f5f5f5"></rect><rect x="217.78" y="260.95" width="3.5" height="19.25" transform="translate(439.05 541.14) rotate(180)" style="fill:#f5f5f5"></rect><rect x="217.78" y="291.05" width="3.5" height="19.25" transform="translate(439.05 601.35) rotate(180)" style="fill:#f5f5f5"></rect><rect x="217.78" y="321.15" width="3.5" height="19.25" transform="translate(439.05 661.55) rotate(180)" style="fill:#f5f5f5"></rect><rect x="217.78" y="351.26" width="3.5" height="19.25" transform="translate(439.05 721.76) rotate(180)" style="fill:#f5f5f5"></rect><polygon points="234.66 224.21 219.52 224.21 212.94 382.4 234.66 382.4 234.66 224.21" style="fill:#e0e0e0;opacity:0.5"></polygon><polygon points="355.86 115.17 266.77 125.33 266.77 382.4 355.86 382.4 355.86 115.17" style="fill:#f0f0f0"></polygon><rect x="355.86" y="115.17" width="71.28" height="267.23" style="fill:#e6e6e6"></rect><rect x="266.77" y="137.31" width="160.37" height="1.37" style="fill:#e0e0e0"></rect><rect x="266.77" y="151.86" width="160.37" height="1.37" style="fill:#e0e0e0"></rect><rect x="266.77" y="166.41" width="160.37" height="1.37" style="fill:#e0e0e0"></rect><rect x="266.77" y="180.96" width="160.37" height="1.37" style="fill:#e0e0e0"></rect><rect x="266.77" y="195.51" width="160.37" height="1.37" style="fill:#e0e0e0"></rect><rect x="266.77" y="210.06" width="160.37" height="1.37" style="fill:#e0e0e0"></rect><rect x="266.77" y="224.61" width="160.37" height="1.37" style="fill:#e0e0e0"></rect><rect x="266.77" y="239.16" width="160.37" height="1.37" style="fill:#e0e0e0"></rect><rect x="266.77" y="253.71" width="160.37" height="1.37" style="fill:#e0e0e0"></rect><rect x="266.77" y="268.26" width="160.37" height="1.37" style="fill:#e0e0e0"></rect><rect x="266.77" y="282.81" width="160.37" height="1.37" style="fill:#e0e0e0"></rect><rect x="266.77" y="297.37" width="160.37" height="1.37" style="fill:#e0e0e0"></rect><rect x="266.77" y="311.92" width="160.37" height="1.37" style="fill:#e0e0e0"></rect><rect x="266.77" y="326.47" width="160.37" height="1.37" style="fill:#e0e0e0"></rect><rect x="266.77" y="341.02" width="160.37" height="1.37" style="fill:#e0e0e0"></rect><rect x="266.77" y="355.57" width="160.37" height="1.37" style="fill:#e0e0e0"></rect><rect x="266.77" y="370.12" width="160.37" height="1.37" style="fill:#e0e0e0"></rect><rect x="108.02" y="161.81" width="42.26" height="220.59" transform="translate(258.3 544.21) rotate(180)" style="fill:#f0f0f0"></rect><polygon points="108.02 161.81 150.28 161.81 134.73 142.33 74.21 142.33 108.02 161.81" style="fill:#fafafa"></polygon><polygon points="108.02 161.81 74.21 142.33 74.21 382.4 108.02 382.4 108.02 161.81" style="fill:#ebebeb"></polygon><rect x="74.21" y="172.09" width="76.06" height="1.17" transform="translate(224.49 345.35) rotate(180)" style="fill:#e0e0e0"></rect><rect x="74.21" y="184.58" width="76.06" height="1.17" transform="translate(224.49 370.33) rotate(180)" style="fill:#e0e0e0"></rect><rect x="74.21" y="197.06" width="76.06" height="1.17" transform="translate(224.49 395.3) rotate(180)" style="fill:#e0e0e0"></rect><rect x="74.21" y="209.55" width="76.06" height="1.17" transform="translate(224.49 420.27) rotate(180)" style="fill:#e0e0e0"></rect><rect x="74.21" y="222.03" width="76.06" height="1.17" transform="translate(224.49 445.24) rotate(180)" style="fill:#e0e0e0"></rect><rect x="74.21" y="234.52" width="76.06" height="1.17" transform="translate(224.49 470.21) rotate(180)" style="fill:#e0e0e0"></rect><rect x="74.21" y="247" width="76.06" height="1.17" transform="translate(224.49 495.18) rotate(180)" style="fill:#e0e0e0"></rect><rect x="74.21" y="259.49" width="76.06" height="1.17" transform="translate(224.49 520.16) rotate(180)" style="fill:#e0e0e0"></rect><rect x="74.21" y="271.98" width="76.06" height="1.17" transform="translate(224.49 545.13) rotate(180)" style="fill:#e0e0e0"></rect><rect x="74.21" y="284.46" width="76.06" height="1.17" transform="translate(224.49 570.1) rotate(180)" style="fill:#e0e0e0"></rect><rect x="74.21" y="296.95" width="76.06" height="1.17" transform="translate(224.49 595.07) rotate(180)" style="fill:#e0e0e0"></rect><rect x="74.21" y="309.43" width="76.06" height="1.17" transform="translate(224.49 620.04) rotate(180)" style="fill:#e0e0e0"></rect><rect x="74.21" y="321.92" width="76.06" height="1.17" transform="translate(224.49 645.01) rotate(180)" style="fill:#e0e0e0"></rect><rect x="74.21" y="334.41" width="76.06" height="1.17" transform="translate(224.49 669.99) rotate(180)" style="fill:#e0e0e0"></rect><rect x="74.21" y="346.89" width="76.06" height="1.17" transform="translate(224.49 694.96) rotate(180)" style="fill:#e0e0e0"></rect><rect x="74.21" y="359.38" width="76.06" height="1.17" transform="translate(224.49 719.93) rotate(180)" style="fill:#e0e0e0"></rect><rect x="74.21" y="371.86" width="76.06" height="1.17" transform="translate(224.49 744.9) rotate(180)" style="fill:#e0e0e0"></rect><rect x="257.35" y="185.72" width="56.99" height="196.68" transform="translate(571.7 568.11) rotate(180)" style="fill:#f0f0f0"></rect><rect x="293.98" y="195.88" width="9.15" height="31.57" transform="translate(597.1 423.33) rotate(180)" style="fill:#e6e6e6"></rect><rect x="271.54" y="195.88" width="9.15" height="31.57" transform="translate(552.23 423.33) rotate(180)" style="fill:#e6e6e6"></rect><rect x="293.98" y="236.76" width="9.15" height="31.57" transform="translate(597.1 505.09) rotate(180)" style="fill:#e6e6e6"></rect><rect x="271.54" y="236.76" width="9.15" height="31.57" transform="translate(552.23 505.09) rotate(180)" style="fill:#e6e6e6"></rect><rect x="293.98" y="277.64" width="9.15" height="31.57" transform="translate(597.1 586.85) rotate(180)" style="fill:#e6e6e6"></rect><rect x="271.54" y="277.64" width="9.15" height="31.57" transform="translate(552.23 586.85) rotate(180)" style="fill:#e6e6e6"></rect><rect x="293.98" y="318.52" width="9.15" height="31.57" transform="translate(597.1 668.61) rotate(180)" style="fill:#e6e6e6"></rect><rect x="271.54" y="318.52" width="9.15" height="31.57" transform="translate(552.23 668.61) rotate(180)" style="fill:#e6e6e6"></rect><polygon points="257.35 185.72 314.34 185.72 300.98 172.09 243.99 172.09 257.35 185.72" style="fill:#fff"></polygon><polygon points="257.35 185.72 243.99 172.09 230.62 185.72 230.62 382.4 257.35 382.4 257.35 185.72" style="fill:#e6e6e6"></polygon><circle cx="190.26" cy="122.46" r="27.46" style="fill:#fafafa"></circle><path d="M392.84,80.68c-6.83-.66-13.1-5.49-22-6.82-4.43-.66-7,1-9.62,2.56-3.28,2-7.29,3-12.32,2.88a64,64,0,0,1-19.41-3.56c-5.64-1.92-11.53-4.22-16-3.39-8.29,1.52-8.53,7-15.39,7.78s-8.11,4.48-2.42,4.48H399.9C404.88,84.61,399.68,81.33,392.84,80.68Z" style="fill:#f5f5f5"></path><path d="M98.89,79.54c-2.88,1.69-8.57.67-17.91-.79-5.48-.85-8.2.9-12,2.47-1.52.64-8.2,2.83.52,2.83H118c13.44,0,.94-2.4-1.21-3.33l-.11,0C110.25,77.86,101.76,77.86,98.89,79.54Z" style="fill:#f5f5f5"></path><path d="M130,117.84h53c4.64,0-.2-3.06-6.57-3.67s-12.21-5.11-20.54-6.35-8.55,5.5-19.49,5.43C127.56,113.21,121,117.84,130,117.84Z" style="fill:#f5f5f5"></path></g><g id="freepik--Shadow--inject-5"><ellipse id="freepik--path--inject-5" cx="250" cy="416.24" rx="193.89" ry="11.32" style="fill:#f5f5f5"></ellipse></g><g id="freepik--App--inject-5"><path d="M137.12,182.41a1.14,1.14,0,0,1-1.14-1.14V89.71a1.14,1.14,0,1,1,2.28,0v91.56A1.14,1.14,0,0,1,137.12,182.41Z" style="fill:#407BFF"></path><path d="M167.64,182.41a1.14,1.14,0,0,1-1.14-1.14V89.71a1.15,1.15,0,1,1,2.29,0v91.56A1.15,1.15,0,0,1,167.64,182.41Z" style="fill:#407BFF"></path><path d="M167.64,121.37a1.15,1.15,0,0,1-.81-.33l-14.45-14.45L137.93,121a1.15,1.15,0,0,1-1.62-1.62L150.76,105,136.31,90.52a1.15,1.15,0,0,1,.81-2h30.52a1.15,1.15,0,0,1,1.06.71,1.14,1.14,0,0,1-.25,1.25L154,105l14.45,14.45a1.14,1.14,0,0,1-.81,2ZM139.88,90.85l12.5,12.5,12.5-12.5Z" style="fill:#407BFF"></path><path d="M137.12,90.85a1.14,1.14,0,0,1-.81-1.95l15.26-15.26a1.14,1.14,0,0,1,1.62,0L168.45,88.9a1.14,1.14,0,0,1,0,1.62,1.16,1.16,0,0,1-1.62,0L152.38,76.07,137.93,90.52A1.15,1.15,0,0,1,137.12,90.85Z" style="fill:#407BFF"></path><path d="M198.16,90.85a1.17,1.17,0,0,1-.81-.33L182.9,76.07,168.45,90.52a1.16,1.16,0,0,1-1.62,0,1.14,1.14,0,0,1,0-1.62l15.26-15.26a1.14,1.14,0,0,1,1.62,0L199,88.9a1.14,1.14,0,0,1-.81,1.95Z" style="fill:#407BFF"></path><path d="M198.16,90.85a1.17,1.17,0,0,1-.81-.33,1.14,1.14,0,0,1,0-1.62l15.26-15.26a1.14,1.14,0,0,1,1.62,0L229.49,88.9a1.14,1.14,0,0,1,0,1.62,1.16,1.16,0,0,1-1.62,0L213.42,76.07,199,90.52A1.15,1.15,0,0,1,198.16,90.85Z" style="fill:#407BFF"></path><path d="M137.12,151.89a1.14,1.14,0,0,1-.81-1.95l30.52-30.52a1.15,1.15,0,0,1,1.62,1.62l-30.52,30.52A1.15,1.15,0,0,1,137.12,151.89Z" style="fill:#407BFF"></path><path d="M167.64,151.89a1.15,1.15,0,0,1-.81-.33L136.31,121a1.15,1.15,0,0,1,1.62-1.62l30.52,30.52a1.14,1.14,0,0,1-.81,1.95Z" style="fill:#407BFF"></path><path d="M167.64,182.41H137.12a1.14,1.14,0,0,1-1.06-.7,1.16,1.16,0,0,1,.25-1.25L150.76,166l-14.45-14.45a1.15,1.15,0,0,1,1.62-1.62l14.45,14.45,14.45-14.45a1.15,1.15,0,0,1,1.62,1.62L154,166l14.45,14.45a1.14,1.14,0,0,1-.81,1.95Zm-27.76-2.28h25l-12.5-12.5Z" style="fill:#263238"></path><polygon points="126.44 106.19 110.14 106.19 112.19 89.71 124.38 89.71 126.44 106.19" style="fill:#407BFF"></polygon><path d="M126.44,107.33h-16.3a1.17,1.17,0,0,1-.86-.38,1.19,1.19,0,0,1-.28-.9l2.06-16.48a1.14,1.14,0,0,1,1.13-1h12.19a1.15,1.15,0,0,1,1.14,1l2,16.48a1.14,1.14,0,0,1-1.13,1.28Zm-15-2.29h13.7l-1.77-14.19H113.21Z" style="fill:#407BFF"></path><path d="M228.68,90.85H107.56a1.15,1.15,0,1,1,0-2.29H228.68a1.15,1.15,0,1,1,0,2.29Z" style="fill:#263238"></path><path d="M213.42,75.59h-61a1.15,1.15,0,0,1,0-2.29h61a1.15,1.15,0,1,1,0,2.29Z" style="fill:#407BFF"></path><rect x="115.77" y="140.95" width="140.21" height="270.65" rx="11.27" style="fill:#407BFF"></rect><rect x="115.77" y="140.95" width="140.21" height="270.65" rx="11.27" style="opacity:0.2"></rect><rect x="130.17" y="140.95" width="140.21" height="270.65" rx="11.27" style="fill:#407BFF"></rect><rect x="69.65" y="210.86" width="261.26" height="130.82" rx="6.57" transform="translate(476.54 75.99) rotate(90)" style="fill:#fff"></rect><rect x="141.25" y="187.25" width="127.4" height="112.46" rx="8.14" transform="translate(438.2 26.97) rotate(87.22)" style="opacity:0.1"></rect><rect x="193.55" y="94.47" width="13.46" height="123.31" rx="4.38" transform="translate(356.4 -44.15) rotate(90)" style="fill:#407BFF"></rect><path d="M151.66,159.28h0a3.16,3.16,0,0,1-3.16-3.15h0a3.17,3.17,0,0,1,3.16-3.16h0a3.17,3.17,0,0,1,3.16,3.16h0A3.16,3.16,0,0,1,151.66,159.28Z" style="fill:#fff"></path><path d="M161.05,159.28h0a3.16,3.16,0,0,1-3.16-3.15h0a3.17,3.17,0,0,1,3.16-3.16h0a3.16,3.16,0,0,1,3.15,3.16h0A3.16,3.16,0,0,1,161.05,159.28Z" style="fill:#fff"></path><path d="M170.44,159.28h0a3.16,3.16,0,0,1-3.16-3.15h0a3.17,3.17,0,0,1,3.16-3.16h0a3.16,3.16,0,0,1,3.15,3.16h0A3.16,3.16,0,0,1,170.44,159.28Z" style="fill:#fff"></path><rect x="247.04" y="152.21" width="7.82" height="7.82" rx="1.72" style="fill:#fff"></rect><circle cx="169.4" cy="333.45" r="21.91" transform="translate(-114.71 90.21) rotate(-22.5)" style="fill:#407BFF"></circle><path d="M247.61,323.49H204.89a2.75,2.75,0,0,1-2.74-2.74h0a2.75,2.75,0,0,1,2.74-2.74h42.72a2.74,2.74,0,0,1,2.74,2.74h0A2.74,2.74,0,0,1,247.61,323.49Z" style="fill:#407BFF"></path><path d="M247.61,336.19H204.89a2.75,2.75,0,0,1-2.74-2.74h0a2.75,2.75,0,0,1,2.74-2.74h42.72a2.74,2.74,0,0,1,2.74,2.74h0A2.74,2.74,0,0,1,247.61,336.19Z" style="fill:#407BFF"></path><rect x="202.15" y="343.41" width="48.2" height="5.48" rx="2.74" style="fill:#407BFF"></rect><rect x="147.49" y="367.66" width="105.58" height="31.85" rx="9.82" style="fill:#e0e0e0"></rect><rect x="151.55" y="180.97" width="127.4" height="112.46" rx="8.14" transform="translate(435 4.16) rotate(85.54)" style="fill:#fff"></rect><path d="M171.61,305a8.64,8.64,0,0,1-8.6-8l-8.64-110.79a8.65,8.65,0,0,1,7.94-9.28l95.9-7.48a8.65,8.65,0,0,1,9.28,7.94l8.64,110.79a8.65,8.65,0,0,1-7.94,9.29l-95.9,7.47C172.06,305,171.84,305,171.61,305Zm-7.6-8a7.64,7.64,0,0,0,8.2,7l95.9-7.48a7.65,7.65,0,0,0,7-8.21l-8.64-110.79a7.64,7.64,0,0,0-8.21-7l-95.89,7.48a7.65,7.65,0,0,0-7,8.21Z" style="fill:#407BFF"></path><rect x="199.69" y="225.8" width="37.49" height="104.46" rx="6.43" transform="translate(478.64 38.65) rotate(85.54)" style="fill:#407BFF"></rect><rect x="149.08" y="191.96" width="78.16" height="53.34" rx="6.51" transform="translate(391.51 14.04) rotate(85.54)" style="fill:#407BFF;opacity:0.2"></rect><rect x="229.99" y="163.62" width="21.51" height="45.01" rx="5.23" transform="translate(407.59 -68.37) rotate(85.54)" style="fill:#407BFF;opacity:0.2"></rect><rect x="232.19" y="191.86" width="21.51" height="45.01" rx="5.23" transform="translate(437.77 -44.52) rotate(85.54)" style="fill:#407BFF;opacity:0.4"></rect><rect x="234.39" y="220.1" width="21.51" height="45.01" rx="5.23" transform="translate(467.96 -20.67) rotate(85.54)" style="fill:#407BFF;opacity:0.6000000000000001"></rect><path d="M226.25,156.64a.51.51,0,0,1-.51-.51V89.71a.51.51,0,1,1,1,0v66.42A.51.51,0,0,1,226.25,156.64Z" style="fill:#263238"></path><path d="M232.6,167H219.9a2.35,2.35,0,0,1-2.25-1.68l-2.73-9.28a2.35,2.35,0,0,1,2.25-3h18.16a2.35,2.35,0,0,1,2.25,3l-2.73,9.28A2.34,2.34,0,0,1,232.6,167Z" style="fill:#263238"></path><path d="M226.25,181.38a1.14,1.14,0,0,1,0-2.28,4,4,0,0,0,0-8,1.14,1.14,0,0,1-1.14-1.14V167a1.15,1.15,0,0,1,2.29,0v1.91a6.28,6.28,0,0,1-1.15,12.45Z" style="fill:#263238"></path></g><g id="freepik--Character--inject-5"><path d="M402.72,196.57c1.27,2.93,2.31,5.71,3.33,8.63S408,211,408.79,214a86.06,86.06,0,0,1,2.08,9.31,48.8,48.8,0,0,1,.62,5.07,29.76,29.76,0,0,1-.15,6l-.06.41a3.75,3.75,0,0,1-.13.58,65.38,65.38,0,0,1-3.23,8c-1.17,2.51-2.5,4.88-3.82,7.23s-2.76,4.6-4.25,6.83-3,4.39-4.7,6.54a3.88,3.88,0,0,1-6.72-3.62l0-.09c.8-2.41,1.69-4.87,2.54-7.29s1.73-4.82,2.54-7.22,1.62-4.79,2.34-7.12,1.35-4.67,1.79-6.8l-.19,1a18.23,18.23,0,0,0-.29-2.87c-.2-1.15-.45-2.41-.77-3.68s-.67-2.57-1.06-3.88-.79-2.63-1.23-4c-.88-2.65-1.79-5.33-2.76-8l-2.93-7.93-.05-.14a7.72,7.72,0,0,1,14.33-5.75Z" style="fill:#407BFF"></path><path d="M402.72,196.57c1.27,2.93,2.31,5.71,3.33,8.63S408,211,408.79,214a86.06,86.06,0,0,1,2.08,9.31,48.8,48.8,0,0,1,.62,5.07,29.76,29.76,0,0,1-.15,6l-.06.41a3.75,3.75,0,0,1-.13.58,65.38,65.38,0,0,1-3.23,8c-1.17,2.51-2.5,4.88-3.82,7.23s-2.76,4.6-4.25,6.83-3,4.39-4.7,6.54a3.88,3.88,0,0,1-6.72-3.62l0-.09c.8-2.41,1.69-4.87,2.54-7.29s1.73-4.82,2.54-7.22,1.62-4.79,2.34-7.12,1.35-4.67,1.79-6.8l-.19,1a18.23,18.23,0,0,0-.29-2.87c-.2-1.15-.45-2.41-.77-3.68s-.67-2.57-1.06-3.88-.79-2.63-1.23-4c-.88-2.65-1.79-5.33-2.76-8l-2.93-7.93-.05-.14a7.72,7.72,0,0,1,14.33-5.75Z" style="fill:#fff;opacity:0.7000000000000001"></path><path d="M388.89,259l-5.11,2.68,7.15,7.43a17.62,17.62,0,0,0,3.63-3.47,4.48,4.48,0,0,0-.9-6.24h0A4.48,4.48,0,0,0,388.89,259Z" style="fill:#7f3e3b"></path><path d="M381,270.19l2.95,2.18a3,3,0,0,0,3.85-.25l3.09-3-7.15-7.43L380.46,266A3,3,0,0,0,381,270.19Z" style="fill:#7f3e3b"></path><path d="M307.44,211.63l-5.27-6.8-6.05,8.35s5.52,5.57,8.95,3.12Z" style="fill:#7f3e3b"></path><path d="M293.32,203.64l-1.63,3.28a3,3,0,0,0,.93,3.75l3.5,2.51,6.05-8.35-4.8-2.51A3,3,0,0,0,293.32,203.64Z" style="fill:#7f3e3b"></path><path d="M394.86,417.14h-6.34l-.78-.73-1.17.73c-3.87,0-9.09-.14-11.58-1a1.63,1.63,0,0,1,.51-1.62s10.25-3.17,11.17-5.3h7.77" style="fill:#263238"></path><path d="M387,327.49c-1.27-32.78.8-58.69-2.31-71.26l-29-4.69s5.34,55.53,11.76,78.5,18,79.7,18,79.7h9.87S395.56,354.39,387,327.49Z" style="fill:#407BFF"></path><path d="M366,279l-5.39,14c1.72,12.25,3.78,24.78,6,33.78C369,310.44,367.27,283.64,366,279Z" style="opacity:0.2"></path><path d="M312.72,407.74s14.59,1.11,16.19-.65l7.65,2.35-2.14,7.7-4.72-1.44-.53-.93-1.38.34c-3.82-1.17-13.92-4.42-16.1-6A1.66,1.66,0,0,1,312.72,407.74Z" style="fill:#263238"></path><path d="M356.33,329.48a285.28,285.28,0,0,0,19.2-74.72l-31.66-5.18s-4.7,57.27-6.75,80.81C335,354.86,326.77,407,326.77,407L337,410.1S355.27,359.92,356.33,329.48Z" style="fill:#407BFF"></path><path d="M387.35,166.05c-1.86,6-3,14.69-1.2,19.6-3.5,2.42-9,5.24-15.67,4.17s-4.77-5.4-2.65-7.46c5.13-1.71,5.67-4.12,4.82-6.43Z" style="fill:#7f3e3b"></path><path d="M392.15,188.05a47.59,47.59,0,0,0-5.08-5.23c-1.56-1.08-14.51-2.69-17.6-2.58s-7.38,4.06-7.38,4.06Z" style="fill:#407BFF"></path><path d="M392.15,188.05a47.59,47.59,0,0,0-5.08-5.23c-1.56-1.08-14.51-2.69-17.6-2.58s-7.38,4.06-7.38,4.06Z" style="fill:#fff;opacity:0.7000000000000001"></path><path d="M370,158.88c-.2.59-.67,1-1.05.84s-.55-.72-.35-1.32.67-1,1.05-.83S370.2,158.29,370,158.88Z" style="fill:#263238"></path><path d="M369.77,159.72a22.2,22.2,0,0,1-4.49,4.11,3.62,3.62,0,0,0,2.65,1.49Z" style="fill:#630f0f"></path><path d="M370,154.79a.33.33,0,0,0,.28.2,2.91,2.91,0,0,1,2.22,1.43.35.35,0,0,0,.48.17.37.37,0,0,0,.17-.49,3.61,3.61,0,0,0-2.78-1.84.38.38,0,0,0-.37.53Z" style="fill:#263238"></path><path d="M390.53,163.93c-2.85,7.12-4.15,11.44-9,13.93-7.37,3.75-15.24-2.63-14.58-10.48.59-7.06,5.14-17.52,13.2-18A10.57,10.57,0,0,1,390.53,163.93Z" style="fill:#7f3e3b"></path><path d="M374.52,164.16a11.61,11.61,0,0,0,11.32,13c7.16,0,7.27-10.2,6-12.55,3.8-.66,6-5.88,3.68-9.18,3.49-2.74-4.58-6.9-14.4-7.44-10.83-.6-8.85,5.78-5.24,7.71C372.41,156.73,372.05,162.91,374.52,164.16Z" style="fill:#263238"></path><path d="M372.44,150.72s.69,8.39,7.74,13.44,13.32,5.52,13.32,5.52l1.74-5.52s-15.92-9.59-21.3-14.95A17.89,17.89,0,0,0,372.44,150.72Z" style="fill:#407BFF"></path><path d="M372.44,150.72s.69,8.39,7.74,13.44,13.32,5.52,13.32,5.52l1.74-5.52s-15.92-9.59-21.3-14.95A17.89,17.89,0,0,0,372.44,150.72Z" style="fill:#fff;opacity:0.6000000000000001"></path><path d="M378.26,164.26a6.42,6.42,0,0,1-3.92,2.66c-2,.39-2.64-1.65-1.75-3.62.8-1.77,2.82-4.11,4.69-3.61S379.46,162.54,378.26,164.26Z" style="fill:#7f3e3b"></path><path d="M391.84,187.15c-10.14-2.79-24.81-4.81-34.79-4.54a11.15,11.15,0,0,0-10.53,8.68c-3.38,14.66-3.9,41.08-4.88,67.61,21.76,11,46.13,6.64,46.13,6.64,1.29-5.19,1-22.86.55-32.34,2.7-9.32,7.59-19.73,11.3-32.09A11.18,11.18,0,0,0,391.84,187.15Z" style="fill:#407BFF"></path><path d="M391.84,187.15c-10.14-2.79-24.81-4.81-34.79-4.54a11.15,11.15,0,0,0-10.53,8.68c-3.38,14.66-3.9,41.08-4.88,67.61,21.76,11,46.13,6.64,46.13,6.64,1.29-5.19,1-22.86.55-32.34,2.7-9.32,7.59-19.73,11.3-32.09A11.18,11.18,0,0,0,391.84,187.15Z" style="fill:#fff;opacity:0.7000000000000001"></path><path d="M359.86,181.14c-8.36-.48-13.56,3.65-15.69,16.27s-4.43,41.23-3.54,51.55c28.07,11.81,45.48,7,49.23,4.25,1.47-2.25.93-9.24.19-12a42.7,42.7,0,0,0,2.77-15.52c4.16-4,6-11.67,6.14-14.65,3.66-4.88,4.15-15.93,2.12-19.08S393.15,183,359.86,181.14Z" style="fill:#263238"></path><path d="M344.66,251.07h0a.5.5,0,0,1-.5-.5c0-20.28,2.71-50.19,6.52-60.68a.5.5,0,0,1,.64-.3.49.49,0,0,1,.3.64c-3.41,9.39-6.44,37.59-6.46,60.34A.5.5,0,0,1,344.66,251.07Z" style="fill:#fff;opacity:0.2"></path><path d="M359.72,195c-1.52,2.77-3.06,5.24-4.72,7.79s-3.4,5-5.3,7.42a80.53,80.53,0,0,1-6.16,7.16,43.53,43.53,0,0,1-3.74,3.47,26.16,26.16,0,0,1-5,3.33l-.36.18a3.83,3.83,0,0,1-.56.22,24.74,24.74,0,0,1-9.26.9,30.33,30.33,0,0,1-4.14-.61,39.14,39.14,0,0,1-3.87-1,49.12,49.12,0,0,1-7.1-2.91c-1.13-.57-2.22-1.18-3.3-1.82s-2.08-1.3-3.21-2.12a3.86,3.86,0,0,1,3.14-6.89l.34.08,3.13.73c1.06.25,2.13.47,3.19.67a61.3,61.3,0,0,0,6.24.9,31.72,31.72,0,0,0,5.75,0,13.38,13.38,0,0,0,4.42-1.11l-.92.41a15.61,15.61,0,0,0,2-1.75c.77-.79,1.6-1.69,2.4-2.65s1.6-2,2.38-3.05,1.59-2.14,2.36-3.26c1.53-2.22,3.06-4.51,4.55-6.84s3-4.74,4.38-7l.07-.12A7.72,7.72,0,0,1,359.72,195Z" style="fill:#407BFF"></path><path d="M359.72,195c-1.52,2.77-3.06,5.24-4.72,7.79s-3.4,5-5.3,7.42a80.53,80.53,0,0,1-6.16,7.16,43.53,43.53,0,0,1-3.74,3.47,26.16,26.16,0,0,1-5,3.33l-.36.18a3.83,3.83,0,0,1-.56.22,24.74,24.74,0,0,1-9.26.9,30.33,30.33,0,0,1-4.14-.61,39.14,39.14,0,0,1-3.87-1,49.12,49.12,0,0,1-7.1-2.91c-1.13-.57-2.22-1.18-3.3-1.82s-2.08-1.3-3.21-2.12a3.86,3.86,0,0,1,3.14-6.89l.34.08,3.13.73c1.06.25,2.13.47,3.19.67a61.3,61.3,0,0,0,6.24.9,31.72,31.72,0,0,0,5.75,0,13.38,13.38,0,0,0,4.42-1.11l-.92.41a15.61,15.61,0,0,0,2-1.75c.77-.79,1.6-1.69,2.4-2.65s1.6-2,2.38-3.05,1.59-2.14,2.36-3.26c1.53-2.22,3.06-4.51,4.55-6.84s3-4.74,4.38-7l.07-.12A7.72,7.72,0,0,1,359.72,195Z" style="fill:#fff;opacity:0.7000000000000001"></path><path d="M395.38,167.67a1,1,0,0,1-1,.24,48.62,48.62,0,0,1-15.26-9.36c-7.57-6.94-8.22-14.89-4.86-11.09,1.86-2,9.76-4.44,17.08-1.27C399.08,149.56,402.81,160,395.38,167.67Z" style="fill:#407BFF"></path><path d="M388.91,145.35a14.15,14.15,0,0,1,3.8,14.37,16.35,16.35,0,0,0,4.64-1.78s1.17-5.61-1-9.22S389.38,144.2,388.91,145.35Z" style="fill:#407BFF"></path><path d="M392.71,159.72a14.15,14.15,0,0,0-3.8-14.37.82.82,0,0,1,.62-.41C391.05,145.92,395.24,151.87,392.71,159.72Z" style="opacity:0.2"></path></g></svg>