<svg width="30" height="30" viewBox="0 0 30 30" fill="none" xmlns="http://www.w3.org/2000/svg">
<rect width="30" height="30" rx="4" fill="#272323"/>
<path d="M22.2656 13.6079H10.5909L14.1642 9.17041C14.3313 8.96257 14.4117 8.69461 14.3877 8.42548C14.3637 8.15636 14.2373 7.90811 14.0363 7.73536C13.8352 7.56261 13.5761 7.47949 13.3158 7.50431C13.0555 7.52912 12.8154 7.65983 12.6483 7.86767L7.72641 13.9743C7.69329 14.0228 7.66368 14.0739 7.63781 14.1269C7.63781 14.1778 7.63781 14.2084 7.56891 14.2592C7.52429 14.3759 7.50093 14.5002 7.5 14.6256C7.50093 14.7511 7.52429 14.8753 7.56891 14.992C7.56891 15.0429 7.56891 15.0735 7.63781 15.1243C7.66368 15.1774 7.69329 15.2284 7.72641 15.277L12.6483 21.3836C12.7408 21.4985 12.8567 21.5909 12.9877 21.6542C13.1187 21.7175 13.2616 21.7502 13.4062 21.75C13.6363 21.7505 13.8591 21.6676 14.0363 21.5159C14.1359 21.4305 14.2183 21.3255 14.2787 21.2071C14.3391 21.0887 14.3763 20.9591 14.3882 20.8258C14.4001 20.6925 14.3864 20.5581 14.348 20.4303C14.3096 20.3024 14.2471 20.1837 14.1642 20.0809L10.5909 15.6434H22.2656C22.5267 15.6434 22.7771 15.5362 22.9617 15.3453C23.1463 15.1544 23.25 14.8956 23.25 14.6256C23.25 14.3557 23.1463 14.0968 22.9617 13.906C22.7771 13.7151 22.5267 13.6079 22.2656 13.6079Z" fill="#FBFBFB"/>
</svg>
