<svg width="30" height="30" viewBox="0 0 30 30" fill="none" xmlns="http://www.w3.org/2000/svg">
<g clip-path="url(#clip0)">
<rect width="30" height="30" rx="6" fill="#F4F4F4"/>
<path d="M15 6.5625C12.1087 6.5625 9.75 8.97486 9.75 11.9318C9.75 13.7804 10.6725 15.4219 12.0705 16.3907C9.39525 17.5642 7.5 20.2796 7.5 23.4375H9C9 20.0395 11.6775 17.3011 15 17.3011C18.3225 17.3011 21 20.0395 21 23.4375H22.5C22.5 20.2796 20.6047 17.565 17.9295 16.3899C18.643 15.8973 19.2276 15.2333 19.6321 14.4562C20.0367 13.679 20.2488 12.8123 20.25 11.9318C20.25 8.97486 17.8912 6.5625 15 6.5625ZM15 8.09659C17.0798 8.09659 18.75 9.8048 18.75 11.9318C18.75 14.0588 17.0798 15.767 15 15.767C12.9202 15.767 11.25 14.0588 11.25 11.9318C11.25 9.8048 12.9202 8.09659 15 8.09659Z" fill="#272323"/>
</g>
<defs>
<clipPath id="clip0">
<rect width="30" height="30" rx="6" fill="white"/>
</clipPath>
</defs>
</svg>
