<svg width="15" height="15" viewBox="0 0 15 15" fill="none" xmlns="http://www.w3.org/2000/svg">
<g clip-path="url(#clip0)">
<path d="M8.4375 0.0965062C9.25031 -0.0206813 10.3622 -0.097556 10.7878 0.267131C11.4919 0.869944 11.4919 4.68651 10.0838 4.68651C9.375 4.68651 8.91 4.05838 8.20594 4.66119C7.51406 5.25369 7.50281 6.31682 7.50188 7.49901C7.50094 8.68119 7.51313 9.74338 8.20594 10.3368C8.91 10.9396 9.375 10.3115 10.0838 10.3115C11.4909 10.3115 11.4909 14.1281 10.7878 14.7309C10.3622 15.0956 9.25031 15.0187 8.4375 14.9015C7.89469 14.8115 7.30969 14.5837 6.5625 13.8534C5.54063 12.7584 4.70625 11.1018 4.6875 7.55713L4.6875 7.43901C4.70531 3.89432 5.54063 2.23776 6.5625 1.14276C7.30969 0.413382 7.89469 0.184631 8.4375 0.0946312L8.4375 0.0965062Z" fill="#27AE60"/>
</g>
<defs>
<clipPath id="clip0">
<rect width="15" height="15" fill="white" transform="translate(0 15) rotate(-90)"/>
</clipPath>
</defs>
</svg>
