<svg width="30" height="30" viewBox="0 0 30 30" fill="none" xmlns="http://www.w3.org/2000/svg">
<g clip-path="url(#clip0)">
<rect width="30" height="30" rx="6" fill="#F4F4F4"/>
<path d="M22.8154 14.627C21.2491 11.8536 18.3281 10 15 10C11.6706 10 8.75012 11.8549 7.18462 14.627C7.06375 14.841 7 15.0849 7 15.3333C7 15.5818 7.06375 15.8257 7.18462 16.0397C8.75087 18.8131 11.672 20.6667 15 20.6667C18.3294 20.6667 21.2499 18.8118 22.8154 16.0397C22.9363 15.8257 23 15.5818 23 15.3333C23 15.0849 22.9363 14.841 22.8154 14.627ZM15 19.2754C12.9122 19.2754 11.2222 17.5123 11.2222 15.3333C11.2222 13.1547 12.9118 11.3913 15 11.3913C17.0878 11.3913 18.7778 13.1544 18.7778 15.3333C18.7778 17.5119 17.0882 19.2754 15 19.2754ZM17.8889 15.3333C17.8889 16.9982 16.5955 18.3478 15 18.3478C13.4045 18.3478 12.1111 16.9982 12.1111 15.3333C12.1111 14.8201 12.2342 14.3368 12.451 13.9138L12.451 13.9148C12.451 14.6003 12.9836 15.156 13.6405 15.156C14.2975 15.156 14.8301 14.6003 14.8301 13.9148C14.8301 13.2292 14.2975 12.6735 13.6405 12.6735L13.6396 12.6735C14.045 12.4473 14.5081 12.3188 15 12.3188C16.5955 12.3188 17.8889 13.6685 17.8889 15.3333Z" fill="#272323"/>
</g>
<defs>
<clipPath id="clip0">
<rect width="30" height="30" rx="6" fill="white"/>
</clipPath>
</defs>
</svg>
