<svg width="21" height="21" viewBox="0 0 21 21" fill="none" xmlns="http://www.w3.org/2000/svg">
<path d="M19.25 14.805V17.43C19.251 17.6737 19.2011 17.9149 19.1034 18.1382C19.0058 18.3615 18.8626 18.5619 18.6831 18.7266C18.5035 18.8914 18.2915 19.0168 18.0607 19.0949C17.8298 19.1729 17.5852 19.2019 17.3425 19.18C14.65 18.8874 12.0636 17.9674 9.79125 16.4937C7.6771 15.1503 5.88467 13.3579 4.54125 11.2437C3.06248 8.96105 2.14222 6.36211 1.855 3.65749C1.83314 3.41553 1.86189 3.17166 1.93944 2.94141C2.01699 2.71117 2.14163 2.4996 2.30542 2.32016C2.46922 2.14073 2.66858 1.99736 2.89082 1.8992C3.11306 1.80104 3.3533 1.75022 3.59625 1.74999H6.22125C6.6459 1.74581 7.05757 1.89619 7.37954 2.17308C7.70152 2.44998 7.91182 2.83451 7.97125 3.25499C8.08205 4.09505 8.28752 4.91988 8.58375 5.71374C8.70148 6.02693 8.72696 6.36729 8.65717 6.69451C8.58738 7.02173 8.42526 7.32209 8.19 7.55999L7.07875 8.67124C8.32436 10.8618 10.1382 12.6756 12.3288 13.9212L13.44 12.81C13.6779 12.5747 13.9783 12.4126 14.3055 12.3428C14.6327 12.273 14.9731 12.2985 15.2863 12.4162C16.0801 12.7125 16.9049 12.9179 17.745 13.0287C18.17 13.0887 18.5582 13.3028 18.8357 13.6303C19.1132 13.9578 19.2606 14.3759 19.25 14.805Z" stroke="#272323" stroke-width="2" stroke-linecap="round" stroke-linejoin="round"/>
<path d="M12.4685 1.3125V0C17.1725 0 20.9998 3.82725 20.9998 8.53125H19.6873C19.6873 4.55109 16.4487 1.3125 12.4685 1.3125Z" fill="#CACACA"/>
<path d="M12.4685 3.9375V2.625C15.7255 2.625 18.3748 5.27494 18.3748 8.53125H17.0623C17.0623 5.99813 15.001 3.9375 12.4685 3.9375Z" fill="#CACACA"/>
<path d="M12.4685 6.5625V5.25C14.2778 5.25 15.7498 6.72197 15.7498 8.53125H14.4373C14.4373 7.44581 13.5539 6.5625 12.4685 6.5625Z" fill="#CACACA"/>
</svg>
