<svg width="30" height="30" viewBox="0 0 30 30" fill="none" xmlns="http://www.w3.org/2000/svg">
<g clip-path="url(#clip0)">
<rect width="30" height="30" rx="6" fill="#F4F4F4"/>
<path d="M14.0697 21.6198L9.07576 16.7379C8.86061 16.5388 7 14.7616 7 12.55C7 9.81336 8.72121 8 11.6061 8C12.8606 8 14.0485 8.68793 15 9.50259C15.9485 8.68793 17.1394 8 18.3939 8C21.1727 8 23 9.70474 23 12.55C23 14.119 22.0364 15.6728 20.9364 16.7349L20.9242 16.747L15.9303 21.6198C15.6825 21.8634 15.3482 22 15 22C14.6518 22 14.3175 21.8634 14.0697 21.6198ZM10.0879 15.697L15 20.5004L19.903 15.7121C20.7303 14.8974 21.5455 13.7116 21.5455 12.55C21.5455 10.5315 20.3879 9.44828 18.3939 9.44828C16.9636 9.44828 15.5818 10.9358 15 11.5121C14.4848 10.9991 13.0606 9.44828 11.6061 9.44828C9.60909 9.44828 8.45455 10.5315 8.45455 12.55C8.45455 13.6754 9.26364 14.9306 10.0879 15.697Z" fill="#272323"/>
</g>
<defs>
<clipPath id="clip0">
<rect width="30" height="30" rx="6" fill="white"/>
</clipPath>
</defs>
</svg>
