<svg width="30" height="30" viewBox="0 0 30 30" fill="none" xmlns="http://www.w3.org/2000/svg">
<g clip-path="url(#clip0)">
<rect width="30" height="30" rx="6" fill="#F4F4F4"/>
<path d="M21.6072 15.487V22.3043C21.6072 22.687 21.2938 23 20.9108 23C20.5277 23 20.2144 22.687 20.2144 22.3043V15.487C20.2144 15.1044 20.5277 14.7913 20.9108 14.7913C21.2938 14.7913 21.6072 15.1044 21.6072 15.487ZM20.9108 8.98259C21.2938 8.98259 21.6072 8.66955 21.6072 8.28694V7.69565C21.6072 7.31304 21.2938 7 20.9108 7C20.5277 7 20.2144 7.31304 20.2144 7.69565V8.28694C20.2144 8.66955 20.5277 8.98259 20.9108 8.98259ZM11.1436 15C11.1436 16.1478 10.2035 17.087 9.07182 17.087C7.94015 17.087 7 16.1478 7 15C7 13.8522 7.94015 12.913 9.07182 12.913C10.2035 12.913 11.1436 13.8522 11.1436 15ZM9.75082 15C9.75082 14.6174 9.43743 14.3043 9.07182 14.3043C8.7062 14.3043 8.39281 14.6174 8.39281 15C8.39281 15.3826 8.7062 15.6957 9.07182 15.6957C9.43743 15.6957 9.75082 15.3826 9.75082 15ZM17.0631 18.4261C17.0631 19.5739 16.123 20.513 14.9913 20.513C13.8596 20.513 12.9195 19.5739 12.9195 18.4261C12.9195 17.2783 13.8596 16.3391 14.9913 16.3391C16.123 16.3391 17.0631 17.2609 17.0631 18.4261ZM15.6703 18.4261C15.6703 18.0435 15.3569 17.7304 14.9913 17.7304C14.6257 17.7304 14.3123 18.0435 14.3123 18.4261C14.3123 18.8087 14.6257 19.1217 14.9913 19.1217C15.3569 19.1217 15.6703 18.8087 15.6703 18.4261ZM23 11.9739C23 13.1218 22.0598 14.0609 20.9282 14.0609C19.7965 14.0609 18.8564 13.1218 18.8564 11.9739C18.8564 10.8261 19.7965 9.88697 20.9282 9.88697C22.0598 9.88697 23 10.8261 23 11.9739ZM21.6072 11.9739C21.6072 11.5913 21.2938 11.2783 20.9282 11.2783C20.5626 11.2783 20.2492 11.5913 20.2492 11.9739C20.2492 12.3565 20.5626 12.6696 20.9282 12.6696C21.2938 12.6696 21.6072 12.3739 21.6072 11.9739ZM14.9913 21.2087C14.6083 21.2087 14.2949 21.5217 14.2949 21.9043V22.3043C14.2949 22.687 14.6083 23 14.9913 23C15.3743 23 15.6877 22.687 15.6877 22.3043V21.9043C15.6877 21.5217 15.3743 21.2087 14.9913 21.2087ZM14.9913 15.4696C15.3743 15.4696 15.6877 15.1565 15.6877 14.7739V7.69565C15.6877 7.31304 15.3743 7 14.9913 7C14.6083 7 14.2949 7.31304 14.2949 7.69565V14.7739C14.2949 15.1565 14.6083 15.4696 14.9913 15.4696ZM9.07182 18.0087C8.68879 18.0087 8.37541 18.3217 8.37541 18.7044V22.3043C8.37541 22.687 8.68879 23 9.07182 23C9.45484 23 9.76823 22.687 9.76823 22.3043V18.7044C9.76823 18.3217 9.45484 18.0087 9.07182 18.0087ZM9.07182 12.0261C9.45484 12.0261 9.76823 11.713 9.76823 11.3304V7.69565C9.76823 7.31304 9.45484 7 9.07182 7C8.68879 7 8.37541 7.31304 8.37541 7.69565V11.3304C8.37541 11.713 8.68879 12.0261 9.07182 12.0261Z" fill="#272323"/>
</g>
<defs>
<clipPath id="clip0">
<rect width="30" height="30" rx="6" fill="white"/>
</clipPath>
</defs>
</svg>
