<svg width="16" height="20" viewBox="0 0 16 20" fill="none" xmlns="http://www.w3.org/2000/svg">
<path d="M7.89474 0C3.55263 0 0 3.6 0 8C0 13.4 6.90789 19.5 7.20395 19.8C7.40132 19.9 7.69737 20 7.89474 20C8.09211 20 8.38816 19.9 8.58553 19.8C8.88158 19.5 15.7895 13.4 15.7895 8C15.7895 3.6 12.2368 0 7.89474 0ZM7.89474 17.7C5.82237 15.7 1.97368 11.4 1.97368 8C1.97368 4.7 4.63816 2 7.89474 2C11.1513 2 13.8158 4.7 13.8158 8C13.8158 11.3 9.96711 15.7 7.89474 17.7ZM7.89474 4C5.72368 4 3.94737 5.8 3.94737 8C3.94737 10.2 5.72368 12 7.89474 12C10.0658 12 11.8421 10.2 11.8421 8C11.8421 5.8 10.0658 4 7.89474 4ZM7.89474 10C6.80921 10 5.92105 9.1 5.92105 8C5.92105 6.9 6.80921 6 7.89474 6C8.98026 6 9.86842 6.9 9.86842 8C9.86842 9.1 8.98026 10 7.89474 10Z" fill="#272323"/>
</svg>
