<svg width="8" height="13" viewBox="0 0 8 13" fill="none" xmlns="http://www.w3.org/2000/svg">
<path d="M6.98873 8.47783C6.27698 8.91949 5.29768 9.09463 4.65087 9.16062L5.19378 9.68351L7.17576 11.6202C7.9005 12.3462 6.72118 13.4808 5.98865 12.7802C5.4925 12.2878 4.76517 11.5771 4.00666 10.8359L2.02468 12.7777C1.29215 13.4757 0.11283 12.3309 0.845359 11.6177C1.3493 11.1252 2.06884 10.4145 2.82734 9.68097L3.36245 9.15809C2.72344 9.09209 1.72855 8.9271 1.00901 8.47529C0.162185 7.94225 -0.209275 7.63005 0.118025 6.97771C0.310249 6.60712 0.837566 6.29492 1.53633 6.83303C1.53633 6.83303 2.47926 7.56659 4.00147 7.56659C5.52367 7.56659 6.46661 6.83303 6.46661 6.83303C7.16537 6.29745 7.69009 6.60712 7.88491 6.97771C8.20702 7.63005 7.83556 7.94225 6.98873 8.47783ZM0.629756 3.29214C0.629756 1.4722 2.14417 0 3.99887 0C5.85357 0 7.36799 1.4722 7.36799 3.29214C7.36799 5.10447 5.85357 6.57666 3.99887 6.57666C2.14417 6.57666 0.629756 5.10447 0.629756 3.29214ZM2.34419 3.29214C2.34419 4.18307 3.08711 4.90902 3.99887 4.90902C4.91064 4.90902 5.65356 4.18307 5.65356 3.29214C5.65356 2.39359 4.91064 1.66764 3.99887 1.66764C3.08711 1.66764 2.34419 2.39359 2.34419 3.29214Z" fill="#656C7D"/>
</svg>
