<svg width="8" height="15" viewBox="0 0 8 15" fill="none" xmlns="http://www.w3.org/2000/svg">
<path d="M4.4375 0.0965062C5.25031 -0.0206813 6.36219 -0.097556 6.78781 0.267131C7.49188 0.869944 7.49188 4.68651 6.08375 4.68651C5.375 4.68651 4.91 4.05838 4.20594 4.66119C3.51406 5.25369 3.50281 6.31682 3.50188 7.49901C3.50094 8.68119 3.51313 9.74338 4.20594 10.3368C4.91 10.9396 5.375 10.3115 6.08375 10.3115C7.49094 10.3115 7.49094 14.1281 6.78781 14.7309C6.36219 15.0956 5.25031 15.0187 4.4375 14.9015C3.89469 14.8115 3.30969 14.5837 2.5625 13.8534C1.54063 12.7584 0.70625 11.1018 0.6875 7.55713L0.6875 7.43901C0.705313 3.89432 1.54063 2.23776 2.5625 1.14276C3.30969 0.413382 3.89469 0.184631 4.4375 0.0946312L4.4375 0.0965062Z" fill="#656C7D"/>
</svg>
