<svg width="13" height="8" viewBox="0 0 13 8" fill="none" xmlns="http://www.w3.org/2000/svg">
<path d="M12.85 3.47024C11.5774 1.3902 9.20404 0 6.5 0C3.79483 0 1.42197 1.39117 0.150007 3.47024C0.0517959 3.63076 0 3.81369 0 4.00001C0 4.18633 0.0517959 4.36926 0.150007 4.52978C1.42258 6.6098 3.79596 8 6.5 8C9.20517 8 11.578 6.60883 12.85 4.52976C12.9482 4.36924 13 4.18632 13 4C13 3.81368 12.9482 3.63076 12.85 3.47024ZM6.5 6.95652C4.80364 6.95652 3.43056 5.6342 3.43056 4C3.43056 2.36604 4.80337 1.04348 6.5 1.04348C8.19636 1.04348 9.56944 2.36578 9.56944 4C9.56944 5.63396 8.19663 6.95652 6.5 6.95652ZM8.84722 4C8.84722 5.24865 7.79634 6.26087 6.5 6.26087C5.20366 6.26087 4.15278 5.24865 4.15278 4C4.15278 3.61504 4.25279 3.25263 4.42894 2.93537L4.42892 2.93607C4.42892 3.45022 4.86164 3.867 5.39543 3.867C5.92922 3.867 6.36194 3.4502 6.36194 2.93607C6.36194 2.42191 5.92922 2.00511 5.39543 2.00511L5.39471 2.00513C5.72409 1.83546 6.10034 1.73913 6.5 1.73913C7.79634 1.73913 8.84722 2.75135 8.84722 4Z" fill="white"/>
</svg>
