<svg width="40" height="40" viewBox="0 0 40 40" fill="none" xmlns="http://www.w3.org/2000/svg">
<g clip-path="url(#clip0)">
<path d="M7.31128 13.8087C6.84128 14.3687 6.09253 14.8125 5.34503 14.7475C5.24628 13.9925 5.61878 13.1837 6.04878 12.6825C6.51753 12.1112 7.33753 11.7012 8.00253 11.6675C8.08128 12.4562 7.77378 13.2312 7.31253 13.8087H7.31128ZM7.99503 14.8962C6.90878 14.83 5.97628 15.52 5.46128 15.52C4.93503 15.52 4.14628 14.9287 3.28753 14.9487C2.17378 14.9625 1.13253 15.5987 0.56628 16.6225C-0.61247 18.6587 0.26003 21.6737 1.39253 23.3337C1.94628 24.1537 2.60878 25.0525 3.48253 25.0275C4.30878 24.9937 4.64128 24.4812 5.63753 24.4812C6.64628 24.4812 6.93253 25.0275 7.81253 25.0075C8.71628 24.9937 9.28878 24.1875 9.84253 23.3675C10.4738 22.4362 10.7338 21.5237 10.7475 21.4787C10.7338 21.4587 8.99628 20.7887 8.98378 18.77C8.97003 17.0762 10.35 16.27 10.4088 16.2237C9.63378 15.0525 8.41003 14.9287 7.99378 14.8975L7.99503 14.8962ZM14.265 12.6037V24.9225H16.1588V20.7112H18.7775C21.1663 20.7112 22.8463 19.0512 22.8463 16.655C22.8463 14.2537 21.2 12.605 18.8425 12.605L14.265 12.6037ZM16.1588 14.2187H18.34C19.98 14.2187 20.9188 15.1037 20.9188 16.66C20.9188 18.2162 19.98 19.1087 18.3275 19.1087H16.1588V14.2187ZM26.295 25.0137C27.4863 25.0137 28.5863 24.4087 29.0888 23.4437H29.1288V24.9225H30.8788V18.7887C30.8788 17.0187 29.4738 15.8675 27.305 15.8675C25.3 15.8675 23.815 17.0325 23.7638 18.6275H25.4625C25.6063 17.8662 26.2963 17.3712 27.2538 17.3712C28.4125 17.3712 29.0575 17.9175 29.0575 18.9212V19.5975L26.7013 19.7412C24.5 19.8775 23.315 20.7825 23.315 22.365C23.315 23.96 24.54 25.015 26.2963 25.015L26.295 25.0137ZM26.81 23.555C25.8 23.555 25.1563 23.0662 25.1563 22.3187C25.1563 21.5437 25.775 21.0875 26.9525 21.015L29.0563 20.885V21.5812C29.0563 22.735 28.0863 23.555 26.8025 23.555H26.81ZM33.2163 28.275C35.0575 28.275 35.925 27.5587 36.68 25.4037L40 15.99H38.08L35.8538 23.2612H35.8138L33.5875 15.99H31.6088L34.8125 24.955L34.6425 25.5012C34.3488 26.42 33.8813 26.7762 33.0475 26.7762C32.8975 26.7762 32.6113 26.7575 32.4938 26.745V28.2237C32.6038 28.255 33.0738 28.2687 33.21 28.2687L33.2163 28.275Z" fill="#E9E9E9"/>
</g>
<defs>
<clipPath id="clip0">
<rect width="40" height="40" fill="white"/>
</clipPath>
</defs>
</svg>
