<svg width="40" height="40" viewBox="0 0 40 40" fill="none" xmlns="http://www.w3.org/2000/svg">
<path d="M30.0001 30.8334C31.3834 30.8334 32.5001 29.7167 32.5001 28.3334C32.5001 26.9501 31.3834 25.8334 30.0001 25.8334C28.6167 25.8334 27.5001 26.9501 27.5001 28.3334C27.5001 29.7167 28.6167 30.8334 30.0001 30.8334ZM32.5001 15.8334H28.3334V20.0001H35.7667L32.5001 15.8334ZM10.0001 30.8334C11.3834 30.8334 12.5001 29.7167 12.5001 28.3334C12.5001 26.9501 11.3834 25.8334 10.0001 25.8334C8.61675 25.8334 7.50008 26.9501 7.50008 28.3334C7.50008 29.7167 8.61675 30.8334 10.0001 30.8334ZM33.3334 13.3334L38.3334 20.0001V28.3334H35.0001C35.0001 31.1001 32.7667 33.3334 30.0001 33.3334C27.2334 33.3334 25.0001 31.1001 25.0001 28.3334H15.0001C15.0001 31.1001 12.7667 33.3334 10.0001 33.3334C7.23341 33.3334 5.00008 31.1001 5.00008 28.3334H1.66675V10.0001C1.66675 8.15008 3.15008 6.66675 5.00008 6.66675H28.3334V13.3334H33.3334ZM5.00008 10.0001V25.0001H6.26675C7.18341 23.9834 8.51675 23.3334 10.0001 23.3334C11.4834 23.3334 12.8167 23.9834 13.7334 25.0001H25.0001V10.0001H5.00008ZM16.6667 11.6667L22.5001 17.5001L16.6667 23.3334V19.1667H8.33341V15.8334H16.6667V11.6667Z" fill="#E9E9E9"/>
</svg>
