<svg width="17" height="14" viewBox="0 0 17 14" fill="none" xmlns="http://www.w3.org/2000/svg">
<path d="M7.51155 13.6198L2.20549 8.73793C1.97689 8.53879 0 6.76164 0 4.55C0 1.81336 1.82879 0 4.89394 0C6.22689 0 7.48902 0.687931 8.5 1.50259C9.50776 0.687931 10.7731 0 12.1061 0C15.0585 0 17 1.70474 17 4.55C17 6.11896 15.9761 7.67284 14.8074 8.73491L14.7945 8.74698L9.48845 13.6198C9.22513 13.8634 8.87001 14 8.5 14C8.12999 14 7.77488 13.8634 7.51155 13.6198ZM3.28087 7.69698L8.5 12.5004L13.7095 7.71207C14.5884 6.89741 15.4545 5.71164 15.4545 4.55C15.4545 2.53146 14.2246 1.44828 12.1061 1.44828C10.5864 1.44828 9.11818 2.93577 8.5 3.51207C7.95265 2.99914 6.43939 1.44828 4.89394 1.44828C2.77216 1.44828 1.54545 2.53146 1.54545 4.55C1.54545 5.67543 2.40511 6.9306 3.28087 7.69698Z" fill="#656C7D"/>
</svg>
