<svg width="40" height="40" viewBox="0 0 40 40" fill="none" xmlns="http://www.w3.org/2000/svg">
<path d="M19.9999 3.33325C10.8099 3.33325 3.33325 10.8099 3.33325 19.9999V26.9049C3.33325 28.6116 4.82825 29.9999 6.66659 29.9999H8.33325C8.77528 29.9999 9.1992 29.8243 9.51176 29.5118C9.82432 29.1992 9.99992 28.7753 9.99992 28.3333V19.7616C9.99992 19.3196 9.82432 18.8956 9.51176 18.5831C9.1992 18.2705 8.77528 18.0949 8.33325 18.0949H6.81992C7.74659 11.6449 13.2966 6.66659 19.9999 6.66659C26.7033 6.66659 32.2533 11.6449 33.1799 18.0949H31.6666C31.2246 18.0949 30.8006 18.2705 30.4881 18.5831C30.1755 18.8956 29.9999 19.3196 29.9999 19.7616V29.9999C29.9999 31.8383 28.5049 33.3333 26.6666 33.3333H23.3333V31.6666H16.6666V36.6666H26.6666C30.3433 36.6666 33.3333 33.6766 33.3333 29.9999C35.1716 29.9999 36.6666 28.6116 36.6666 26.9049V19.9999C36.6666 10.8099 29.1899 3.33325 19.9999 3.33325Z" fill="#E9E9E9"/>
</svg>
