<svg width="14" height="14" viewBox="0 0 14 14" fill="none" xmlns="http://www.w3.org/2000/svg">
<path d="M12.7813 7.42609V13.3913C12.7813 13.7261 12.5071 14 12.1719 14C11.8368 14 11.5626 13.7261 11.5626 13.3913V7.42609C11.5626 7.09131 11.8368 6.8174 12.1719 6.8174C12.5071 6.8174 12.7813 7.09131 12.7813 7.42609ZM12.1719 1.73477C12.5071 1.73477 12.7813 1.46085 12.7813 1.12607V0.608696C12.7813 0.273913 12.5071 0 12.1719 0C11.8368 0 11.5626 0.273913 11.5626 0.608696V1.12607C11.5626 1.46085 11.8368 1.73477 12.1719 1.73477ZM3.62568 7C3.62568 8.00435 2.80305 8.82609 1.81284 8.82609C0.822633 8.82609 -3.71923e-06 8.00435 -3.71923e-06 7C-3.71923e-06 5.99565 0.822633 5.17391 1.81284 5.17391C2.80305 5.17391 3.62568 5.99565 3.62568 7ZM2.40697 7C2.40697 6.66522 2.13275 6.3913 1.81284 6.3913C1.49293 6.3913 1.21871 6.66522 1.21871 7C1.21871 7.33478 1.49293 7.6087 1.81284 7.6087C2.13275 7.6087 2.40697 7.33478 2.40697 7ZM8.80523 9.99782C8.80523 11.0022 7.98259 11.8239 6.99238 11.8239C6.00218 11.8239 5.17954 11.0022 5.17954 9.99782C5.17954 8.99347 6.00218 8.17173 6.99238 8.17173C7.98259 8.17173 8.80523 8.97825 8.80523 9.99782ZM7.58651 9.99782C7.58651 9.66304 7.3123 9.38912 6.99238 9.38912C6.67247 9.38912 6.39826 9.66304 6.39826 9.99782C6.39826 10.3326 6.67247 10.6065 6.99238 10.6065C7.3123 10.6065 7.58651 10.3326 7.58651 9.99782ZM14 4.35219C14 5.35654 13.1774 6.17828 12.1872 6.17828C11.1969 6.17828 10.3743 5.35654 10.3743 4.35219C10.3743 3.34784 11.1969 2.5261 12.1872 2.5261C13.1774 2.5261 14 3.34784 14 4.35219ZM12.7813 4.35219C12.7813 4.01741 12.5071 3.74349 12.1872 3.74349C11.8672 3.74349 11.593 4.01741 11.593 4.35219C11.593 4.68697 11.8672 4.96088 12.1872 4.96088C12.5071 4.96088 12.7813 4.70219 12.7813 4.35219ZM6.99238 12.4326C6.65724 12.4326 6.38303 12.7065 6.38303 13.0413V13.3913C6.38303 13.7261 6.65724 14 6.99238 14C7.32753 14 7.60174 13.7261 7.60174 13.3913V13.0413C7.60174 12.7065 7.32753 12.4326 6.99238 12.4326ZM6.99238 7.41086C7.32753 7.41086 7.60174 7.13695 7.60174 6.80217V0.608696C7.60174 0.273913 7.32753 0 6.99238 0C6.65724 0 6.38303 0.273913 6.38303 0.608696V6.80217C6.38303 7.13695 6.65724 7.41086 6.99238 7.41086ZM1.81284 9.63262C1.47769 9.63262 1.20348 9.90653 1.20348 10.2413V13.3913C1.20348 13.7261 1.47769 14 1.81284 14C2.14799 14 2.4222 13.7261 2.4222 13.3913V10.2413C2.4222 9.90653 2.14799 9.63262 1.81284 9.63262ZM1.81284 4.39781C2.14799 4.39781 2.4222 4.1239 2.4222 3.78912V0.608696C2.4222 0.273913 2.14799 0 1.81284 0C1.47769 0 1.20348 0.273913 1.20348 0.608696V3.78912C1.20348 4.1239 1.47769 4.39781 1.81284 4.39781Z" fill="#656C7D"/>
</svg>
