<svg width="6" height="5" viewBox="0 0 6 5" fill="none" xmlns="http://www.w3.org/2000/svg">
<path fill-rule="evenodd" clip-rule="evenodd" d="M4.85626 0.606303C4.94373 0.519598 5.0618 0.470801 5.18496 0.470461C5.30812 0.470121 5.42647 0.518266 5.51442 0.604487C5.60236 0.690708 5.65284 0.808078 5.65494 0.931221C5.65704 1.05436 5.61059 1.17338 5.52563 1.26255L3.03063 4.3813C2.98775 4.42749 2.936 4.46455 2.87846 4.49028C2.82093 4.51601 2.7588 4.52987 2.69579 4.53104C2.63278 4.5322 2.57018 4.52065 2.51173 4.49707C2.45328 4.47349 2.40019 4.43837 2.35563 4.3938L0.702507 2.74005C0.656453 2.69714 0.619514 2.64539 0.593894 2.58789C0.568274 2.53039 0.554498 2.46832 0.553387 2.40538C0.552277 2.34244 0.563855 2.27992 0.58743 2.22155C0.611006 2.16319 0.646096 2.11017 0.690608 2.06565C0.73512 2.02114 0.788141 1.98605 0.846509 1.96248C0.904876 1.9389 0.967394 1.92732 1.03033 1.92843C1.09327 1.92954 1.15534 1.94332 1.21284 1.96894C1.27034 1.99456 1.32209 2.0315 1.36501 2.07755L2.67376 3.38568L4.84438 0.620053C4.84826 0.615212 4.85243 0.610619 4.85688 0.606303H4.85626Z" fill="#27AE60"/>
</svg>
