<svg width="360" height="199" viewBox="0 0 360 199" fill="none" xmlns="http://www.w3.org/2000/svg">
<g clip-path="url(#clip0)">
<rect width="360" height="199" fill="white"/>
<g opacity="0.1" filter="url(#filter0_f)">
<path d="M256.191 62.0368C249.725 45.4193 238.018 31.3624 222.845 21.9962C207.672 12.63 189.859 8.46496 172.106 10.1322C154.353 11.7994 137.627 19.208 124.463 31.2353C111.299 43.2627 102.414 59.2533 99.1545 76.7841C95.8951 94.3149 98.4389 112.43 106.4 128.385C114.362 144.341 127.307 157.266 143.275 165.202C159.242 173.139 177.362 175.655 194.888 172.368C212.413 169.081 228.39 160.171 240.397 146.988L237.349 144.212C225.945 156.732 210.772 165.194 194.128 168.316C177.483 171.437 160.275 169.048 145.11 161.51C129.945 153.973 117.651 141.698 110.09 126.545C102.528 111.392 100.113 94.1871 103.208 77.5377C106.304 60.8884 114.742 45.7018 127.244 34.2792C139.746 22.8566 155.631 15.8205 172.492 14.2371C189.352 12.6537 206.269 16.6094 220.679 25.5046C235.09 34.3999 246.208 47.75 252.349 63.5319L256.191 62.0368Z" fill="#C4C4C4"/>
<path d="M159.388 29.0001C148.233 32.6226 138.245 39.1521 130.452 47.9166C122.658 56.6811 117.341 67.3641 115.047 78.8659C112.754 90.3678 113.567 102.273 117.402 113.357C121.237 124.44 127.957 134.301 136.869 141.925C145.781 149.55 156.564 154.661 168.108 156.734C179.652 158.807 191.539 157.766 202.547 153.719C213.555 149.672 223.286 142.765 230.738 133.709C238.19 124.652 243.094 113.773 244.946 102.192L241.669 101.668C239.91 112.667 235.253 122.999 228.175 131.6C221.098 140.201 211.857 146.761 201.402 150.605C190.948 154.448 179.658 155.436 168.694 153.468C157.731 151.499 147.491 146.644 139.026 139.404C130.562 132.163 124.181 122.798 120.538 112.271C116.895 101.745 116.124 90.4385 118.302 79.5149C120.48 68.5914 125.53 58.4456 132.932 50.1217C140.333 41.7979 149.819 35.5967 160.413 32.1563L159.388 29.0001Z" fill="#C4C4C4"/>
<path d="M150.647 123.216C156.412 128.693 163.588 132.456 171.371 134.086C179.154 135.716 187.238 135.148 194.716 132.445C202.195 129.741 208.773 125.01 213.715 118.781C218.658 112.551 221.769 105.069 222.7 97.1718C223.632 89.2746 222.347 81.2739 218.99 74.0654C215.632 66.8569 210.335 60.725 203.691 56.3561C197.046 51.9872 189.317 49.5537 181.369 49.328C173.42 49.1023 165.565 51.0933 158.684 55.0781L160.844 58.8083C167.033 55.2244 174.097 53.4337 181.246 53.6367C188.395 53.8397 195.347 56.0284 201.322 59.9578C207.298 63.8871 212.063 69.402 215.082 75.8853C218.102 82.3685 219.257 89.5642 218.419 96.6669C217.582 103.77 214.784 110.499 210.339 116.102C205.893 121.705 199.977 125.96 193.251 128.391C186.525 130.822 179.255 131.333 172.255 129.867C165.255 128.401 158.801 125.016 153.615 120.091L150.647 123.216Z" fill="#C4C4C4"/>
</g>
<path d="M317.292 70L315.946 78.1627C315.867 78.6457 315.449 79 314.96 79H303.043C302.554 79 302.136 78.6457 302.056 78.1627L300.849 70.8373C300.769 70.3543 300.351 70 299.862 70H298" stroke="#EBEBEB" stroke-linecap="round" stroke-linejoin="round"/>
<path fill-rule="evenodd" clip-rule="evenodd" d="M304 84C304.552 84 305 83.5523 305 83C305 82.4477 304.552 82 304 82C303.448 82 303 82.4477 303 83C303 83.5523 303.448 84 304 84Z" stroke="#EBEBEB"/>
<path fill-rule="evenodd" clip-rule="evenodd" d="M314 84C314.552 84 315 83.5523 315 83C315 82.4477 314.552 82 314 82C313.448 82 313 82.4477 313 83C313 83.5523 313.448 84 314 84Z" stroke="#EBEBEB"/>
<path d="M312 72H306" stroke="#EBEBEB" stroke-linecap="round"/>
<path d="M309 69V75" stroke="#EBEBEB" stroke-linecap="round"/>
<path d="M59 154V157" stroke="#EBEBEB" stroke-linecap="round"/>
<path d="M59 175V178" stroke="#EBEBEB" stroke-linecap="round"/>
<path d="M64.25 160C64.25 160 63.5 157 59 157C54.5 157 53.75 159.935 53.75 161.5C53.75 167.71 64.25 164.447 64.25 170.5C64.25 172.065 63.5 175 59 175C54.5 175 53.75 172 53.75 172" stroke="#EBEBEB" stroke-linecap="round"/>
<rect x="288" y="169" width="20" height="14" rx="2" stroke="#EBEBEB" stroke-linecap="round" stroke-linejoin="round"/>
<path d="M288 178H308" stroke="#EBEBEB" stroke-linecap="round"/>
<path fill-rule="evenodd" clip-rule="evenodd" d="M57 69L51 63L57 69Z" stroke="#EBEBEB" stroke-linecap="round" stroke-linejoin="round"/>
<path d="M41 69L47 63" stroke="#EBEBEB" stroke-linecap="round" stroke-linejoin="round"/>
<path fill-rule="evenodd" clip-rule="evenodd" d="M40.8128 69H57.1877L55.6282 78H42.3723L40.8128 69Z" stroke="#EBEBEB" stroke-linecap="round" stroke-linejoin="round"/>
<path d="M173.625 79.2749C173.876 79.5458 174.071 79.8634 174.2 80.2098C174.328 80.5561 174.387 80.9244 174.373 81.2935C174.359 81.6626 174.273 82.0254 174.119 82.3611C173.965 82.6968 173.746 82.9988 173.475 83.2499L162.57 93.3749L173.475 103.5C173.746 103.751 173.964 104.053 174.119 104.389C174.273 104.724 174.359 105.087 174.373 105.456C174.387 105.825 174.328 106.194 174.2 106.54C174.071 106.886 173.876 107.204 173.625 107.475C173.374 107.746 173.072 107.965 172.736 108.119C172.4 108.273 172.038 108.359 171.668 108.373C171.299 108.387 170.931 108.328 170.585 108.2C170.238 108.071 169.921 107.876 169.65 107.625L156.525 95.4374C156.241 95.1741 156.014 94.8551 155.859 94.5002C155.704 94.1452 155.625 93.7622 155.625 93.3749C155.625 92.9877 155.704 92.6046 155.859 92.2497C156.014 91.8948 156.241 91.5757 156.525 91.3124L169.65 79.1249C169.921 78.8737 170.238 78.6784 170.585 78.55C170.931 78.4216 171.299 78.3626 171.668 78.3766C172.038 78.3905 172.4 78.477 172.736 78.6311C173.072 78.7853 173.374 79.004 173.625 79.2749ZM186.525 83.2499C185.978 82.7427 185.655 82.0389 185.627 81.2935C185.598 80.548 185.868 79.8219 186.375 79.2749C186.882 78.7279 187.586 78.4048 188.331 78.3767C189.077 78.3485 189.803 78.6177 190.35 79.1249L203.475 91.3124C203.759 91.5757 203.985 91.8948 204.14 92.2497C204.295 92.6046 204.375 92.9877 204.375 93.3749C204.375 93.7622 204.295 94.1452 204.14 94.5002C203.985 94.8551 203.759 95.1741 203.475 95.4374L190.35 107.625C189.803 108.132 189.077 108.401 188.331 108.373C187.586 108.345 186.882 108.022 186.375 107.475C185.868 106.928 185.598 106.202 185.627 105.456C185.655 104.711 185.978 104.007 186.525 103.5L197.43 93.3749L186.525 83.2499Z" fill="#656C7D"/>
<path fill-rule="evenodd" clip-rule="evenodd" d="M140.625 69.9374C140.625 66.3149 143.565 63.3749 147.188 63.3749H212.812C216.435 63.3749 219.375 66.3149 219.375 69.9374V116.812C219.375 118.553 218.684 120.222 217.453 121.453C216.222 122.684 214.553 123.375 212.812 123.375H176.475L163.076 136.774C162.312 137.537 161.339 138.057 160.279 138.268C159.22 138.479 158.121 138.371 157.123 137.957C156.125 137.544 155.272 136.844 154.671 135.946C154.071 135.048 153.75 133.992 153.75 132.911V123.375H147.188C145.447 123.375 143.778 122.684 142.547 121.453C141.316 120.222 140.625 118.553 140.625 116.812V69.9374ZM147.188 68.9999C146.939 68.9999 146.7 69.0987 146.525 69.2745C146.349 69.4503 146.25 69.6888 146.25 69.9374V116.812C146.25 117.33 146.67 117.75 147.188 117.75H156.562C157.308 117.75 158.024 118.046 158.551 118.574C159.079 119.101 159.375 119.817 159.375 120.562V132.525L173.325 118.575C173.852 118.047 174.567 117.751 175.312 117.75H212.812C213.061 117.75 213.3 117.651 213.475 117.475C213.651 117.3 213.75 117.061 213.75 116.812V69.9374C213.75 69.6888 213.651 69.4503 213.475 69.2745C213.3 69.0987 213.061 68.9999 212.812 68.9999H147.188Z" fill="#656C7D"/>
</g>
<defs>
<filter id="filter0_f" x="95" y="8.77289" width="165.295" height="167.773" filterUnits="userSpaceOnUse" color-interpolation-filters="sRGB">
<feFlood flood-opacity="0" result="BackgroundImageFix"/>
<feBlend mode="normal" in="SourceGraphic" in2="BackgroundImageFix" result="shape"/>
<feGaussianBlur stdDeviation="0.5" result="effect1_foregroundBlur"/>
</filter>
<clipPath id="clip0">
<rect width="360" height="199" fill="white"/>
</clipPath>
</defs>
</svg>
