<svg viewBox="0 0 70 70" xmlns="http://www.w3.org/2000/svg" xmlns:xlink="http://www.w3.org/1999/xlink"><style>:root&gt;svg{display:none}:root&gt;svg:target{display:block}</style><svg fill="none" viewBox="0 0 40 40" id="include--account-icon-001" xmlns="http://www.w3.org/2000/svg"><circle cx="20" cy="20" r="20" fill="#BB6BD9"/><path d="M25.833 13.333H25v-1.666h-1.667v1.666h-6.666v-1.666H15v1.666h-.833A1.667 1.667 0 0012.5 15v11.667a1.666 1.666 0 001.667 1.666h11.666a1.666 1.666 0 001.667-1.666V15a1.667 1.667 0 00-1.667-1.667zm0 13.334H14.167v-8.334h11.666v8.334zm0-10H14.167V15h11.666v1.667zM20 19.167c1.667 0 2.5 2.016 1.325 3.2-1.183 1.183-3.2.341-3.2-1.325 0-1.042.833-1.875 1.875-1.875zm3.75 6.566v.1h-7.5v-.1c0-1.041 1.667-1.875 3.75-1.875s3.75.834 3.75 1.875z" fill="#FDFDFD"/></svg><svg fill="none" viewBox="0 0 40 40" id="include--account-icon-002" xmlns="http://www.w3.org/2000/svg"><circle cx="20" cy="20" r="20" fill="#6FCF97"/><path d="M25 16.667h1.667a.833.833 0 01.833.833v10a.833.833 0 01-.833.833H13.333a.833.833 0 01-.833-.833v-10a.833.833 0 01.833-.833H15v-.834a5 5 0 0110 0v.834zm-10.833 1.666v8.334h11.666v-8.334H14.167zm5 3.334h1.666v1.666h-1.666v-1.666zm-3.334 0H17.5v1.666h-1.667v-1.666zm6.667 0h1.667v1.666H22.5v-1.666zm.833-5v-.834a3.333 3.333 0 10-6.666 0v.834h6.666z" fill="#FDFDFD"/></svg><svg fill="none" viewBox="0 0 40 40" id="include--account-icon-003" xmlns="http://www.w3.org/2000/svg"><circle cx="20" cy="20" r="20" fill="#F2994A"/><path d="M25 25.417c.692 0 1.25-.559 1.25-1.25 0-.692-.558-1.25-1.25-1.25s-1.25.558-1.25 1.25c0 .691.558 1.25 1.25 1.25zm1.25-7.5h-2.083V20h3.716l-1.633-2.083zM15 25.417c.692 0 1.25-.559 1.25-1.25 0-.692-.558-1.25-1.25-1.25s-1.25.558-1.25 1.25c0 .691.558 1.25 1.25 1.25zm11.667-8.75l2.5 3.333v4.167H27.5c0 1.383-1.117 2.5-2.5 2.5a2.497 2.497 0 01-2.5-2.5h-5c0 1.383-1.117 2.5-2.5 2.5a2.497 2.497 0 01-2.5-2.5h-1.667V15a1.66 1.66 0 011.667-1.667h11.667v3.334h2.5zM12.5 15v7.5h.633a2.51 2.51 0 013.734 0H22.5V15h-10zm5.833.833l2.917 2.917-2.917 2.917v-2.084h-4.166v-1.666h4.166v-2.084z" fill="#FDFDFD"/></svg><svg fill="none" viewBox="0 0 40 40" id="include--account-icon-004" xmlns="http://www.w3.org/2000/svg"><circle cx="20" cy="20" r="20" fill="#EB5757"/><path d="M28.027 15.54a5.078 5.078 0 00-1.111-1.618 5.182 5.182 0 00-3.64-1.48A5.217 5.217 0 0020 13.595a5.217 5.217 0 00-3.275-1.154 5.182 5.182 0 00-3.641 1.48 5.046 5.046 0 00-1.521 3.607c0 .65.132 1.328.396 2.018a9 9 0 00.941 1.777c.641.955 1.522 1.951 2.616 2.961a29.234 29.234 0 003.683 2.877l.463.297c.205.13.469.13.674 0l.463-.297a29.601 29.601 0 003.683-2.877c1.094-1.01 1.975-2.006 2.616-2.96a8.934 8.934 0 00.941-1.778c.264-.69.396-1.367.396-2.018a4.971 4.971 0 00-.408-1.99zM20 25.913s-6.953-4.455-6.953-8.385c0-1.99 1.646-3.603 3.678-3.603 1.427 0 2.666.797 3.275 1.96a3.688 3.688 0 013.275-1.96c2.032 0 3.678 1.613 3.678 3.603 0 3.93-6.953 8.385-6.953 8.385z" fill="#FDFDFD"/></svg><svg fill="none" viewBox="0 0 40 40" id="include--account-icon-005" xmlns="http://www.w3.org/2000/svg"><circle cx="20" cy="20" r="20" fill="#656C7D"/><path d="M13.333 13.333h13.334c.916 0 1.666.75 1.666 1.667v10c0 .917-.75 1.667-1.666 1.667H13.333c-.916 0-1.666-.75-1.666-1.667V15c0-.917.75-1.667 1.666-1.667z" stroke="#FDFDFD" stroke-width="1.667" stroke-linecap="round" stroke-linejoin="round"/><path d="M28.333 15L20 20.833 11.667 15" stroke="#FDFDFD" stroke-width="1.667" stroke-linecap="round" stroke-linejoin="round"/></svg><svg fill="none" viewBox="0 0 40 40" id="include--account-icon-006" xmlns="http://www.w3.org/2000/svg"><circle cx="20" cy="20" r="20" fill="#27AE60"/><path fill-rule="evenodd" clip-rule="evenodd" d="M24.192 17.058a.625.625 0 010 .884l-3.75 3.75a.625.625 0 01-.884 0l-1.875-1.875a.627.627 0 01.884-.884L20 20.366l3.308-3.308a.625.625 0 01.884 0z" fill="#FDFDFD"/><path fill-rule="evenodd" clip-rule="evenodd" d="M10 11.875a.624.624 0 01.625-.625H12.5a.625.625 0 01.606.474l.507 2.026h14.512a.626.626 0 01.614.74l-1.875 10a.626.626 0 01-.614.51H15a.625.625 0 01-.614-.51l-1.873-9.981-.5-2.009h-1.388a.624.624 0 01-.625-.625zM13.877 15l1.642 8.75H25.73L27.372 15H13.877zm2.373 10a2.5 2.5 0 100 5 2.5 2.5 0 000-5zM25 25a2.5 2.5 0 100 5 2.5 2.5 0 000-5zm-8.75 1.25a1.25 1.25 0 100 2.5 1.25 1.25 0 000-2.5zm8.75 0a1.25 1.25 0 100 2.5 1.25 1.25 0 000-2.5z" fill="#FDFDFD"/></svg><svg fill="none" viewBox="0 0 40 40" id="include--account-icon-007" xmlns="http://www.w3.org/2000/svg"><circle cx="20" cy="20" r="20" fill="#2F80ED"/><path d="M27.926 16.974a17.739 17.739 0 00-1.702-1.948 17.751 17.751 0 00-1.948-1.702c-1.007-.739-1.496-.824-1.776-.824h-7.188c-.86 0-1.562.701-1.562 1.563v14.374c0 .862.701 1.563 1.563 1.563h11.874c.862 0 1.563-.701 1.563-1.563V18.75c0-.28-.085-.769-.824-1.776zM25.34 15.91c.6.6 1.07 1.14 1.417 1.589H23.75v-3.006c.449.347.99.817 1.588 1.417h.002zm2.16 12.528c0 .17-.142.312-.313.312H15.313a.316.316 0 01-.312-.313V14.063c0-.168.143-.312.313-.312H22.5v4.375a.624.624 0 00.625.625H27.5v9.688z" fill="#FDFDFD"/><path d="M21.776 10.824C20.77 10.085 20.28 10 20 10h-7.188c-.86 0-1.562.701-1.562 1.563v14.374c0 .755.537 1.387 1.25 1.532V11.562c0-.168.144-.312.313-.312h9.508a13.14 13.14 0 00-.546-.426h.001z" fill="#FDFDFD"/></svg><svg fill="none" viewBox="0 0 40 40" id="include--account-icon-008" xmlns="http://www.w3.org/2000/svg"><circle cx="20" cy="20" r="20" fill="#BB6BD9"/><path d="M23.889 16.667v-1.64a3.89 3.89 0 00-7.778 0v3.89a.555.555 0 101.111 0v-1.14h4.445v-1.11h-4.445v-1.64a2.778 2.778 0 015.556 0v3.862a.555.555 0 101.11 0v-1.111h2.779v10H13.333v-10H15v-1.111h-2.778v11.16a1.061 1.061 0 001.061 1.062h13.434a1.061 1.061 0 001.06-1.061V16.667H23.89z" fill="#FDFDFD"/></svg><svg fill="none" viewBox="0 0 40 40" id="include--account-icon-009" xmlns="http://www.w3.org/2000/svg"><circle cx="20" cy="20" r="20" fill="#0A78BF"/><path d="M25.833 15.833v3.334H14.858l2.984-2.992L16.667 15l-5 5 5 5 1.175-1.175-2.984-2.992H27.5v-5h-1.667z" fill="#FDFDFD"/></svg><svg fill="none" viewBox="0 0 40 40" id="include--account-icon-010" xmlns="http://www.w3.org/2000/svg"><circle cx="20" cy="20" r="20" fill="#656C7D"/><path d="M19.833 19.083c-1.891-.491-2.5-1-2.5-1.791 0-.909.842-1.542 2.25-1.542 1.184 0 1.775.45 1.992 1.167.1.333.375.583.725.583h.25a.79.79 0 00.75-1.058c-.35-.984-1.167-1.8-2.467-2.117v-.575c0-.692-.558-1.25-1.25-1.25-.691 0-1.25.558-1.25 1.25v.55c-1.616.35-2.916 1.4-2.916 3.008 0 1.925 1.591 2.884 3.916 3.442 2.084.5 2.5 1.233 2.5 2.008 0 .575-.408 1.492-2.25 1.492-1.375 0-2.083-.492-2.358-1.192-.125-.325-.408-.558-.75-.558h-.233a.795.795 0 00-.742 1.083c.475 1.159 1.583 1.842 2.833 2.109v.558c0 .692.559 1.25 1.25 1.25.692 0 1.25-.558 1.25-1.25v-.542c1.625-.308 2.917-1.25 2.917-2.958 0-2.367-2.025-3.175-3.917-3.667z" fill="#FDFDFD"/></svg><svg fill="none" viewBox="0 0 40 40" id="include--account-icon-011" xmlns="http://www.w3.org/2000/svg"><circle cx="20" cy="20" r="20" fill="#EB5757"/><path d="M27.778 18.333h-.556V15a.555.555 0 00-.555-.556H13.333a.555.555 0 01-.555-.455v-.2a.555.555 0 01.555-.456h13.1a.556.556 0 100-1.11h-13.1a1.667 1.667 0 00-1.666 1.666 1.71 1.71 0 000 .2v11.428a2.276 2.276 0 002.294 2.26h12.706a.556.556 0 00.555-.555V23.89h.556a.555.555 0 00.555-.556V18.89a.555.555 0 00-.555-.556zm-1.667 8.334h-12.15a1.172 1.172 0 01-1.183-1.15V15.489c.18.052.368.075.555.067h12.778v2.777h-3.889a2.778 2.778 0 000 5.556h3.89v2.778zm1.111-3.89h-5a1.667 1.667 0 010-3.333h5v3.334z" fill="#FDFDFD"/><path d="M22.783 21.944a.833.833 0 100-1.666.833.833 0 000 1.666z" fill="#FDFDFD"/></svg><svg fill="none" viewBox="0 0 40 40" id="include--account-icon-012" xmlns="http://www.w3.org/2000/svg"><circle cx="20" cy="20" r="20" fill="#BB6BD9"/><g clip-path="url(#alclip0)" fill="#FDFDFD"><path fill-rule="evenodd" clip-rule="evenodd" d="M27.5 13.75h-15A1.25 1.25 0 0011.25 15v10a1.25 1.25 0 001.25 1.25h15A1.25 1.25 0 0028.75 25V15a1.25 1.25 0 00-1.25-1.25zm-15-1.25A2.5 2.5 0 0010 15v10a2.5 2.5 0 002.5 2.5h15A2.5 2.5 0 0030 25V15a2.5 2.5 0 00-2.5-2.5h-15z"/><path d="M15 21.25h-1.25c-.69 0-1.25.56-1.25 1.25v1.25c0 .69.56 1.25 1.25 1.25H15c.69 0 1.25-.56 1.25-1.25V22.5c0-.69-.56-1.25-1.25-1.25zm-3.75-5h17.5v2.5h-17.5v-2.5z"/></g><defs><clipPath id="alclip0"><path fill="#fff" transform="translate(10 10)" d="M0 0h20v20H0z"/></clipPath></defs></svg><svg fill="none" viewBox="0 0 40 40" id="include--account-icon-013" xmlns="http://www.w3.org/2000/svg"><circle cx="20" cy="20" r="20" fill="#333"/><path d="M22.5 16.875v-1.563a1.563 1.563 0 00-1.563-1.562h-7.5a1.563 1.563 0 00-1.562 1.563v9.374a1.563 1.563 0 001.563 1.563h7.5a1.563 1.563 0 001.562-1.563v-1.562m2.5-6.25L28.125 20 25 23.125M17.46 20h10.665" stroke="#FDFDFD" stroke-width="1.25" stroke-linecap="round" stroke-linejoin="round"/></svg><svg fill="none" viewBox="0 0 40 40" id="include--account-icon-014" xmlns="http://www.w3.org/2000/svg"><circle cx="20" cy="20" r="20" fill="#656C7D"/><path d="M26.167 16.117l-2.284-2.284a1.667 1.667 0 00-2.216-.058l-7.5 7.5c-.27.272-.437.628-.475 1.008l-.359 3.475a.832.832 0 00.834.909h.075l3.475-.317a1.67 1.67 0 001.008-.475l7.5-7.5a1.6 1.6 0 00-.058-2.258zm-8.6 8.566l-2.5.234.225-2.5L20 17.767l2.25 2.25-4.683 4.666zm5.766-5.783L21.1 16.667 22.725 15 25 17.275 23.333 18.9z" fill="#fff"/></svg><svg fill="none" viewBox="0 0 14 16" id="include--blog-categories-date" xmlns="http://www.w3.org/2000/svg"><path d="M13.625 5.043H.375A.375.375 0 010 4.669V3.55c0-.825.672-1.494 1.5-1.494H3V.436c0-.205.169-.373.375-.373h1.25C4.831.063 5 .23 5 .435v1.619h4V.436c0-.205.169-.373.375-.373h1.25c.206 0 .375.168.375.373v1.619h1.5c.828 0 1.5.669 1.5 1.494v1.12a.375.375 0 01-.375.374zm-13.25.996h13.25c.206 0 .375.168.375.374v8.093C14 15.33 13.328 16 12.5 16h-11C.672 16 0 15.33 0 14.506V6.413c0-.206.169-.374.375-.374zM4 12.39a.375.375 0 00-.375-.373h-1.25A.375.375 0 002 12.39v1.245c0 .206.169.374.375.374h1.25A.375.375 0 004 13.634V12.39zm0-3.984a.375.375 0 00-.375-.374h-1.25A.375.375 0 002 8.405V9.65c0 .205.169.373.375.373h1.25A.375.375 0 004 9.65V8.405zm4 3.984a.375.375 0 00-.375-.373h-1.25A.375.375 0 006 12.39v1.245c0 .206.169.374.375.374h1.25A.375.375 0 008 13.634V12.39zm0-3.984a.375.375 0 00-.375-.374h-1.25A.375.375 0 006 8.405V9.65c0 .205.169.373.375.373h1.25A.375.375 0 008 9.65V8.405zm4 3.984a.375.375 0 00-.375-.373h-1.25a.375.375 0 00-.375.373v1.245c0 .206.169.374.375.374h1.25a.375.375 0 00.375-.374V12.39zm0-3.984a.375.375 0 00-.375-.374h-1.25a.375.375 0 00-.375.374V9.65c0 .205.169.373.375.373h1.25A.375.375 0 0012 9.65V8.405z" fill="#E9E9E9"/></svg><svg fill="none" viewBox="0 0 18 13" id="include--blog-categories-views" xmlns="http://www.w3.org/2000/svg"><path d="M17.792 5.752C16.03 2.424 12.744.2 9 .2 5.254.2 1.969 2.426.208 5.752a1.821 1.821 0 000 1.695C1.97 10.775 5.256 13 9 13c3.746 0 7.031-2.226 8.792-5.553.136-.257.208-.55.208-.847 0-.298-.072-.591-.208-.848zM9 11.33c-2.349 0-4.25-2.116-4.25-4.73 0-2.615 1.9-4.73 4.25-4.73 2.349 0 4.25 2.115 4.25 4.73 0 2.614-1.9 4.73-4.25 4.73zm3.25-4.73c0 1.998-1.455 3.617-3.25 3.617S5.75 8.597 5.75 6.6c0-.616.138-1.196.382-1.704v.001c0 .823.6 1.49 1.339 1.49s1.338-.667 1.338-1.49c0-.822-.6-1.49-1.338-1.49H7.47A2.978 2.978 0 019 2.983c1.795 0 3.25 1.62 3.25 3.618z" fill="#F4F4F4"/></svg><svg fill="none" viewBox="0 0 18 14" id="include--blog-post-comments" xmlns="http://www.w3.org/2000/svg"><path d="M18 6.5c0 3.595-4.03 6.5-9 6.5-1.508 0-2.933-.268-4.183-.743-1.26.975-2.806 1.572-4.45 1.74a.336.336 0 01-.36-.24c-.04-.156.085-.253.207-.369.603-.575 1.334-1.025 1.622-2.956C.686 9.342.002 7.979.002 6.5.002 2.91 4.032 0 9 0c4.969 0 9 2.91 9 6.5z" fill="#E9E9E9"/></svg><svg fill="none" viewBox="0 0 16 16" id="include--blog-post-date" xmlns="http://www.w3.org/2000/svg"><path d="M5.286 9H3.857c-.236 0-.428-.169-.428-.375v-1.25c0-.206.192-.375.428-.375h1.429c.235 0 .428.169.428.375v1.25c0 .206-.193.375-.428.375zm3.857-.375v-1.25c0-.206-.193-.375-.429-.375H7.286c-.236 0-.429.169-.429.375v1.25c0 .206.193.375.429.375h1.428c.236 0 .429-.169.429-.375zm3.428 0v-1.25c0-.206-.192-.375-.428-.375h-1.429c-.235 0-.428.169-.428.375v1.25c0 .206.193.375.428.375h1.429c.236 0 .428-.169.428-.375zm-3.428 3v-1.25c0-.206-.193-.375-.429-.375H7.286c-.236 0-.429.169-.429.375v1.25c0 .206.193.375.429.375h1.428c.236 0 .429-.169.429-.375zm-3.429 0v-1.25c0-.206-.193-.375-.428-.375H3.857c-.236 0-.428.169-.428.375v1.25c0 .206.192.375.428.375h1.429c.235 0 .428-.169.428-.375zm6.857 0v-1.25c0-.206-.192-.375-.428-.375h-1.429c-.235 0-.428.169-.428.375v1.25c0 .206.193.375.428.375h1.429c.236 0 .428-.169.428-.375zM16 3.5v11c0 .828-.768 1.5-1.714 1.5H1.714C.768 16 0 15.328 0 14.5v-11C0 2.672.768 2 1.714 2H3.43V.375c0-.206.192-.375.428-.375h1.429c.235 0 .428.169.428.375V2h4.572V.375c0-.206.193-.375.428-.375h1.429c.236 0 .428.169.428.375V2h1.715C15.232 2 16 2.672 16 3.5zm-1.714 10.813V5H1.714v9.313c0 .103.097.187.215.187H14.07c.118 0 .215-.084.215-.188z" fill="#E9E9E9"/></svg><svg fill="none" viewBox="0 0 18 12" id="include--blog-post-views" xmlns="http://www.w3.org/2000/svg"><path d="M17.792 5.205C16.03 2.085 12.744 0 9 0 5.254 0 1.969 2.087.208 5.205a1.617 1.617 0 000 1.59C1.97 9.915 5.256 12 9 12c3.746 0 7.031-2.087 8.792-5.205a1.617 1.617 0 000-1.59zM9 10.435C6.651 10.435 4.75 8.45 4.75 6c0-2.45 1.9-4.435 4.25-4.435 2.349 0 4.25 1.984 4.25 4.435 0 2.45-1.9 4.435-4.25 4.435zM12.25 6c0 1.873-1.455 3.391-3.25 3.391S5.75 7.873 5.75 6c0-.577.138-1.121.382-1.597v.001c0 .771.6 1.397 1.339 1.397s1.338-.626 1.338-1.397-.6-1.396-1.338-1.396H7.47a3.129 3.129 0 011.53-.4c1.795 0 3.25 1.519 3.25 3.392z" fill="#E9E9E9"/></svg><svg fill="none" viewBox="0 0 20 20" id="include--blog-search-icon" xmlns="http://www.w3.org/2000/svg"><path d="M19.319 18.027l-6.087-6.086a6.968 6.968 0 001.456-4.285c0-1.88-.734-3.642-2.06-4.97A6.98 6.98 0 007.655.624a6.99 6.99 0 00-4.97 2.06A6.975 6.975 0 00.624 7.656c0 1.878.734 3.645 2.06 4.971a6.975 6.975 0 004.971 2.06 6.97 6.97 0 004.282-1.453l6.087 6.085a.19.19 0 00.136.056.191.191 0 00.136-.056l1.022-1.02a.19.19 0 00.041-.21.191.191 0 00-.041-.062zm-7.95-6.658a5.222 5.222 0 01-3.713 1.537 5.222 5.222 0 01-3.712-1.537 5.222 5.222 0 01-1.538-3.713c0-1.401.546-2.72 1.538-3.712a5.222 5.222 0 013.712-1.538c1.402 0 2.721.544 3.713 1.538a5.222 5.222 0 011.537 3.712 5.218 5.218 0 01-1.537 3.713z" fill="#656C7D"/></svg><svg viewBox="0 0 11 9" fill="none" id="include--breadcrumbs-home" xmlns="http://www.w3.org/2000/svg"><path d="M9.32 5.636v2.881A.47.47 0 018.86 9H6.646a.236.236 0 01-.229-.241V6.507a.236.236 0 00-.229-.241H4.812a.236.236 0 00-.23.241v2.252A.236.236 0 014.354 9H2.138a.47.47 0 01-.458-.483v-2.88c0-.073.03-.141.084-.188l3.59-3.112a.224.224 0 01.292 0L9.238 5.45a.252.252 0 01.082.187zm1.596-1.224L9.319 3.027V.242A.236.236 0 009.09.001H8.02a.236.236 0 00-.229.241v1.46L6.082.22a.88.88 0 00-1.165 0L.083 4.412a.25.25 0 00-.03.34l.486.623c.08.103.226.117.323.032l4.492-3.894a.224.224 0 01.292 0l4.493 3.894c.097.085.242.07.322-.032l.487-.623a.25.25 0 00-.032-.34z" fill="#0A78BF"/></svg><svg fill="none" viewBox="0 0 14 16" id="include--btn-del" xmlns="http://www.w3.org/2000/svg"><path d="M0 2.625V1.75C0 1.334.334 1 .75 1h3.5l.294-.584A.741.741 0 015.213 0h3.571a.75.75 0 01.672.416L9.75 1h3.5c.416 0 .75.334.75.75v.875a.376.376 0 01-.375.375H.375A.376.376 0 010 2.625zm13 1.75V14.5a1.5 1.5 0 01-1.5 1.5h-9A1.5 1.5 0 011 14.5V4.375C1 4.169 1.169 4 1.375 4h11.25c.206 0 .375.169.375.375zM4.5 6.5c0-.275-.225-.5-.5-.5s-.5.225-.5.5v7c0 .275.225.5.5.5s.5-.225.5-.5v-7zm3 0c0-.275-.225-.5-.5-.5s-.5.225-.5.5v7c0 .275.225.5.5.5s.5-.225.5-.5v-7zm3 0c0-.275-.225-.5-.5-.5s-.5.225-.5.5v7c0 .275.225.5.5.5s.5-.225.5-.5v-7z" fill="#EB5757"/></svg><svg fill="none" viewBox="0 0 9 16" id="include--buy-one-click-icon" xmlns="http://www.w3.org/2000/svg"><path d="M2.281 14.92c-3.044-3.822-3.04-10.014 0-13.83.134-.168.34-.195.499-.071L4.299 2.21a.51.51 0 01.17.272.628.628 0 01-.01.345L3.7 5.212a.493.493 0 01-.164.245.339.339 0 01-.25.07l-1.307-.164a9.711 9.711 0 000 5.284l1.308-.165a.339.339 0 01.249.071.493.493 0 01.165.245l.76 2.384c.034.11.038.232.008.345a.505.505 0 01-.17.272L2.78 14.991a.34.34 0 01-.26.074.377.377 0 01-.239-.145zM5.792 2.81c.277.59.277 1.324 0 1.914-.093.197-.307.235-.439.076l-.14-.168a.425.425 0 01-.053-.424 1.146 1.146 0 000-.882.425.425 0 01.053-.424l.14-.168c.132-.158.346-.121.439.076zM7.943.126c1.41 2.107 1.409 5.176 0 7.282-.105.157-.293.17-.411.027l-.136-.163a.422.422 0 01-.022-.482c1.165-1.752 1.164-4.295 0-6.046a.422.422 0 01.022-.482L7.532.1c.118-.142.306-.13.411.027zM6.866 1.45c.845 1.363.846 3.27 0 4.636-.103.166-.298.184-.419.039l-.136-.164a.421.421 0 01-.03-.47c.622-1.017.622-2.43 0-3.447a.421.421 0 01.03-.468l.136-.165c.121-.145.316-.127.419.039z" fill="#71BE00"/></svg><svg fill="none" viewBox="0 0 8 5" id="include--cart-chevron-down" xmlns="http://www.w3.org/2000/svg"><path d="M3.69 4.726L.128 1.166a.44.44 0 010-.622L.544.129a.44.44 0 01.621-.001L4 2.95 6.835.128a.44.44 0 01.621 0l.415.416a.44.44 0 010 .622l-3.56 3.56a.44.44 0 01-.622 0z" fill="#272323"/></svg><svg fill="none" viewBox="0 0 20 20" id="include--cart-icon" xmlns="http://www.w3.org/2000/svg"><path d="M7.5 18.333a.833.833 0 100-1.666.833.833 0 000 1.666zm9.167 0a.833.833 0 100-1.666.833.833 0 000 1.666zM.833.833h3.334L6.4 11.992a1.667 1.667 0 001.667 1.341h8.1a1.666 1.666 0 001.666-1.341L19.167 5H5" stroke="#272323" stroke-width="1.667" stroke-linecap="round" stroke-linejoin="round"/></svg><svg fill="none" viewBox="0 0 16 15" id="include--category-catalog-icon" xmlns="http://www.w3.org/2000/svg"><rect x="1.79" y="1" width="5.09" height="5" rx="1" fill="#F4F4F4" stroke="#272323"/><rect x="8.916" y="1" width="5.09" height="5" rx="1" fill="#F4F4F4" stroke="#272323"/><rect x="1.79" y="8" width="5.09" height="5" rx="1" fill="#F4F4F4" stroke="#272323"/><rect width="5.068" height="5.023" rx="1" transform="matrix(.86984 -.49334 .5067 .86213 7.985 9.585)" fill="#F4F4F4" stroke="#272323"/></svg><svg fill="none" viewBox="0 0 10 5" id="include--category-column-toggle" xmlns="http://www.w3.org/2000/svg"><path d="M4.076 4.83L.25 1.537a.523.523 0 010-.82L.886.17a.752.752 0 01.954 0L3.9 1.943a1 1 0 001.304 0L7.264.17a.752.752 0 01.953 0l.636.547a.523.523 0 010 .82L5.027 4.829a.748.748 0 01-.95 0z" fill="#656C7D"/></svg><svg fill="none" viewBox="0 0 14 12" id="include--category-sort-icon" xmlns="http://www.w3.org/2000/svg"><path d="M3.854.146a.5.5 0 00-.708 0l-3 3a.5.5 0 10.708.708L3 1.707V11.5a.5.5 0 001 0V1.707l2.146 2.147a.5.5 0 00.708-.708l-3-3zm6.298 11.714a.5.5 0 00.696 0l3-2.9a.5.5 0 10-.696-.72L11 10.32V.5a.5.5 0 00-1 0v9.82L7.848 8.24a.5.5 0 10-.696.719l3 2.9z" fill="#CBCBCB"/></svg><svg fill="none" viewBox="0 0 7 5" id="include--check-box" xmlns="http://www.w3.org/2000/svg"><path d="M2.378 4.902L.103 2.722a.325.325 0 010-.473l.494-.475a.361.361 0 01.495 0l1.533 1.468L5.908.098a.361.361 0 01.495 0l.494.474a.325.325 0 010 .474L2.872 4.902a.361.361 0 01-.494 0z" fill="#272323"/></svg><svg fill="none" viewBox="0 0 6 4" id="include--chevron-down" xmlns="http://www.w3.org/2000/svg"><path d="M2.683 3.864L.133 1.23a.473.473 0 010-.656L.555.136a.438.438 0 01.636 0L3 2.003 4.808.136a.438.438 0 01.636 0l.424.438a.473.473 0 010 .656L3.317 3.864a.436.436 0 01-.634 0z" fill="#656C7D"/></svg><svg fill="none" viewBox="0 0 14 14" id="include--close-catalog-icon" xmlns="http://www.w3.org/2000/svg"><path d="M8.724 7l4.824-4.824A1.22 1.22 0 1011.824.449L7 5.273 2.176.45A1.22 1.22 0 00.449 2.176L5.273 7 .45 11.824a1.221 1.221 0 001.727 1.727L7 8.727l4.824 4.824a1.221 1.221 0 001.727-1.727L8.724 7z" fill="#fff"/></svg><svg fill="none" viewBox="0 0 12 11" id="include--comments-icon" xmlns="http://www.w3.org/2000/svg"><path fill-rule="evenodd" clip-rule="evenodd" d="M10.5.75h-9a.752.752 0 00-.75.75v6c0 .412.337.75.75.75H3v2.625L5.625 8.25H10.5c.412 0 .75-.338.75-.75v-6a.752.752 0 00-.75-.75zm0 6.75H5.25L3.75 9V7.5H1.5v-6h9v6z" fill="#DCDCDC"/></svg><svg fill="none" viewBox="0 0 13 13" id="include--compare-icon" xmlns="http://www.w3.org/2000/svg"><path d="M11.868 6.896v5.539a.567.567 0 01-1.132 0v-5.54c0-.31.255-.565.566-.565.312 0 .566.255.566.566zm-.566-5.285a.567.567 0 00.566-.565v-.48A.567.567 0 0011.302 0a.567.567 0 00-.565.565v.48c0 .312.254.566.566.566zM3.368 6.5c0 .933-.764 1.696-1.684 1.696A1.698 1.698 0 010 6.5c0-.933.764-1.696 1.683-1.696.92 0 1.684.763 1.684 1.696zm-1.132 0a.564.564 0 00-.552-.565.564.564 0 00-.551.565c0 .31.254.565.551.565a.564.564 0 00.552-.565zm5.941 2.784c0 .932-.764 1.695-1.683 1.695-.92 0-1.683-.763-1.683-1.695 0-.933.763-1.696 1.683-1.696s1.683.749 1.683 1.696zm-1.131 0a.564.564 0 00-.552-.566.564.564 0 00-.552.566c0 .31.255.565.552.565a.564.564 0 00.552-.565zM13 4.04c0 .933-.764 1.696-1.683 1.696-.92 0-1.684-.763-1.684-1.696 0-.932.764-1.695 1.684-1.695.92 0 1.683.763 1.683 1.695zm-1.132 0a.564.564 0 00-.551-.565.564.564 0 00-.552.565c0 .311.255.566.552.566.297 0 .551-.24.551-.566zm-5.375 7.504a.567.567 0 00-.566.565v.325a.567.567 0 001.132 0v-.325a.567.567 0 00-.566-.565zm0-4.663a.567.567 0 00.566-.566V.566A.567.567 0 006.493 0a.567.567 0 00-.566.565v5.751c0 .311.255.566.566.566zm-4.81 2.063a.567.567 0 00-.565.565v2.925c0 .31.254.565.565.565a.567.567 0 00.566-.565V9.51a.567.567 0 00-.566-.565zm0-4.861a.567.567 0 00.566-.566V.565A.567.567 0 001.683 0a.567.567 0 00-.565.565v2.953c0 .311.254.566.565.566z" fill="#777"/></svg><svg fill="none" viewBox="0 0 12 15" id="include--date-icon" xmlns="http://www.w3.org/2000/svg"><path d="M11.123 4.688H.306C.138 4.688 0 4.529 0 4.335V3.28c0-.776.549-1.406 1.225-1.406h1.224V.352c0-.194.138-.352.306-.352h1.02c.17 0 .307.158.307.352v1.523h3.266V.352c0-.194.137-.352.306-.352h1.02c.169 0 .306.158.306.352v1.523h1.225c.676 0 1.225.63 1.225 1.406v1.055c0 .193-.138.351-.307.351zM.306 5.625h10.817c.169 0 .307.158.307.352v7.617c0 .776-.549 1.406-1.225 1.406h-8.98C.549 15 0 14.37 0 13.594V5.977c0-.194.138-.352.306-.352zm2.96 5.977c0-.194-.138-.352-.307-.352H1.94c-.168 0-.306.158-.306.352v1.171c0 .194.138.352.306.352h1.02c.169 0 .307-.158.307-.352v-1.171zm0-3.75c0-.194-.138-.352-.307-.352H1.94c-.168 0-.306.158-.306.352v1.171c0 .194.138.352.306.352h1.02c.169 0 .307-.158.307-.352V7.852zm3.265 3.75c0-.194-.138-.352-.306-.352h-1.02c-.169 0-.307.158-.307.352v1.171c0 .194.138.352.307.352h1.02c.168 0 .306-.158.306-.352v-1.171zm0-3.75c0-.194-.138-.352-.306-.352h-1.02c-.169 0-.307.158-.307.352v1.171c0 .194.138.352.307.352h1.02c.168 0 .306-.158.306-.352V7.852zm3.266 3.75c0-.194-.138-.352-.306-.352H8.47c-.17 0-.307.158-.307.352v1.171c0 .194.138.352.306.352h1.02c.169 0 .307-.158.307-.352v-1.171zm0-3.75c0-.194-.138-.352-.306-.352H8.47c-.17 0-.307.158-.307.352v1.171c0 .194.138.352.306.352h1.02c.169 0 .307-.158.307-.352V7.852z" fill="#E9E9E9"/></svg><svg fill="none" viewBox="0 0 7 13" id="include--fb" xmlns="http://www.w3.org/2000/svg"><path d="M2.034 13V7.186H0V4.875h2.034v-1.82C2.034 1.076 3.296 0 5.139 0 6.022 0 6.779.063 7 .091v2.067H5.722c-1.002 0-1.196.457-1.196 1.125v1.592h2.262l-.31 2.31H4.526V13" fill="#656C7D"/></svg><svg fill="none" viewBox="0 0 20 22" id="include--fixed-bar-account" xmlns="http://www.w3.org/2000/svg"><g clip-path="url(#bjclip0)"><path d="M10 .682c-3.614 0-6.563 2.924-6.563 6.508 0 2.24 1.154 4.23 2.901 5.405C2.994 14.017.625 17.309.625 21.136H2.5c0-4.118 3.347-7.438 7.5-7.438 4.153 0 7.5 3.32 7.5 7.438h1.875c0-3.827-2.37-7.118-5.713-8.542a6.55 6.55 0 002.128-2.344 6.492 6.492 0 00.773-3.06c0-3.584-2.949-6.508-6.563-6.508zm0 1.86c2.6 0 4.688 2.07 4.688 4.648S12.6 11.84 10 11.84c-2.6 0-4.688-2.07-4.688-4.649C5.313 4.612 7.4 2.541 10 2.541z" fill="#FDFDFD"/></g><defs><clipPath id="bjclip0"><path fill="#fff" d="M0 0h20v21.818H0z"/></clipPath></defs></svg><svg fill="none" viewBox="0 0 24 24" id="include--fixed-bar-cart" xmlns="http://www.w3.org/2000/svg"><g clip-path="url(#bkclip0)" fill-rule="evenodd" clip-rule="evenodd" fill="#FDFDFD"><path d="M7 21a2 2 0 114 0 2 2 0 01-4 0zm11 0a2 2 0 114 0 2 2 0 01-4 0zM0 1a1 1 0 011-1h4a1 1 0 01.98.804L6.82 5H23a1 1 0 01.982 1.187l-1.601 8.398A3 3 0 0119.39 17h-9.7a3 3 0 01-2.99-2.414L5.03 6.239a.994.994 0 01-.017-.084L4.18 2H1a1 1 0 01-1-1zm7.22 6l1.44 7.195a1 1 0 001 .805h9.76a1 1 0 00.998-.802L21.792 7H7.221z"/></g><defs><clipPath id="bkclip0"><path fill="#fff" d="M0 0h24v24H0z"/></clipPath></defs></svg><svg fill="none" viewBox="0 0 24 24" id="include--fixed-bar-compare" xmlns="http://www.w3.org/2000/svg"><path d="M21.91 12.73v10.226c0 .574-.47 1.044-1.044 1.044-.574 0-1.044-.47-1.044-1.044V12.73c0-.574.47-1.043 1.044-1.043.575 0 1.045.47 1.045 1.043zm-1.044-9.756c.575 0 1.045-.47 1.045-1.044v-.887A1.049 1.049 0 0020.866 0c-.574 0-1.044.47-1.044 1.043v.887c0 .574.47 1.044 1.044 1.044zM6.216 12c0 1.722-1.41 3.13-3.108 3.13C1.41 15.13 0 13.722 0 12s1.41-3.13 3.108-3.13c1.697 0 3.107 1.408 3.107 3.13zm-2.09 0c0-.574-.47-1.043-1.018-1.043-.549 0-1.019.47-1.019 1.043 0 .574.47 1.043 1.019 1.043.548 0 1.018-.47 1.018-1.043zm10.969 5.14c0 1.72-1.41 3.13-3.108 3.13-1.698 0-3.108-1.41-3.108-3.13 0-1.723 1.41-3.131 3.108-3.131a3.12 3.12 0 013.108 3.13zm-2.09 0c0-.575-.47-1.044-1.018-1.044-.549 0-1.019.47-1.019 1.043 0 .574.47 1.044 1.019 1.044.548 0 1.018-.47 1.018-1.044zM24 7.46c0 1.723-1.41 3.131-3.108 3.131-1.697 0-3.107-1.408-3.107-3.13s1.41-3.13 3.107-3.13C22.59 4.33 24 5.738 24 7.46zm-2.09 0c0-.573-.47-1.043-1.018-1.043s-1.018.47-1.018 1.044c0 .574.47 1.043 1.018 1.043.549 0 1.019-.443 1.019-1.043zm-9.923 13.853c-.575 0-1.045.47-1.045 1.044v.6c0 .573.47 1.043 1.045 1.043s1.045-.47 1.045-1.044v-.6c0-.573-.47-1.043-1.045-1.043zm0-8.609c.575 0 1.045-.47 1.045-1.043V1.043C13.032.47 12.562 0 11.987 0s-1.045.47-1.045 1.043v10.618c0 .574.47 1.043 1.045 1.043zm-8.88 3.81c-.574 0-1.044.469-1.044 1.043v5.4c0 .573.47 1.043 1.045 1.043.574 0 1.044-.47 1.044-1.044v-5.4c0-.573-.47-1.043-1.044-1.043zm0-8.975c.575 0 1.045-.47 1.045-1.043V1.043C4.152.47 3.682 0 3.108 0c-.575 0-1.045.47-1.045 1.043v5.453c0 .574.47 1.043 1.045 1.043z" fill="#FDFDFD"/></svg><svg fill="none" viewBox="0 0 24 24" id="include--fixed-bar-viewed" xmlns="http://www.w3.org/2000/svg"><path d="M23.205 11.745A12.517 12.517 0 0012 3.75 12.518 12.518 0 00.795 11.745a.75.75 0 000 .51A12.517 12.517 0 0012 20.25a12.517 12.517 0 0011.205-7.995.75.75 0 000-.51zM12 18.75c-3.975 0-8.175-2.947-9.698-6.75C3.825 8.197 8.025 5.25 12 5.25c3.975 0 8.175 2.947 9.698 6.75-1.523 3.803-5.723 6.75-9.698 6.75z" fill="#fff"/><path d="M12 7.5a4.5 4.5 0 100 9 4.5 4.5 0 000-9zm0 7.5a3 3 0 110-5.999A3 3 0 0112 15z" fill="#fff"/></svg><svg fill="none" viewBox="0 0 24 20" id="include--fixed-bar-wishlist" xmlns="http://www.w3.org/2000/svg"><path d="M10.604 19.457l-7.49-6.974C2.79 12.198 0 9.659 0 6.5 0 2.59 2.582 0 6.91 0 8.79 0 10.572.983 12 2.147 13.423.983 15.21 0 17.09 0 21.26 0 24 2.435 24 6.5c0 2.241-1.445 4.461-3.096 5.978l-.018.018-7.49 6.96A2.044 2.044 0 0112 20a2.044 2.044 0 01-1.396-.543zm-5.972-8.461L12 17.858l7.355-6.84c1.24-1.165 2.463-2.859 2.463-4.518 0-2.884-1.736-4.431-4.727-4.431-2.146 0-4.218 2.125-5.091 2.948-.773-.733-2.91-2.948-5.09-2.948-2.996 0-4.728 1.547-4.728 4.431 0 1.608 1.213 3.4 2.45 4.496z" fill="#FDFDFD"/></svg><svg fill="none" viewBox="0 0 14 14" id="include--fixed-product-button-compare-icon" xmlns="http://www.w3.org/2000/svg"><path d="M12.781 7.426v5.965a.61.61 0 01-.61.609.61.61 0 01-.608-.609V7.426a.61.61 0 01.609-.609.61.61 0 01.61.61zm-.61-5.691a.61.61 0 00.61-.609V.61a.61.61 0 00-.61-.609.61.61 0 00-.608.609v.517a.61.61 0 00.609.609zM3.627 7a1.83 1.83 0 01-1.813 1.826A1.83 1.83 0 010 7a1.83 1.83 0 011.813-1.826c.99 0 1.813.822 1.813 1.826zm-1.22 0a.608.608 0 00-.594-.609.608.608 0 00-.594.609c0 .335.274.609.594.609.32 0 .594-.274.594-.609zm6.398 2.998a1.83 1.83 0 01-1.813 1.826A1.83 1.83 0 015.18 9.998a1.83 1.83 0 011.812-1.826c.99 0 1.813.806 1.813 1.826zm-1.218 0a.608.608 0 00-.595-.609.608.608 0 00-.594.609c0 .335.274.609.594.609.32 0 .595-.274.595-.61zM14 4.352a1.83 1.83 0 01-1.813 1.826 1.83 1.83 0 01-1.813-1.826 1.83 1.83 0 011.813-1.826c.99 0 1.813.822 1.813 1.826zm-1.219 0a.608.608 0 00-.594-.609.608.608 0 00-.594.61c0 .334.274.608.594.608.32 0 .594-.259.594-.609zm-5.789 8.08a.61.61 0 00-.609.61v.35a.61.61 0 00.61.608.61.61 0 00.609-.609v-.35a.61.61 0 00-.61-.608zm0-5.021a.61.61 0 00.61-.609V.61a.61.61 0 00-.61-.61.61.61 0 00-.609.609v6.193a.61.61 0 00.61.609zm-5.18 2.222a.61.61 0 00-.609.608v3.15a.61.61 0 00.61.609.61.61 0 00.61-.609v-3.15a.61.61 0 00-.61-.608zm0-5.235a.61.61 0 00.61-.609V.61a.61.61 0 00-.61-.61.61.61 0 00-.609.609v3.18a.61.61 0 00.61.609z" fill="#272323"/></svg><svg fill="none" viewBox="0 0 17 14" id="include--fixed-product-button-wishlist-icon" xmlns="http://www.w3.org/2000/svg"><path d="M7.512 13.62L2.205 8.738C1.977 8.538 0 6.762 0 4.55 0 1.813 1.829 0 4.894 0 6.227 0 7.489.688 8.5 1.503 9.508.688 10.773 0 12.106 0 15.06 0 17 1.705 17 4.55c0 1.569-1.024 3.123-2.193 4.185l-.013.012-5.306 4.873c-.263.243-.618.38-.988.38s-.725-.137-.988-.38zM3.28 7.697L8.5 12.5l5.21-4.788c.878-.815 1.744-2 1.744-3.162 0-2.019-1.23-3.102-3.348-3.102-1.52 0-2.988 1.488-3.606 2.064C7.953 3 6.44 1.448 4.894 1.448c-2.122 0-3.349 1.083-3.349 3.102 0 1.125.86 2.38 1.736 3.147z" fill="#272323"/></svg><svg fill="none" viewBox="0 0 15 15" id="include--footer-catalog-icon" xmlns="http://www.w3.org/2000/svg"><rect x="1" y="1" width="5" height="5" rx="1" stroke="#FDFDFD"/><rect x="8" y="1" width="5" height="5" rx="1" stroke="#FDFDFD"/><rect x="1" y="8" width="5" height="5" rx="1" stroke="#FDFDFD"/><rect x="7.085" y="9.585" width="5" height="5" rx="1" transform="rotate(-30 7.085 9.585)" stroke="#FDFDFD"/></svg><svg fill="none" viewBox="0 0 14 14" id="include--footer-categories-icon" xmlns="http://www.w3.org/2000/svg"><g stroke="#272323"><path clip-rule="evenodd" d="M5.148 4.105a2 2 0 00-.481 1.301v3.677a2 2 0 002 2h2.747a2 2 0 001.968-1.642l.44-2.417a2 2 0 00-1.968-2.358H8.167l.95-2.848a.791.791 0 00-.398-.959v0a.791.791 0 00-.955.193L5.148 4.105z"/><path d="M2.333 10.5V5.25" stroke-linecap="round"/></g></svg><svg fill="none" viewBox="0 0 16 16" id="include--footer-information-icon" xmlns="http://www.w3.org/2000/svg"><path d="M8 10V8" stroke="#272323" stroke-linecap="round"/><path fill-rule="evenodd" clip-rule="evenodd" d="M8 5.334a.667.667 0 100 1.333.667.667 0 000-1.333z" fill="#272323"/><path clip-rule="evenodd" d="M8 14.666A6.667 6.667 0 108 1.333a6.667 6.667 0 000 13.333z" stroke="#272323"/></svg><svg fill="none" viewBox="0 0 14 8" id="include--footer-toggle-icon" xmlns="http://www.w3.org/2000/svg"><path d="M1 1l6 6 6-6" stroke="#272323" stroke-linecap="round"/></svg><svg fill="none" viewBox="0 0 18 16" id="include--grid-view" xmlns="http://www.w3.org/2000/svg"><path d="M10.406 0h6.75A.85.85 0 0118 .857v5.714a.85.85 0 01-.844.858h-6.75a.85.85 0 01-.844-.858V.857A.85.85 0 0110.406 0zM7.594 0H.844A.85.85 0 000 .857v5.714a.85.85 0 00.844.858h6.75a.85.85 0 00.843-.858V.857A.85.85 0 007.595 0zM0 9.429v5.714A.85.85 0 00.844 16h6.75a.85.85 0 00.843-.857V9.429a.85.85 0 00-.843-.858H.844A.85.85 0 000 9.43zM10.406 16h6.75a.85.85 0 00.844-.857V9.429a.85.85 0 00-.844-.858h-6.75a.85.85 0 00-.844.858v5.714a.85.85 0 00.844.857z" fill="#CACACA"/></svg><svg fill="none" viewBox="0 0 21 21" id="include--header-cart-icon" xmlns="http://www.w3.org/2000/svg"><g clip-path="url(#bvclip0)" fill-rule="evenodd" clip-rule="evenodd" fill="#272323"><path d="M6.125 18.375a1.75 1.75 0 113.5 0 1.75 1.75 0 01-3.5 0zm9.625 0a1.75 1.75 0 113.5 0 1.75 1.75 0 01-3.5 0zM0 .875C0 .392.392 0 .875 0h3.5c.417 0 .776.294.858.703l.735 3.672h14.157a.875.875 0 01.86 1.039l-1.402 7.348a2.625 2.625 0 01-2.616 2.113h-8.49a2.625 2.625 0 01-2.615-2.113L4.4 5.46a.868.868 0 01-.015-.073L3.658 1.75H.875A.875.875 0 010 .875zm6.318 5.25l1.26 6.296a.875.875 0 00.875.704h8.539a.875.875 0 00.874-.701l1.201-6.299H6.318z"/></g><defs><clipPath id="bvclip0"><path fill="#fff" d="M0 0h21v21H0z"/></clipPath></defs></svg><svg fill="none" viewBox="0 0 14 8" id="include--header-location-chevron" xmlns="http://www.w3.org/2000/svg"><path d="M1 1l6 6 6-6" stroke="#272323" stroke-linecap="round"/></svg><svg fill="none" viewBox="0 0 14 30" id="include--header-phones-icon" xmlns="http://www.w3.org/2000/svg"><path d="M7.875.193c1.626-.234 3.85-.388 4.7.341 1.409 1.206 1.409 8.839-1.407 8.839-1.418 0-2.348-1.256-3.756-.05-1.384 1.184-1.406 3.31-1.408 5.675-.002 2.364.022 4.489 1.408 5.676 1.408 1.205 2.338-.051 3.756-.051 2.814 0 2.814 7.633 1.408 8.839-.852.73-3.075.575-4.701.341-1.086-.18-2.256-.636-3.75-2.096-2.044-2.19-3.712-5.503-3.75-12.593v-.236c.036-7.09 1.706-10.402 3.75-12.592C5.619.826 6.789.369 7.875.189v.004z" fill="#E9E9E9"/></svg><svg fill="none" viewBox="0 0 20 20" id="include--header-search-icon" xmlns="http://www.w3.org/2000/svg"><path d="M19.319 18.027l-6.087-6.086a6.968 6.968 0 001.456-4.285c0-1.88-.734-3.642-2.06-4.97A6.98 6.98 0 007.655.624a6.99 6.99 0 00-4.97 2.06A6.975 6.975 0 00.624 7.656c0 1.878.734 3.645 2.06 4.971a6.975 6.975 0 004.971 2.06 6.97 6.97 0 004.282-1.453l6.087 6.085a.19.19 0 00.136.056.191.191 0 00.136-.056l1.022-1.02a.19.19 0 00.041-.21.191.191 0 00-.041-.062zm-7.95-6.658a5.222 5.222 0 01-3.713 1.537 5.222 5.222 0 01-3.712-1.537 5.222 5.222 0 01-1.538-3.713c0-1.401.546-2.72 1.538-3.712a5.222 5.222 0 013.712-1.538c1.402 0 2.721.544 3.713 1.538a5.222 5.222 0 011.537 3.712 5.218 5.218 0 01-1.537 3.713z" fill="#E9E9E9"/></svg><svg fill="none" viewBox="0 0 8 5" id="include--input-sort" xmlns="http://www.w3.org/2000/svg"><path d="M3.577 4.83l-3.4-3.292a.565.565 0 010-.82L.74.17a.612.612 0 01.848 0L4 2.504 6.41.17a.612.612 0 01.849 0l.565.547a.565.565 0 010 .82L4.423 4.829a.609.609 0 01-.846 0z" fill="#272323"/></svg><svg fill="none" viewBox="0 0 18 16" id="include--list-view" xmlns="http://www.w3.org/2000/svg"><path d="M5.25 6.571V9.43a.85.85 0 01-.844.857H.844A.85.85 0 010 9.429V6.57a.85.85 0 01.844-.857h3.562a.85.85 0 01.844.857zM0 12.286v2.857A.85.85 0 00.844 16h3.562a.85.85 0 00.844-.857v-2.857a.85.85 0 00-.844-.857H.844a.85.85 0 00-.844.857zM4.406 0H.844A.85.85 0 000 .857v2.857a.85.85 0 00.844.857h3.562a.85.85 0 00.844-.857V.857A.85.85 0 004.406 0zM7.22 16h9.937a.85.85 0 00.844-.857v-2.857a.85.85 0 00-.844-.857H7.22a.85.85 0 00-.844.857v2.857A.85.85 0 007.22 16zM6.375.857v2.857a.85.85 0 00.844.857h9.937A.85.85 0 0018 3.714V.857A.85.85 0 0017.156 0H7.22a.85.85 0 00-.844.857zm.844 9.429h9.937A.85.85 0 0018 9.429V6.57a.85.85 0 00-.844-.857H7.22a.85.85 0 00-.844.857v2.86a.85.85 0 00.844.857z" fill="#777"/></svg><svg fill="none" viewBox="0 0 25 25" id="include--livesearch-close-icon" xmlns="http://www.w3.org/2000/svg"><path d="M18.652 5.641l.707.707-13.011 13.01-.707-.707 13.011-13.01z" fill="#fff"/><path d="M6.348 5.641l13.011 13.01-.707.707L5.641 6.348l.707-.707z" fill="#fff"/></svg><svg fill="none" viewBox="0 0 6 10" id="include--menu-chevron" xmlns="http://www.w3.org/2000/svg"><path d="M.6 8l3-3-3-3L1.2.8 5.4 5 1.2 9.2.6 8z" fill="#C2C2C2"/></svg><svg fill="none" viewBox="0 0 30 30" id="include--mobile-account-icon" xmlns="http://www.w3.org/2000/svg"><g clip-path="url(#cdclip0)"><rect width="30" height="30" rx="6" fill="#F4F4F4"/><path d="M15 6.563c-2.891 0-5.25 2.412-5.25 5.369 0 1.848.922 3.49 2.32 4.459a7.695 7.695 0 00-4.57 7.047H9c0-3.398 2.678-6.137 6-6.137 3.323 0 6 2.739 6 6.137h1.5a7.698 7.698 0 00-4.57-7.048 5.348 5.348 0 001.702-1.934 5.485 5.485 0 00.618-2.524c0-2.957-2.359-5.37-5.25-5.37zm0 1.534c2.08 0 3.75 1.708 3.75 3.835s-1.67 3.835-3.75 3.835-3.75-1.708-3.75-3.835S12.92 8.097 15 8.097z" fill="#272323"/></g><defs><clipPath id="cdclip0"><rect width="30" height="30" rx="6" fill="#fff"/></clipPath></defs></svg><svg fill="none" viewBox="0 0 30 30" id="include--mobile-compare-icon" xmlns="http://www.w3.org/2000/svg"><g clip-path="url(#ceclip0)"><rect width="30" height="30" rx="6" fill="#F4F4F4"/><path d="M21.607 15.487v6.817a.698.698 0 01-.696.696.698.698 0 01-.697-.696v-6.817c0-.383.314-.696.697-.696.383 0 .696.313.696.696zm-.696-6.504a.698.698 0 00.696-.696v-.591A.698.698 0 0020.911 7a.698.698 0 00-.697.696v.59c0 .384.314.697.697.697zM11.144 15a2.09 2.09 0 01-2.072 2.087C7.94 17.087 7 16.147 7 15a2.09 2.09 0 012.072-2.087c1.132 0 2.072.94 2.072 2.087zM9.75 15a.695.695 0 00-.68-.696.695.695 0 00-.678.696c0 .383.313.696.679.696A.695.695 0 009.75 15zm7.312 3.426a2.09 2.09 0 01-2.072 2.087c-1.131 0-2.072-.94-2.072-2.087a2.09 2.09 0 012.072-2.087 2.08 2.08 0 012.072 2.087zm-1.393 0a.695.695 0 00-.679-.696.695.695 0 00-.679.696c0 .383.314.696.68.696a.695.695 0 00.678-.696zM23 11.974a2.09 2.09 0 01-2.072 2.087c-1.131 0-2.072-.94-2.072-2.087a2.09 2.09 0 012.072-2.087c1.132 0 2.072.94 2.072 2.087zm-1.393 0a.695.695 0 00-.679-.696.695.695 0 00-.679.696c0 .383.314.696.68.696a.683.683 0 00.678-.696zm-6.616 9.235a.698.698 0 00-.696.695v.4c0 .383.313.696.696.696a.698.698 0 00.697-.696v-.4a.698.698 0 00-.697-.695zm0-5.74a.698.698 0 00.697-.695V7.696A.698.698 0 0014.99 7a.698.698 0 00-.696.696v7.078c0 .383.313.696.696.696zm-5.92 2.54a.698.698 0 00-.696.695v3.6c0 .383.314.696.697.696a.698.698 0 00.696-.696v-3.6a.698.698 0 00-.696-.695zm0-5.983a.698.698 0 00.697-.696V7.696A.698.698 0 009.072 7a.698.698 0 00-.697.696v3.634c0 .383.314.696.697.696z" fill="#272323"/></g><defs><clipPath id="ceclip0"><rect width="30" height="30" rx="6" fill="#fff"/></clipPath></defs></svg><svg fill="none" viewBox="0 0 21 21" id="include--mobile-contacts-icon" xmlns="http://www.w3.org/2000/svg"><path d="M19.25 14.805v2.625a1.749 1.749 0 01-1.907 1.75 17.316 17.316 0 01-7.552-2.686 17.062 17.062 0 01-5.25-5.25 17.316 17.316 0 01-2.686-7.587A1.75 1.75 0 013.596 1.75h2.625a1.75 1.75 0 011.75 1.505c.111.84.317 1.665.613 2.459A1.75 1.75 0 018.19 7.56L7.079 8.671a14 14 0 005.25 5.25l1.111-1.111a1.75 1.75 0 011.846-.394 11.23 11.23 0 002.459.613 1.75 1.75 0 011.505 1.776z" stroke="#272323" stroke-width="2" stroke-linecap="round" stroke-linejoin="round"/><path d="M12.469 1.313V0c4.704 0 8.53 3.827 8.53 8.531h-1.312c0-3.98-3.238-7.219-7.219-7.219z" fill="#CACACA"/><path d="M12.469 3.938V2.625a5.913 5.913 0 015.906 5.906h-1.313a4.6 4.6 0 00-4.594-4.594z" fill="#CACACA"/><path d="M12.469 6.563V5.25a3.285 3.285 0 013.28 3.281h-1.312a1.971 1.971 0 00-1.968-1.969z" fill="#CACACA"/></svg><svg fill="none" viewBox="0 0 16 20" id="include--mobile-locations-icon" xmlns="http://www.w3.org/2000/svg"><path d="M7.895 0C3.553 0 0 3.6 0 8c0 5.4 6.908 11.5 7.204 11.8.197.1.493.2.69.2.198 0 .494-.1.692-.2.296-.3 7.204-6.4 7.204-11.8 0-4.4-3.553-8-7.895-8zm0 17.7c-2.073-2-5.921-6.3-5.921-9.7 0-3.3 2.664-6 5.92-6 3.257 0 5.922 2.7 5.922 6s-3.849 7.7-5.921 9.7zm0-13.7C5.724 4 3.947 5.8 3.947 8s1.777 4 3.948 4c2.17 0 3.947-1.8 3.947-4s-1.776-4-3.947-4zm0 6C6.809 10 5.92 9.1 5.92 8s.888-2 1.974-2c1.085 0 1.973.9 1.973 2s-.888 2-1.973 2z" fill="#272323"/></svg><svg fill="none" viewBox="0 0 30 30" id="include--mobile-menu-back" xmlns="http://www.w3.org/2000/svg"><rect width="30" height="30" rx="4" fill="#272323"/><path d="M22.266 13.608H10.59l3.573-4.438a1.042 1.042 0 00-.128-1.435.964.964 0 00-1.388.133l-4.922 6.106a1.29 1.29 0 00-.088.153c0 .05 0 .081-.07.132a1.048 1.048 0 00-.068.367c0 .125.024.25.069.366 0 .05 0 .081.069.132.026.053.055.104.088.153l4.922 6.107a.988.988 0 00.34.27.958.958 0 001.048-.138 1.013 1.013 0 00.352-.69 1.05 1.05 0 00-.224-.745l-3.573-4.438h11.675a.968.968 0 00.696-.298c.184-.19.288-.45.288-.72 0-.27-.104-.528-.288-.719a.968.968 0 00-.696-.298z" fill="#FBFBFB"/></svg><svg fill="none" viewBox="0 0 15 15" id="include--mobile-menu-icon" xmlns="http://www.w3.org/2000/svg"><rect x="1" y="1" width="5" height="5" rx="1" stroke="#fff"/><rect x="8" y="1" width="5" height="5" rx="1" stroke="#fff"/><rect x="1" y="8" width="5" height="5" rx="1" stroke="#fff"/><rect x="7.085" y="9.585" width="5" height="5" rx="1" transform="rotate(-30 7.085 9.585)" stroke="#fff"/></svg><svg fill="none" viewBox="0 0 15 15" id="include--mobile-menu-phone-icon" xmlns="http://www.w3.org/2000/svg"><g clip-path="url(#cjclip0)"><path d="M8.438.097c.812-.118 1.924-.195 2.35.17.704.603.704 4.42-.704 4.42-.709 0-1.174-.629-1.878-.026-.692.593-.703 1.656-.704 2.838-.001 1.182.011 2.244.704 2.838.704.603 1.169-.025 1.878-.025 1.407 0 1.407 3.816.704 4.419-.426.365-1.538.288-2.35.17-.543-.09-1.128-.317-1.876-1.048-1.021-1.095-1.856-2.751-1.875-6.296V7.44c.018-3.545.854-5.201 1.875-6.296C7.31.413 7.896.185 8.438.095v.002z" fill="#27AE60"/></g><defs><clipPath id="cjclip0"><path fill="#fff" transform="rotate(-90 7.5 7.5)" d="M0 0h15v15H0z"/></clipPath></defs></svg><svg fill="none" viewBox="0 0 6 10" id="include--mobile-menu-toggle" xmlns="http://www.w3.org/2000/svg"><path d="M.6 8l3-3-3-3L1.2.8 5.4 5 1.2 9.2.6 8z" fill="#656C7D"/></svg><svg fill="none" viewBox="0 0 30 30" id="include--mobile-viewed-icon" xmlns="http://www.w3.org/2000/svg"><g clip-path="url(#clclip0)"><rect width="30" height="30" rx="6" fill="#F4F4F4"/><path d="M22.815 14.627C21.25 11.854 18.328 10 15 10c-3.33 0-6.25 1.855-7.815 4.627a1.437 1.437 0 000 1.413c1.566 2.773 4.487 4.627 7.815 4.627 3.33 0 6.25-1.855 7.815-4.627a1.437 1.437 0 000-1.413zM15 19.275c-2.088 0-3.778-1.763-3.778-3.942 0-2.178 1.69-3.942 3.778-3.942s3.778 1.763 3.778 3.942c0 2.179-1.69 3.942-3.778 3.942zm2.889-3.942c0 1.665-1.293 3.015-2.889 3.015-1.595 0-2.889-1.35-2.889-3.015 0-.513.123-.996.34-1.42v.002c0 .685.533 1.241 1.19 1.241.656 0 1.19-.556 1.19-1.241 0-.686-.534-1.241-1.19-1.241h-.001a2.782 2.782 0 011.36-.355c1.596 0 2.889 1.35 2.889 3.014z" fill="#272323"/></g><defs><clipPath id="clclip0"><rect width="30" height="30" rx="6" fill="#fff"/></clipPath></defs></svg><svg fill="none" viewBox="0 0 30 30" id="include--mobile-wishlist-icon" xmlns="http://www.w3.org/2000/svg"><g clip-path="url(#cmclip0)"><rect width="30" height="30" rx="6" fill="#F4F4F4"/><path d="M14.07 21.62l-4.994-4.882C8.86 16.538 7 14.762 7 12.55 7 9.813 8.721 8 11.606 8c1.255 0 2.443.688 3.394 1.503C15.948 8.688 17.14 8 18.394 8 21.173 8 23 9.705 23 12.55c0 1.569-.964 3.123-2.064 4.185l-.012.012-4.994 4.873a1.327 1.327 0 01-1.86 0zm-3.982-5.923L15 20.5l4.903-4.788c.827-.815 1.643-2 1.643-3.162 0-2.019-1.158-3.102-3.152-3.102-1.43 0-2.812 1.488-3.394 2.064-.515-.513-1.94-2.064-3.394-2.064-1.997 0-3.151 1.083-3.151 3.102 0 1.125.809 2.38 1.633 3.147z" fill="#272323"/></g><defs><clipPath id="cmclip0"><rect width="30" height="30" rx="6" fill="#fff"/></clipPath></defs></svg><svg fill="none" viewBox="0 0 20 20" id="include--notify-close-icon" xmlns="http://www.w3.org/2000/svg"><path d="M14.922 4.513l.565.565L5.078 15.486l-.565-.565L14.922 4.513z" fill="#777"/><path d="M5.078 4.513l10.41 10.408-.566.566L4.512 5.079l.566-.566z" fill="#777"/></svg><svg fill="none" viewBox="0 0 8 13" id="include--ok" xmlns="http://www.w3.org/2000/svg"><path d="M6.989 8.478c-.712.441-1.691.617-2.338.683l.543.523 1.982 1.936c.724.726-.455 1.86-1.187 1.16a509.51 509.51 0 00-1.982-1.944l-1.982 1.942c-.733.698-1.912-.447-1.18-1.16.504-.493 1.224-1.204 1.982-1.937l.535-.523c-.639-.066-1.633-.23-2.353-.683C.162 7.942-.209 7.63.118 6.978c.192-.37.72-.683 1.418-.145 0 0 .943.734 2.465.734 1.523 0 2.466-.734 2.466-.734.698-.536 1.223-.226 1.418.145.322.652-.05.964-.896 1.5zM.629 3.292C.63 1.472 2.145 0 4 0s3.369 1.472 3.369 3.292c0 1.812-1.514 3.285-3.37 3.285C2.145 6.577.63 5.104.63 3.292zm1.715 0c0 .891.743 1.617 1.655 1.617s1.655-.726 1.655-1.617c0-.898-.743-1.624-1.655-1.624s-1.655.726-1.655 1.624z" fill="#656C7D"/></svg><svg fill="none" viewBox="0 0 8 15" id="include--phone-icon" xmlns="http://www.w3.org/2000/svg"><path d="M4.438.097c.812-.118 1.924-.195 2.35.17.704.603.704 4.42-.704 4.42-.709 0-1.174-.629-1.878-.026-.692.593-.703 1.656-.704 2.838-.001 1.182.011 2.244.704 2.838.704.603 1.169-.025 1.878-.025 1.407 0 1.407 3.816.704 4.419-.426.365-1.538.288-2.35.17-.543-.09-1.128-.317-1.875-1.048C1.54 12.758.706 11.102.687 7.557V7.44c.018-3.545.854-5.201 1.875-6.296C3.31.413 3.896.185 4.438.095v.002z" fill="#656C7D"/></svg><svg fill="none" viewBox="0 0 70 70" id="include--popup-success-icon" xmlns="http://www.w3.org/2000/svg"><circle cx="35" cy="35" r="35" fill="#37CC84"/><path d="M23.166 37.042l7.709 7.708 16.958-16.958" stroke="#FDFDFD" stroke-linecap="round"/></svg><svg fill="none" viewBox="0 0 13 8" id="include--popup-view-icon" xmlns="http://www.w3.org/2000/svg"><path d="M12.85 3.47C11.577 1.39 9.204 0 6.5 0 3.795 0 1.422 1.391.15 3.47a1.014 1.014 0 000 1.06C1.423 6.61 3.796 8 6.5 8c2.705 0 5.078-1.391 6.35-3.47a1.014 1.014 0 000-1.06zM6.5 6.957C4.804 6.957 3.43 5.634 3.43 4S4.804 1.043 6.5 1.043c1.696 0 3.07 1.323 3.07 2.957S8.196 6.957 6.5 6.957zM8.847 4c0 1.249-1.05 2.26-2.347 2.26-1.296 0-2.347-1.01-2.347-2.26 0-.385.1-.747.276-1.065v.001c0 .514.433.931.966.931.534 0 .967-.417.967-.93 0-.515-.433-.932-.967-.932.33-.17.705-.266 1.105-.266C7.796 1.74 8.847 2.751 8.847 4z" fill="#fff"/></svg><svg fill="none" viewBox="0 0 14 14" id="include--product-compare-icon" xmlns="http://www.w3.org/2000/svg"><path d="M12.781 7.426v5.965a.61.61 0 01-.61.609.61.61 0 01-.608-.609V7.426a.61.61 0 01.609-.609.61.61 0 01.61.61zm-.61-5.691a.61.61 0 00.61-.609V.61a.61.61 0 00-.61-.609.61.61 0 00-.608.609v.517a.61.61 0 00.609.609zM3.627 7a1.83 1.83 0 01-1.813 1.826A1.83 1.83 0 010 7a1.83 1.83 0 011.813-1.826c.99 0 1.813.822 1.813 1.826zm-1.22 0a.608.608 0 00-.594-.609.608.608 0 00-.594.609c0 .335.274.609.594.609.32 0 .594-.274.594-.609zm6.398 2.998a1.83 1.83 0 01-1.813 1.826A1.83 1.83 0 015.18 9.998a1.83 1.83 0 011.812-1.826c.99 0 1.813.806 1.813 1.826zm-1.218 0a.608.608 0 00-.595-.609.608.608 0 00-.594.609c0 .335.274.609.594.609.32 0 .595-.274.595-.61zM14 4.352a1.83 1.83 0 01-1.813 1.826 1.83 1.83 0 01-1.813-1.826 1.83 1.83 0 011.813-1.826c.99 0 1.813.822 1.813 1.826zm-1.219 0a.608.608 0 00-.594-.609.608.608 0 00-.594.61c0 .334.274.608.594.608.32 0 .594-.259.594-.609zm-5.789 8.08a.61.61 0 00-.609.61v.35a.61.61 0 00.61.608.61.61 0 00.609-.609v-.35a.61.61 0 00-.61-.608zm0-5.021a.61.61 0 00.61-.609V.61a.61.61 0 00-.61-.61.61.61 0 00-.609.609v6.193a.61.61 0 00.61.609zm-5.18 2.222a.61.61 0 00-.609.608v3.15a.61.61 0 00.61.609.61.61 0 00.61-.609v-3.15a.61.61 0 00-.61-.608zm0-5.235a.61.61 0 00.61-.609V.61a.61.61 0 00-.61-.61.61.61 0 00-.609.609v3.18a.61.61 0 00.61.609z" fill="#656C7D"/></svg><svg fill="none" viewBox="0 0 6 5" id="include--product-module-stock" xmlns="http://www.w3.org/2000/svg"><path fill-rule="evenodd" clip-rule="evenodd" d="M4.856.606a.469.469 0 01.67.657L3.03 4.38a.469.469 0 01-.675.013L.703 2.74a.469.469 0 11.662-.662l1.309 1.308L4.844.62a.149.149 0 01.013-.014z" fill="#27AE60"/></svg><svg fill="none" viewBox="0 0 8 8" id="include--product-qty-minus" xmlns="http://www.w3.org/2000/svg"><path d="M.5 4h7" stroke="#656C7D" stroke-linecap="round" stroke-linejoin="round"/></svg><svg fill="none" viewBox="0 0 8 8" id="include--product-qty-plus" xmlns="http://www.w3.org/2000/svg"><path d="M.5 4h7M4 .5v7-7z" stroke="#656C7D" stroke-linecap="round" stroke-linejoin="round"/></svg><svg fill="none" viewBox="0 0 17 14" id="include--product-wishlist-icon" xmlns="http://www.w3.org/2000/svg"><path d="M7.512 13.62L2.205 8.738C1.977 8.538 0 6.762 0 4.55 0 1.813 1.829 0 4.894 0 6.227 0 7.489.688 8.5 1.503 9.508.688 10.773 0 12.106 0 15.06 0 17 1.705 17 4.55c0 1.569-1.024 3.123-2.193 4.185l-.013.012-5.306 4.873c-.263.243-.618.38-.988.38s-.725-.137-.988-.38zM3.28 7.697L8.5 12.5l5.21-4.788c.878-.815 1.744-2 1.744-3.162 0-2.019-1.23-3.102-3.348-3.102-1.52 0-2.988 1.488-3.606 2.064C7.953 3 6.44 1.448 4.894 1.448c-2.122 0-3.349 1.083-3.349 3.102 0 1.125.86 2.38 1.736 3.147z" fill="#656C7D"/></svg><svg fill="none" viewBox="0 0 8 14" id="include--rm_mobile_menu_first-toggle" xmlns="http://www.w3.org/2000/svg"><path d="M1 13l6-6-6-6" stroke="#272323" stroke-linecap="round"/></svg><svg fill="none" viewBox="0 0 24 24" id="include--show-more-icon" xmlns="http://www.w3.org/2000/svg"><g stroke="#FDFDFD" stroke-linecap="round"><path d="M23 12l-3 3-3-3"/><path d="M12 20a8 8 0 118-8v2"/></g></svg><svg fill="none" viewBox="0 0 15 13" id="include--star-gold" xmlns="http://www.w3.org/2000/svg"><path d="M7.024.476a.5.5 0 01.952 0L9.17 4.182a.5.5 0 00.476.346h3.874a.5.5 0 01.295.904l-3.14 2.3a.5.5 0 00-.181.556l1.198 3.716a.5.5 0 01-.771.557l-3.127-2.289a.5.5 0 00-.59 0l-3.127 2.289a.5.5 0 01-.77-.557l1.197-3.716a.5.5 0 00-.18-.557l-3.141-2.3a.5.5 0 01.295-.903h3.875a.5.5 0 00.475-.346L7.024.476z" fill="#FEC600"/></svg><svg fill="none" viewBox="0 0 23 21" id="include--star-gold-big" xmlns="http://www.w3.org/2000/svg"><path d="M11.024.464a.5.5 0 01.952 0l2.218 6.828a.5.5 0 00.476.345h7.18a.5.5 0 01.293.905l-5.808 4.22a.5.5 0 00-.182.559l2.219 6.828a.5.5 0 01-.77.56l-5.808-4.22a.5.5 0 00-.588 0l-5.808 4.22a.5.5 0 01-.77-.56l2.219-6.828a.5.5 0 00-.182-.56L.857 8.542a.5.5 0 01.294-.904h7.18a.5.5 0 00.475-.345L11.025.464z" fill="#FEC600"/></svg><svg fill="none" viewBox="0 0 14 13" id="include--star-grey" xmlns="http://www.w3.org/2000/svg"><path d="M6.84.476a.5.5 0 01.951 0l1.195 3.706a.5.5 0 00.476.346h3.874a.5.5 0 01.296.904l-3.141 2.3a.5.5 0 00-.18.556l1.197 3.716a.5.5 0 01-.77.557L7.61 10.272a.5.5 0 00-.59 0l-3.127 2.289a.5.5 0 01-.771-.557L4.32 8.288a.5.5 0 00-.18-.557l-3.142-2.3a.5.5 0 01.296-.903h3.874a.5.5 0 00.476-.346L6.84.476z" fill="#E9E9E9"/></svg><svg fill="none" viewBox="0 0 23 21" id="include--star-grey-big" xmlns="http://www.w3.org/2000/svg"><path d="M11.024.464a.5.5 0 01.952 0l2.218 6.828a.5.5 0 00.476.345h7.18a.5.5 0 01.293.905l-5.808 4.22a.5.5 0 00-.182.559l2.219 6.828a.5.5 0 01-.77.56l-5.808-4.22a.5.5 0 00-.588 0l-5.808 4.22a.5.5 0 01-.77-.56l2.219-6.828a.5.5 0 00-.182-.56L.857 8.542a.5.5 0 01.294-.904h7.18a.5.5 0 00.475-.345L11.025.464z" fill="#E9E9E9"/></svg><svg fill="none" viewBox="0 0 8 13" id="include--tw" xmlns="http://www.w3.org/2000/svg"><path d="M7.94 12.195c-.358.368-1.315.805-2.562.805-3.177 0-3.866-2.255-3.866-3.57V5.774H.263A.26.26 0 010 5.52V3.793c0-.182.118-.345.297-.406 1.63-.553 2.144-1.93 2.217-2.973.021-.28.171-.414.424-.414h1.864a.26.26 0 01.263.254v2.925h2.183c.145 0 .263.112.263.251v2.075a.26.26 0 01-.263.254H5.055V9.14c0 .868.623 1.36 1.788.909.127-.049.237-.082.334-.056.092.023.153.086.195.2l.578 1.633c.048.127.087.27-.01.368z" fill="#656C7D"/></svg><svg fill="none" viewBox="0 0 51 50" id="include--user-icon" xmlns="http://www.w3.org/2000/svg"><g clip-path="url(#declip0)"><path fill-rule="evenodd" clip-rule="evenodd" d="M25.023 50c13.82 0 25.022-11.193 25.022-25S38.842 0 25.022 0C11.204 0 0 11.193 0 25s11.203 25 25.023 25z" fill="#F3F3F3"/><mask id="dea" maskUnits="userSpaceOnUse" x="0" y="0" width="51" height="50"><path fill-rule="evenodd" clip-rule="evenodd" d="M25.023 50c13.82 0 25.022-11.193 25.022-25S38.842 0 25.022 0C11.204 0 0 11.193 0 25s11.203 25 25.023 25z" fill="#fff"/></mask><g mask="url(#dea)"><path fill-rule="evenodd" clip-rule="evenodd" d="M24.93 38.202c-2.54 0-4.734-1.331-5.256-3.045h1.041c.422 0 .763-.35.763-.78v-3.248a7.819 7.819 0 006.975.001v3.247c0 .43.341.78.763.78h.97c-.522 1.714-2.716 3.045-5.256 3.045zM18.557 24.4l-.483-4.892a7.478 7.478 0 01-.049-.817c0-3.933 3.114-7.133 6.94-7.133 3.827 0 6.94 3.2 6.94 7.133 0 .278-.019.55-.052.869l-.482 4.844c-.313 3.413-3.067 5.985-6.406 5.985-3.338 0-6.092-2.572-6.408-5.99zm14.027 9.196h-2.606v-3.464a8.194 8.194 0 002.911-5.576l.481-4.872a9.09 9.09 0 00.06-.993C33.43 13.9 29.633 10 24.965 10c-4.668 0-8.464 3.9-8.464 8.692 0 .335.023.666.06 1.026l.48 4.833c.21 2.277 1.304 4.246 2.912 5.582v3.464h-2.607C11.642 33.597 7 38.364 7 44.221c0 .43.342.779.762.779a.771.771 0 00.763-.78c0-4.998 3.956-9.063 8.82-9.063h.765c.487 2.599 3.356 4.603 6.821 4.603s6.334-2.004 6.82-4.603h.833c4.865 0 8.822 4.066 8.822 9.064 0 .43.34.779.762.779a.77.77 0 00.762-.78c0-5.856-4.64-10.623-10.346-10.623z" fill="#CBCFD4"/></g></g><defs><clipPath id="declip0"><path fill="#fff" d="M0 0h50.045v50H0z"/></clipPath></defs></svg><svg fill="none" viewBox="0 0 15 9" id="include--vk" xmlns="http://www.w3.org/2000/svg"><path d="M14.658.61c.103-.351 0-.61-.495-.61h-1.64c-.418 0-.61.222-.713.47 0 0-.836 2.056-2.017 3.389-.381.385-.556.509-.765.509-.103 0-.262-.124-.262-.476V.61c0-.422-.117-.61-.462-.61H5.725c-.262 0-.418.197-.418.38 0 .4.59.492.652 1.617v2.441c0 .535-.095.633-.303.633-.557 0-1.91-2.064-2.713-4.427C2.782.186 2.623 0 2.203 0H.563C.094 0 0 .222 0 .47c0 .438.557 2.618 2.592 5.498C3.95 7.934 5.86 9 7.596 9c1.045 0 1.173-.236 1.173-.644 0-1.879-.095-2.056.429-2.056.242 0 .66.124 1.634 1.072C11.946 8.497 12.13 9 12.753 9h1.64c.468 0 .705-.236.569-.703-.312-.982-2.42-3.001-2.515-3.136-.242-.315-.172-.456 0-.737.003-.003 2.005-2.849 2.211-3.814z" fill="#656C7D"/></svg><svg fill="none" viewBox="0 0 13 11" id="include--wishlist-icon" xmlns="http://www.w3.org/2000/svg"><path d="M5.744 10.701L1.687 6.866C1.512 6.709 0 5.313 0 3.575 0 1.425 1.398 0 3.742 0 4.762 0 5.727.54 6.5 1.18 7.27.54 8.238 0 9.258 0 11.515 0 13 1.34 13 3.575c0 1.233-.783 2.454-1.677 3.288l-.01.01L7.256 10.7a1.098 1.098 0 01-.756.3c-.283 0-.555-.107-.756-.299zM2.51 6.048L6.5 9.822l3.984-3.763c.672-.64 1.334-1.571 1.334-2.484 0-1.586-.94-2.437-2.56-2.437-1.163 0-2.285 1.169-2.758 1.621-.419-.403-1.576-1.621-2.758-1.621-1.622 0-2.56.851-2.56 2.437 0 .884.657 1.87 1.327 2.473z" fill="#777"/></svg><svg fill="none" viewBox="0 0 54 54" id="include--zoom-icon" xmlns="http://www.w3.org/2000/svg"><path d="M23.625 43.875c11.184 0 20.25-9.066 20.25-20.25s-9.066-20.25-20.25-20.25-20.25 9.066-20.25 20.25 9.066 20.25 20.25 20.25zm15.188-5.062l11.812 11.812m-33.75-27h13.5m-6.75-6.75v13.5-13.5z" stroke="#fff" stroke-width="2.5" stroke-linecap="round" stroke-linejoin="round"/></svg></svg>