<svg viewBox="0 0 32 32" xmlns="http://www.w3.org/2000/svg" xmlns:xlink="http://www.w3.org/1999/xlink"><style>:root&gt;svg{display:none}:root&gt;svg:target{display:block}</style><svg fill="none" viewBox="0 0 18 18" id="include--button-back-icon" xmlns="http://www.w3.org/2000/svg"><path d="M15.75 9H2.25m4.5-4.5L2.25 9l4.5 4.5" stroke="#5A5B63" stroke-linecap="round"/></svg><svg fill="none" viewBox="0 0 24 24" id="include--delete-icon" xmlns="http://www.w3.org/2000/svg"><path d="M20.25 4.875h-4.125V3.75a1.885 1.885 0 00-1.875-1.875h-4.5A1.884 1.884 0 007.875 3.75v1.125H3.75a.375.375 0 100 .75h1.125V19.5A1.125 1.125 0 006 20.625h12a1.125 1.125 0 001.125-1.125V5.625h1.125a.375.375 0 000-.75zM8.625 3.75A1.125 1.125 0 019.75 2.625h4.5a1.125 1.125 0 011.125 1.125v1.125h-6.75V3.75zm9.75 15.75a.375.375 0 01-.375.375H6a.375.375 0 01-.375-.375V5.625h12.75V19.5zm-8.25-9.75v6a.375.375 0 01-.75 0v-6a.375.375 0 01.75 0zm4.5 0v6a.375.375 0 01-.75 0v-6a.375.375 0 11.75 0z" fill="#fff"/></svg><svg fill="none" viewBox="0 0 32 32" id="include--delivery-icon" xmlns="http://www.w3.org/2000/svg"><path d="M5.333 22.667H2.666V9.333H20v13.334h-9.334m16.001 0h2.666V16.74L26.667 12H20v10.667h1.333" stroke="#8F90A6" stroke-linecap="round"/><circle cx="8" cy="22.667" stroke="#8F90A6" r="2.667"/><circle cx="24" cy="22.667" stroke="#8F90A6" r="2.667"/></svg><svg fill="none" viewBox="0 0 32 32" id="include--payment-icon" xmlns="http://www.w3.org/2000/svg"><path d="M16 5.333V8m0 16v2.667m4.667-16S20 8 16 8s-4.666 2.609-4.666 4c0 5.52 9.333 2.62 9.333 8 0 1.391-.667 4-4.667 4s-4.666-2.667-4.666-2.667" stroke="#8F90A6" stroke-linecap="round"/></svg><svg fill="none" viewBox="0 0 20 20" id="include--quantity-minus-icon" xmlns="http://www.w3.org/2000/svg"><path d="M16.667 10H3.333" stroke="#1C1C28" stroke-linecap="round"/></svg><svg fill="none" viewBox="0 0 20 20" id="include--quantity-plus-icon" xmlns="http://www.w3.org/2000/svg"><path d="M16.667 10H3.333M10 3.333v13.333" stroke="#1C1C28" stroke-linecap="round"/></svg><svg fill="none" viewBox="0 0 24 24" id="include--user-icon" xmlns="http://www.w3.org/2000/svg"><path d="M4 20c0-3 4-3 6-5 1-1-2-1-2-6 0-3.333 1.333-5 4-5s4 1.667 4 5c0 5-3 5-2 6 2 2 6 2 6 5" stroke="#868F99" stroke-linecap="round"/></svg></svg>