<svg width="14" height="13" viewBox="0 0 14 13" fill="none" xmlns="http://www.w3.org/2000/svg">
<path d="M6.83958 0.476334C6.98857 0.0142562 7.64233 0.0142542 7.79133 0.476332L8.98607 4.18162C9.05267 4.38818 9.24492 4.52818 9.46194 4.52818L13.3363 4.52818C13.8197 4.52818 14.0217 5.14604 13.6317 5.43162L10.4907 7.73122C10.3168 7.85854 10.244 8.08296 10.3102 8.28809L11.5084 12.0041C11.6571 12.4654 11.1282 12.8473 10.7371 12.561L7.61082 10.2721C7.43496 10.1434 7.19595 10.1434 7.02009 10.2721L3.89379 12.561C3.50268 12.8473 2.9738 12.4654 3.12255 12.0041L4.32074 8.28809C4.38688 8.08297 4.31414 7.85854 4.14023 7.73122L0.999246 5.43162C0.609178 5.14604 0.811177 4.52818 1.29461 4.52818L5.16897 4.52818C5.38599 4.52818 5.57824 4.38818 5.64484 4.18162L6.83958 0.476334Z" fill="#E9E9E9"/>
</svg>
