<svg width="15" height="13" viewBox="0 0 15 13" fill="none" xmlns="http://www.w3.org/2000/svg">
<path d="M7.02415 0.476334C7.17314 0.0142562 7.8269 0.0142542 7.9759 0.476332L9.17064 4.18162C9.23724 4.38818 9.42949 4.52818 9.64651 4.52818L13.5209 4.52818C14.0043 4.52818 14.2063 5.14604 13.8162 5.43162L10.6752 7.73122C10.5013 7.85854 10.4286 8.08296 10.4947 8.28809L11.6929 12.0041C11.8417 12.4654 11.3128 12.8473 10.9217 12.561L7.79539 10.2721C7.61953 10.1434 7.38052 10.1434 7.20466 10.2721L4.07836 12.561C3.68725 12.8473 3.15837 12.4654 3.30712 12.0041L4.50531 8.28809C4.57145 8.08297 4.49871 7.85854 4.3248 7.73122L1.18382 5.43162C0.793748 5.14604 0.995747 4.52818 1.47918 4.52818L5.35354 4.52818C5.57056 4.52818 5.76281 4.38818 5.82941 4.18162L7.02415 0.476334Z" fill="#FEC600"/>
</svg>
