<svg width="23" height="21" viewBox="0 0 23 21" fill="none" xmlns="http://www.w3.org/2000/svg">
<path d="M11.0245 0.463525C11.1741 0.00286949 11.8259 0.00287008 11.9755 0.463525L14.1942 7.2918C14.2611 7.49781 14.4531 7.63729 14.6697 7.63729H21.8494C22.3337 7.63729 22.5351 8.2571 22.1433 8.5418L16.3348 12.7619C16.1595 12.8892 16.0862 13.1149 16.1531 13.3209L18.3718 20.1492C18.5215 20.6098 17.9942 20.9929 17.6024 20.7082L11.7939 16.4881C11.6186 16.3608 11.3814 16.3608 11.2061 16.4881L5.39763 20.7082C5.00578 20.9929 4.47854 20.6098 4.62821 20.1492L6.84685 13.3209C6.91379 13.1149 6.84046 12.8892 6.66522 12.7619L0.856742 8.54179C0.464885 8.25709 0.666273 7.63729 1.15064 7.63729H8.3303C8.54692 7.63729 8.73889 7.49781 8.80583 7.2918L11.0245 0.463525Z" fill="#E9E9E9"/>
</svg>
