<svg width="8" height="13" viewBox="0 0 8 13" fill="none" xmlns="http://www.w3.org/2000/svg">
<path d="M7.93997 12.1951C7.58229 12.5633 6.62497 13 5.37835 13C2.20131 13 1.51225 10.7453 1.51225 9.43008V5.77383H0.263C0.11835 5.77383 2.50816e-09 5.65957 2.50816e-09 5.51992V3.79336C2.50816e-09 3.61055 0.11835 3.44805 0.29719 3.38711C1.92779 2.83359 2.44064 1.45742 2.51428 0.413867C2.53532 0.13457 2.68523 0 2.93771 0H4.80238C4.94703 0 5.06538 0.114258 5.06538 0.253906V3.17891H7.24828C7.39293 3.17891 7.51128 3.29063 7.51128 3.43027V5.50469C7.51128 5.64434 7.39293 5.75859 7.24828 5.75859H5.05486V9.14062C5.05486 10.009 5.67817 10.5016 6.84326 10.0496C6.9695 10.0014 7.07996 9.96836 7.17727 9.99375C7.26932 10.0166 7.32981 10.0801 7.37189 10.1943L7.95049 11.827C7.99783 11.9539 8.03728 12.0961 7.93997 12.1951Z" fill="#656C7D"/>
</svg>
