<svg width="51" height="50" viewBox="0 0 51 50" fill="none" xmlns="http://www.w3.org/2000/svg">
<g clip-path="url(#clip0)">
<path fill-rule="evenodd" clip-rule="evenodd" d="M25.0225 50C38.8421 50 50.0451 38.8071 50.0451 25C50.0451 11.1929 38.8421 0 25.0225 0C11.203 0 0 11.1929 0 25C0 38.8071 11.203 50 25.0225 50Z" fill="#F3F3F3"/>
<mask id="mask0" mask-type="alpha" maskUnits="userSpaceOnUse" x="0" y="0" width="51" height="50">
<path fill-rule="evenodd" clip-rule="evenodd" d="M25.0225 50C38.8421 50 50.0451 38.8071 50.0451 25C50.0451 11.1929 38.8421 0 25.0225 0C11.203 0 0 11.1929 0 25C0 38.8071 11.203 50 25.0225 50Z" fill="white"/>
</mask>
<g mask="url(#mask0)">
<path fill-rule="evenodd" clip-rule="evenodd" d="M24.9301 38.2019C22.39 38.2019 20.1961 36.8708 19.6745 35.1568H20.7154C21.1368 35.1568 21.4776 34.8073 21.4776 34.3766V31.1289C22.5315 31.6531 23.7139 31.9492 24.9649 31.9492C26.216 31.9492 27.3984 31.6531 28.4523 31.13V34.3766C28.4523 34.8073 28.7942 35.1568 29.2156 35.1568H30.1868C29.6641 36.8708 27.4702 38.2019 24.9301 38.2019ZM18.5574 24.4009L18.074 19.5094C18.0446 19.2411 18.025 18.9696 18.025 18.6924C18.025 14.7592 21.139 11.5593 24.9649 11.5593C28.792 11.5593 31.9049 14.7592 31.9049 18.6924C31.9049 18.9696 31.8864 19.2411 31.8526 19.5606L31.3714 24.4054C31.0578 27.8178 28.3043 30.3899 24.9649 30.3899C21.6267 30.3899 18.8732 27.8178 18.5574 24.4009ZM32.5843 33.5975H29.9777V30.1328C31.5848 28.7983 32.679 26.8305 32.8891 24.5567L33.3704 19.6852C33.4063 19.358 33.4303 19.0274 33.4303 18.6924C33.4303 13.8999 29.6326 10 24.965 10C20.2973 10 16.5007 13.8999 16.5007 18.6924C16.5007 19.0274 16.5236 19.358 16.5606 19.7175L17.0408 24.5511C17.2509 26.8283 18.3451 28.7972 19.9533 30.1328V33.5975H17.3456C11.6415 33.5975 7 38.3644 7 44.2209C7 44.6516 7.34188 45 7.76215 45C8.18351 45 8.52539 44.6516 8.52539 44.2209C8.52539 39.2225 12.4809 35.1568 17.3456 35.1568H18.11C18.5967 37.7556 21.4656 39.7601 24.9312 39.7601C28.3957 39.7601 31.2647 37.7556 31.7514 35.1568H32.5843C37.449 35.1568 41.4056 39.2225 41.4056 44.2209C41.4056 44.6516 41.7464 45 42.1678 45C42.5891 45 42.9299 44.6516 42.9299 44.2209C42.9299 38.3644 38.2895 33.5975 32.5843 33.5975Z" fill="#CBCFD4"/>
</g>
</g>
<defs>
<clipPath id="clip0">
<rect width="50.0451" height="50" fill="white"/>
</clipPath>
</defs>
</svg>
