<svg width="15" height="9" viewBox="0 0 15 9" fill="none" xmlns="http://www.w3.org/2000/svg">
<path d="M14.6581 0.610312C14.7612 0.25875 14.6581 0 14.1625 0H12.5224C12.1047 0 11.9125 0.222187 11.8095 0.469687C11.8095 0.469687 10.9741 2.52562 9.79344 3.85875C9.41195 4.24406 9.23652 4.36781 9.02768 4.36781C8.92465 4.36781 8.76592 4.24406 8.76592 3.8925V0.610312C8.76592 0.188437 8.64897 0 8.30368 0H5.72514C5.46339 0 5.30745 0.196875 5.30745 0.379687C5.30745 0.779062 5.89779 0.871875 5.95905 1.99687V4.43813C5.95905 4.9725 5.86437 5.07094 5.65552 5.07094C5.0986 5.07094 3.74529 3.00656 2.94332 0.644063C2.78182 0.185625 2.62309 0 2.20262 0H0.562489C0.0946764 0 1.06224e-08 0.222187 1.06224e-08 0.469687C1.06224e-08 0.908437 0.55692 3.08813 2.59246 5.96813C3.94856 7.93406 5.8588 9 7.59639 9C8.64062 9 8.76871 8.76375 8.76871 8.35594C8.76871 6.47719 8.67403 6.3 9.19754 6.3C9.4398 6.3 9.85749 6.42375 10.8321 7.37156C11.9459 8.49656 12.1297 9 12.7535 9H14.3936C14.8614 9 15.0981 8.76375 14.9617 8.29688C14.6498 7.31531 12.5418 5.29594 12.4472 5.16094C12.2049 4.84594 12.2745 4.70531 12.4472 4.42406C12.45 4.42125 14.4521 1.575 14.6581 0.610312Z" fill="#656C7D"/>
</svg>
