<svg width="13" height="11" viewBox="0 0 13 11" fill="none" xmlns="http://www.w3.org/2000/svg">
<path d="M5.74413 10.7013L1.68655 6.86552C1.51174 6.70905 0 5.31271 0 3.575C0 1.42478 1.39849 0 3.74242 0C4.76174 0 5.72689 0.540517 6.5 1.1806C7.27064 0.540517 8.23826 0 9.25758 0C11.5153 0 13 1.33944 13 3.575C13 4.80776 12.217 6.02866 11.3233 6.86314L11.3134 6.87263L7.25587 10.7013C7.05451 10.8927 6.78295 11 6.5 11C6.21705 11 5.94549 10.8927 5.74413 10.7013ZM2.5089 6.04763L6.5 9.82176L10.4837 6.05948C11.1559 5.41939 11.8182 4.48771 11.8182 3.575C11.8182 1.98901 10.8777 1.13793 9.25758 1.13793C8.09545 1.13793 6.97273 2.30668 6.5 2.75948C6.08144 2.35646 4.92424 1.13793 3.74242 1.13793C2.11989 1.13793 1.18182 1.98901 1.18182 3.575C1.18182 4.45927 1.8392 5.44547 2.5089 6.04763Z" fill="#777777"/>
</svg>
