<svg width="24" height="24" viewBox="0 0 24 24" fill="none" xmlns="http://www.w3.org/2000/svg">
<path d="M21.9108 12.7304V22.9565C21.9108 23.5304 21.4407 24 20.8662 24C20.2916 24 19.8215 23.5304 19.8215 22.9565V12.7304C19.8215 12.1565 20.2916 11.687 20.8662 11.687C21.4407 11.687 21.9108 12.1565 21.9108 12.7304ZM20.8662 2.97389C21.4407 2.97389 21.9108 2.50432 21.9108 1.93041V1.04348C21.9108 0.469565 21.4407 0 20.8662 0C20.2916 0 19.8215 0.469565 19.8215 1.04348V1.93041C19.8215 2.50432 20.2916 2.97389 20.8662 2.97389ZM6.21546 12C6.21546 13.7217 4.80522 15.1304 3.10773 15.1304C1.41023 15.1304 -6.37582e-06 13.7217 -6.37582e-06 12C-6.37582e-06 10.2783 1.41023 8.86957 3.10773 8.86957C4.80522 8.86957 6.21546 10.2783 6.21546 12ZM4.12623 12C4.12623 11.4261 3.65615 10.9565 3.10773 10.9565C2.5593 10.9565 2.08922 11.4261 2.08922 12C2.08922 12.5739 2.5593 13.0435 3.10773 13.0435C3.65615 13.0435 4.12623 12.5739 4.12623 12ZM15.0947 17.1391C15.0947 18.8609 13.6844 20.2696 11.9869 20.2696C10.2894 20.2696 8.87921 18.8609 8.87921 17.1391C8.87921 15.4174 10.2894 14.0087 11.9869 14.0087C13.6844 14.0087 15.0947 15.3913 15.0947 17.1391ZM13.0054 17.1391C13.0054 16.5652 12.5354 16.0956 11.9869 16.0956C11.4385 16.0956 10.9684 16.5652 10.9684 17.1391C10.9684 17.713 11.4385 18.1826 11.9869 18.1826C12.5354 18.1826 13.0054 17.713 13.0054 17.1391ZM24 7.4609C24 9.18263 22.5898 10.5913 20.8923 10.5913C19.1948 10.5913 17.7845 9.18263 17.7845 7.4609C17.7845 5.73916 19.1948 4.33046 20.8923 4.33046C22.5898 4.33046 24 5.73916 24 7.4609ZM21.9108 7.4609C21.9108 6.88698 21.4407 6.41742 20.8923 6.41742C20.3438 6.41742 19.8738 6.88698 19.8738 7.4609C19.8738 8.03481 20.3438 8.50437 20.8923 8.50437C21.4407 8.50437 21.9108 8.06089 21.9108 7.4609ZM11.9869 21.313C11.4124 21.313 10.9423 21.7826 10.9423 22.3565V22.9565C10.9423 23.5304 11.4124 24 11.9869 24C12.5615 24 13.0316 23.5304 13.0316 22.9565V22.3565C13.0316 21.7826 12.5615 21.313 11.9869 21.313ZM11.9869 12.7043C12.5615 12.7043 13.0316 12.2348 13.0316 11.6609V1.04348C13.0316 0.469565 12.5615 0 11.9869 0C11.4124 0 10.9423 0.469565 10.9423 1.04348V11.6609C10.9423 12.2348 11.4124 12.7043 11.9869 12.7043ZM3.10773 16.5131C2.53319 16.5131 2.06311 16.9826 2.06311 17.5565V22.9565C2.06311 23.5304 2.53319 24 3.10773 24C3.68226 24 4.15234 23.5304 4.15234 22.9565V17.5565C4.15234 16.9826 3.68226 16.5131 3.10773 16.5131ZM3.10773 7.5391C3.68226 7.5391 4.15234 7.06954 4.15234 6.49563V1.04348C4.15234 0.469565 3.68226 0 3.10773 0C2.53319 0 2.06311 0.469565 2.06311 1.04348V6.49563C2.06311 7.06954 2.53319 7.5391 3.10773 7.5391Z" fill="#FDFDFD"/>
</svg>
