<svg width="24" height="20" viewBox="0 0 24 20" fill="none" xmlns="http://www.w3.org/2000/svg">
<path d="M10.6045 19.4569L3.11364 12.4828C2.79091 12.1983 0 9.65948 0 6.5C0 2.59052 2.58182 0 6.90909 0C8.79091 0 10.5727 0.982758 12 2.14655C13.4227 0.982758 15.2091 0 17.0909 0C21.2591 0 24 2.43534 24 6.5C24 8.74138 22.5545 10.9612 20.9045 12.4784L20.8864 12.4957L13.3955 19.4569C13.0237 19.8049 12.5224 20 12 20C11.4776 20 10.9763 19.8049 10.6045 19.4569ZM4.63182 10.9957L12 17.8578L19.3545 11.0172C20.5955 9.85345 21.8182 8.15948 21.8182 6.5C21.8182 3.61638 20.0818 2.06896 17.0909 2.06896C14.9455 2.06896 12.8727 4.19396 12 5.01724C11.2273 4.28448 9.09091 2.06896 6.90909 2.06896C3.91364 2.06896 2.18182 3.61638 2.18182 6.5C2.18182 8.10776 3.39545 9.90086 4.63182 10.9957Z" fill="#FDFDFD"/>
</svg>
