<svg width="20" height="22" viewBox="0 0 20 22" fill="none" xmlns="http://www.w3.org/2000/svg">
<g clip-path="url(#clip0)">
<path d="M10 0.681824C6.38594 0.681824 3.4375 3.60589 3.4375 7.19009C3.4375 9.43079 4.59062 11.4205 6.33812 12.5947C2.99406 14.0173 0.625 17.3086 0.625 21.1364H2.5C2.5 17.0176 5.84688 13.6984 10 13.6984C14.1531 13.6984 17.5 17.0176 17.5 21.1364H19.375C19.375 17.3086 17.0059 14.0182 13.6619 12.5938C14.5538 11.9967 15.2845 11.1919 15.7902 10.2499C16.2958 9.30786 16.561 8.25729 16.5625 7.19009C16.5625 3.60589 13.6141 0.681824 10 0.681824ZM10 2.54133C12.5997 2.54133 14.6875 4.61189 14.6875 7.19009C14.6875 9.76829 12.5997 11.8388 10 11.8388C7.40031 11.8388 5.3125 9.76829 5.3125 7.19009C5.3125 4.61189 7.40031 2.54133 10 2.54133Z" fill="#FDFDFD"/>
</g>
<defs>
<clipPath id="clip0">
<rect width="20" height="21.8182" fill="white"/>
</clipPath>
</defs>
</svg>
